<?xml version="1.0" encoding="utf-8"?>
<!-- Generator: Adobe Illustrator 19.1.0, SVG Export Plug-In . SVG Version: 6.00 Build 0)  -->
<svg version="1.1" id="Layer_1" xmlns="http://www.w3.org/2000/svg" xmlns:xlink="http://www.w3.org/1999/xlink" x="0px" y="0px"
	 viewBox="96 102.8 1191.2 797.2" style="enable-background:new 96 102.8 1191.2 797.2;" xml:space="preserve">
<style type="text/css">
	.st0{fill:#43C4C2;}
	.st1{fill:#E6E6E7;}
</style>
<path class="st0" d="M805.7,565.2h-226c-10.9,0-19.7,8.8-19.7,19.7v230.9c0,10.9,8.8,19.7,19.7,19.7h226c10.9,0,19.7-8.8,19.7-19.7
	V585C825.4,574.1,816.6,565.2,805.7,565.2z M696.2,662.7l-57.8,75.2c-0.6,0.8-1.5,1.2-2.4,1.2c-1,0-1.9-0.4-2.4-1.2l-57.8-75.2
	c-0.4-0.6-0.6-1.2-0.6-1.9c0-0.6,0.2-1.3,0.6-1.8c0.8-1.1,2.3-1.5,3.6-1l38.3,15.1v-88.6c0-1.7,1.4-3.1,3.1-3.1h30.7
	c1.7,0,3.1,1.4,3.1,3.1v88.6l38.3-15.1c1.3-0.5,2.7-0.1,3.6,1C697.1,660.1,697.1,661.6,696.2,662.7z M842.7,511.7h-300
	c-19.6,0-35.4,15.9-35.4,35.4v306.5c0,19.6,15.9,35.4,35.4,35.4h300c19.6,0,35.4-15.9,35.4-35.4V547.2
	C878.1,527.6,862.2,511.7,842.7,511.7z M839.4,815.9c0,18.6-15.1,33.7-33.7,33.7h-226c-18.6,0-33.7-15.1-33.7-33.7V585
	c0-18.6,15.1-33.7,33.7-33.7h226c18.6,0,33.7,15.1,33.7,33.7V815.9z"/>
<path class="st1" d="M1195.8,565H970.3c-10.9,0-19.7,8.8-19.7,19.7v230.4c0,10.9,8.8,19.7,19.7,19.7h225.6
	c10.8,0,19.7-8.8,19.7-19.7V584.7C1215.5,573.8,1206.7,565,1195.8,565z M1130.4,653.9l-75,57.7c-0.6,0.4-1.2,0.6-1.9,0.6
	c-0.6,0-1.3-0.2-1.8-0.6c-1.1-0.8-1.5-2.3-1-3.6l15.1-38.2h-88.4c-1.7,0-3.1-1.4-3.1-3.1v-30.6c0-1.7,1.4-3.1,3.1-3.1h88.4
	l-15.1-38.2c-0.5-1.3-0.1-2.7,1-3.6c1.1-0.8,2.6-0.8,3.7,0l75,57.7c0.8,0.6,1.2,1.5,1.2,2.4C1131.6,652.4,1131.2,653.3,1130.4,653.9
	z M1232.7,511.6H933.3c-19.5,0-35.4,15.8-35.4,35.4v305.8c0,19.5,15.8,35.4,35.4,35.4h299.4c19.5,0,35.4-15.8,35.4-35.4V547
	C1268.1,527.4,1252.2,511.6,1232.7,511.6z M1229.4,815.1c0,18.5-15.1,33.6-33.6,33.6H970.3c-18.5,0-33.6-15.1-33.6-33.6V584.7
	c0-18.5,15.1-33.6,33.6-33.6h225.6c18.5,0,33.6,15.1,33.6,33.6L1229.4,815.1L1229.4,815.1z"/>
<g>
	<path class="st0" d="M807.8,167.7h-226c-10.9,0-19.7,8.8-19.7,19.7v231c0,10.9,8.8,19.7,19.7,19.7h226c10.9,0,19.7-8.8,19.7-19.7
		v-231C827.5,176.6,818.7,167.7,807.8,167.7z M705.3,262.6c-0.8,1.1-2.3,1.5-3.6,1l-38.3-15.1v88.6c0,1.7-1.4,3.1-3.1,3.1h-30.7
		c-1.7,0-3.1-1.4-3.1-3.1v-88.6l-38.3,15.1c-1.3,0.5-2.7,0.1-3.6-1c-0.8-1.1-0.8-2.6,0-3.7l57.8-75.2c0.6-0.8,1.5-1.2,2.4-1.2
		c1,0,1.9,0.4,2.4,1.2l57.8,75.2c0.4,0.6,0.6,1.2,0.6,1.9C705.9,261.4,705.7,262.1,705.3,262.6z M844.8,114.2h-300
		c-19.6,0-35.4,15.9-35.4,35.4v306.5c0,19.6,15.9,35.4,35.4,35.4h300c19.6,0,35.4-15.9,35.4-35.4V149.7
		C880.2,130.1,864.4,114.2,844.8,114.2z M841.5,418.4c0,18.6-15.1,33.7-33.7,33.7h-226c-18.6,0-33.7-15.1-33.7-33.7v-231
		c0-18.6,15.1-33.7,33.7-33.7h226c18.6,0,33.7,15.1,33.7,33.7V418.4z"/>
</g>
<path class="st1" d="M414.7,565.1h-226c-10.9,0-19.7,8.8-19.7,19.7v230.9c0,10.9,8.8,19.7,19.7,19.7h226c10.9,0,19.7-8.8,19.7-19.7
	V584.8C434.5,573.9,425.6,565.1,414.7,565.1z M191.6,646.2l75.2-57.8c0.6-0.4,1.2-0.6,1.9-0.6c0.6,0,1.3,0.2,1.8,0.6
	c1.1,0.8,1.5,2.3,1,3.6l-15.1,38.3H345c1.7,0,3.1,1.4,3.1,3.1v30.7c0,1.7-1.4,3.1-3.1,3.1h-88.6l15.1,38.3c0.5,1.3,0.1,2.7-1,3.6
	c-1.1,0.8-2.6,0.8-3.7,0l-75.2-57.8c-0.8-0.6-1.2-1.5-1.2-2.4C190.4,647.6,190.9,646.7,191.6,646.2z M451.7,511.6h-300
	c-19.6,0-35.4,15.9-35.4,35.4v306.5c0,19.6,15.9,35.4,35.4,35.4h300c19.6,0,35.4-15.9,35.4-35.4V547
	C487.2,527.4,471.3,511.6,451.7,511.6z M448.4,815.7c0,18.6-15.1,33.7-33.7,33.7h-226c-18.6,0-33.7-15.1-33.7-33.7V584.8
	c0-18.6,15.1-33.7,33.7-33.7h226c18.6,0,33.7,15.1,33.7,33.7V815.7L448.4,815.7z"/>
</svg>
