<?xml version="1.0" encoding="utf-8"?>
<!-- Generator: Adobe Illustrator 19.1.0, SVG Export Plug-In . SVG Version: 6.00 Build 0)  -->
<svg version="1.2" baseProfile="tiny" id="Layer_1" xmlns="http://www.w3.org/2000/svg" xmlns:xlink="http://www.w3.org/1999/xlink"
	 x="0px" y="0px" viewBox="0 0 204.3 192.2" xml:space="preserve">
<g>
	<g>
		<g>
			<path fill="#FFFFFF" d="M73.2,172c0.2,0,0.4,0,0.6,0c1,0,1.9,0.1,2.9,0.2c2.1,0.3,3.9,1,5.5,1.9c0-0.2-0.1-0.4-0.1-0.6
				c-0.6-3-2.8-8.2-2.8-8.2s3.2,3,4.5,7c0.3,1,0.7,2.3,1,3.8c1,0.9,1.8,1.8,2.3,2.5c0.1-3.8-0.3-9.1-2.6-15.2
				c-3.7-9.8-13.5-11.5-13.5-11.5s2,7.3,2.2,10.2C73.5,164.6,72.7,167.8,73.2,172z"/>
			<path fill="#FFFFFF" d="M73.9,173.2c0.9,0,1.8,0.1,2.8,0.2c7.3,1,10.6,7.2,10.7,7.5l0.3,0.6l-0.6,0.1c-0.3,0.1-6.3,1.5-10.3,1.3
				c-1.4-0.1-4.2-0.6-5.8-1.1c0.8,1.2,3.5,2.7,6,2.8c3,0.1,10.4-0.6,10.4-0.6l1.6,0l-1.4,0.9c-0.2,0.2-5.8,3.8-15,3.8
				c-1.5,0-3.1-0.1-4.6-0.3c-10-1.3-14.2-11.1-14.2-11.2l-0.3-0.6l0.6-0.1c0.1,0,6.7-0.8,9.4-1.4c0.7-0.1,1.5-0.4,2.4-0.6
				C68.1,174,70.7,173.2,73.9,173.2z"/>
			<path fill="#FFFFFF" d="M87.9,179.4l2.2,2.1l-3.2,1.5c0,0,8.4-0.1,8.8-1.1C96.1,180.7,92.5,181.5,87.9,179.4z"/>
		</g>
		<g>
			<path fill="#FFFFFF" d="M46,154.9c0.2,0.1,0.4,0.1,0.6,0.2c0.9,0.3,1.8,0.8,2.6,1.2c1.9,1,3.3,2.3,4.4,3.6c0-0.2,0.1-0.4,0.1-0.6
				c0.4-3,0-8.5,0-8.5s2,3.8,1.9,7.9c0,1-0.1,2.4-0.3,3.8c0.6,1.2,1.1,2.3,1.3,3.1c1.3-3.4,2.6-8.4,2.3-14.7
				c-0.4-10.2-8.7-15.2-8.7-15.2s-0.4,7.4-1.1,10.1C48.5,148.2,46.8,150.9,46,154.9z"/>
			<path fill="#FFFFFF" d="M46.2,156.2c0.8,0.3,1.7,0.7,2.5,1.1c6.3,3.5,7.4,10.3,7.4,10.6l0.1,0.6l-0.6-0.1c-0.3,0-6.3-0.9-9.8-2.4
				c-1.2-0.5-3.7-2-4.9-3c0.4,1.4,2.3,3.7,4.6,4.7c2.7,1.2,9.7,3.1,9.7,3.1l1.5,0.5l-1.6,0.4c-0.3,0.1-6.5,1.4-14.8-1.8
				c-1.4-0.5-2.8-1.2-4.1-1.9c-8.7-4.8-9.5-15.2-9.5-15.3l0-0.6l0.6,0.1c0.1,0,6.4,1.6,9,2.1c0.7,0.1,1.5,0.2,2.4,0.3
				C40.7,154.9,43.3,155.1,46.2,156.2z"/>
			<path fill="#FFFFFF" d="M57.1,166.8l1.4,2.7l-3.4,0.2c0,0,7.6,2.9,8.3,2.1C64.2,170.9,60.6,170.4,57.1,166.8z"/>
		</g>
		<g>
			<path fill="#FFFFFF" d="M25.8,129.1c0.2,0.1,0.3,0.3,0.5,0.4c0.7,0.6,1.4,1.3,2,2c1.4,1.6,2.3,3.3,2.9,4.9
				c0.1-0.2,0.2-0.4,0.3-0.5c1.3-2.6,2.7-7.7,2.7-7.7s0.6,4.2-0.7,7.9c-0.3,0.9-0.9,2.1-1.4,3.4c0.2,1.3,0.3,2.4,0.3,3.3
				c2.2-2.6,4.9-6.7,6.7-12.6c2.8-9.5-3.2-17-3.2-17s-2.7,6.5-4.2,8.8C30.2,123.9,27.8,125.8,25.8,129.1z"/>
			<path fill="#FFFFFF" d="M25.6,130.4c0.7,0.6,1.3,1.2,1.9,1.9c4.7,5.4,3.5,12,3.5,12.3l-0.1,0.6l-0.5-0.3c-0.2-0.1-5.4-3-8.2-5.7
				c-0.9-0.9-2.7-3.1-3.6-4.5c-0.1,1.4,1,4.2,2.7,5.9c2.1,2,7.8,6.3,7.9,6.3l1.2,1l-1.5-0.2c-0.3,0-6.4-1-13-6.9
				c-1.1-1-2.2-2.1-3.2-3.2c-6.4-7.4-3.9-17.2-3.9-17.3l0.2-0.6l0.5,0.3c0.1,0,5.3,3.7,7.6,5.1c0.6,0.4,1.3,0.7,2.1,1.1
				C21,127.2,23.3,128.3,25.6,130.4z"/>
			<path fill="#FFFFFF" d="M32.2,143.9l0.4,2.9l-3.1-1c0,0,6.1,5.4,6.9,4.8C37.4,150.2,34.3,148.5,32.2,143.9z"/>
		</g>
		<g>
			<path fill="#FFFFFF" d="M16.3,101.2c0.1,0.2,0.2,0.3,0.3,0.5c0.4,0.8,0.8,1.6,1.1,2.5c0.7,1.9,1,3.7,1.1,5.3
				c0.1-0.1,0.3-0.3,0.4-0.4c1.9-1.8,4.7-5.9,4.7-5.9s-0.7,3.9-3,6.8c-0.6,0.7-1.4,1.6-2.3,2.5c-0.2,1.2-0.5,2.2-0.8,3
				c2.8-1.6,6.4-4.3,9.7-8.8c5.4-7.4,2.3-16.1,2.3-16.1s-4.3,4.9-6.4,6.4C21.8,98.1,19.1,98.9,16.3,101.2z"/>
			<path fill="#FFFFFF" d="M15.7,102.2c0.4,0.8,0.8,1.5,1.1,2.3c2.5,6.4-0.5,11.8-0.6,12.1l-0.3,0.5l-0.4-0.4
				c-0.2-0.2-3.9-4.5-5.5-7.8c-0.6-1.1-1.5-3.7-1.8-5.2c-0.5,1.2-0.4,4.1,0.6,6.1c1.2,2.5,5,8.2,5.1,8.3l0.8,1.3l-1.3-0.7
				c-0.2-0.1-5.3-3.1-9.4-10.6c-0.7-1.3-1.3-2.6-1.8-3.9C-1.3,95.4,3.9,87.6,4,87.6l0.3-0.5l0.3,0.5c0,0.1,3.6,5.1,5.1,7.1
				c0.4,0.5,0.9,1.1,1.5,1.7C12.6,97.8,14.3,99.6,15.7,102.2z"/>
			<path fill="#FFFFFF" d="M17.6,116.5l-0.5,2.7l-2.5-2c0,0,3.7,6.8,4.7,6.7C20.2,123.7,18,121.2,17.6,116.5z"/>
		</g>
		<g>
			<path fill="#FFFFFF" d="M16.8,73.1c0,0.2,0.1,0.4,0.1,0.6c0.1,0.9,0.2,1.8,0.3,2.7c0.1,2-0.2,3.7-0.7,5.2
				c0.2-0.1,0.3-0.1,0.5-0.2c2.3-1,6.1-3.7,6.1-3.7s-1.9,3.3-4.9,5.1c-0.7,0.4-1.8,0.9-2.8,1.4c-0.6,1-1.1,1.9-1.7,2.5
				c3-0.4,7.2-1.6,11.6-4.6c7.2-4.8,7.1-13.9,7.1-13.9s-5.5,2.9-7.8,3.5C22.7,72.3,20,72.1,16.8,73.1z"/>
			<path fill="#FFFFFF" d="M15.9,73.9c0.1,0.8,0.2,1.7,0.3,2.5c0.3,6.7-4.1,10.6-4.3,10.8l-0.4,0.3L11.2,87
				c-0.1-0.2-2.1-5.5-2.6-9.1c-0.2-1.2-0.2-3.9,0-5.4c-0.9,0.9-1.7,3.6-1.3,5.8c0.3,2.7,2,9.3,2,9.3l0.3,1.5l-0.9-1.1
				c-0.2-0.2-3.9-4.7-5.3-12.9c-0.2-1.4-0.4-2.8-0.4-4.2c-0.4-9.2,6.7-14.5,6.8-14.5l0.4-0.3l0.2,0.5c0,0.1,1.7,5.9,2.5,8.3
				c0.2,0.6,0.5,1.3,0.9,2.1C14.4,68.8,15.4,71,15.9,73.9z"/>
			<path fill="#FFFFFF" d="M13.1,87.5l-1.3,2.3l-1.6-2.7c0,0,1.3,7.6,2.2,7.7C13.3,95.1,12.1,92,13.1,87.5z"/>
		</g>
		<g>
			<path fill="#FFFFFF" d="M26.2,48.6c0,0.2-0.1,0.4-0.1,0.6c-0.1,0.8-0.3,1.7-0.6,2.5c-0.5,1.8-1.3,3.3-2.2,4.5c0.2,0,0.3,0,0.5,0
				c2.4-0.1,6.7-1.2,6.7-1.2s-2.7,2.4-6,2.9c-0.8,0.1-1.9,0.2-3,0.3c-0.8,0.7-1.6,1.3-2.3,1.7c2.9,0.7,7,1.1,12-0.1
				c8.1-1.9,10.8-10.2,10.8-10.2s-5.9,0.7-8.2,0.5C31.8,49.9,29.4,48.7,26.2,48.6z"/>
			<path fill="#FFFFFF" d="M25.1,49c-0.1,0.8-0.3,1.6-0.5,2.4c-1.8,6.3-7,8.2-7.3,8.3l-0.5,0.2l0-0.5c0-0.2-0.2-5.8,0.5-9.2
				c0.2-1.2,1-3.6,1.6-4.9c-1.1,0.5-2.6,2.7-3,4.8c-0.5,2.6-1,9.2-1,9.2l-0.2,1.4l-0.5-1.4c-0.1-0.2-2.1-5.6-0.8-13.7
				c0.2-1.3,0.5-2.7,0.9-4c2.5-8.5,10.6-10.8,10.7-10.8l0.5-0.1l0,0.6c0,0.1-0.3,6-0.3,8.4c0,0.7,0.1,1.4,0.1,2.2
				C25.4,43.8,25.6,46.2,25.1,49z"/>
			<path fill="#FFFFFF" d="M18.4,60.4l-1.9,1.7l-0.7-3c0,0-1.2,7.3-0.4,7.8C16.2,67.4,16,64.1,18.4,60.4z"/>
		</g>
		<g>
			<path fill="#FFFFFF" d="M43.2,27.2c-0.1,0.2-0.2,0.3-0.3,0.5c-0.4,0.7-0.9,1.5-1.3,2.2c-1.1,1.5-2.3,2.6-3.5,3.4
				c0.2,0.1,0.3,0.1,0.5,0.2c2.3,0.8,6.7,1.3,6.7,1.3s-3.3,1.2-6.6,0.6c-0.8-0.2-1.9-0.5-3-0.8c-1,0.4-1.9,0.6-2.7,0.7
				c2.5,1.7,6.3,3.6,11.3,4.3c8.2,1.2,13.4-5.6,13.4-5.6s-5.8-1.5-7.8-2.5C48.1,30.5,46.2,28.6,43.2,27.2z"/>
			<path fill="#FFFFFF" d="M42.1,27.2c-0.4,0.7-0.8,1.4-1.3,2.1c-3.7,5.2-9.3,5.1-9.5,5.1l-0.5,0l0.2-0.5c0.1-0.2,1.6-5.5,3.4-8.5
				c0.6-1,2.1-3,3.1-4c-1.2,0.1-3.3,1.5-4.4,3.4c-1.3,2.2-3.9,8.3-3.9,8.3l-0.7,1.3l-0.1-1.5c0-0.2-0.2-6.1,3.6-13.1
				c0.6-1.2,1.4-2.3,2.1-3.4C39.3,9.2,47.7,10,47.8,10l0.5,0.1l-0.2,0.5c0,0.1-2.2,5.5-3,7.8c-0.2,0.6-0.4,1.3-0.6,2.1
				C44,22.4,43.5,24.7,42.1,27.2z"/>
			<path fill="#FFFFFF" d="M32.1,35.5l-2.3,0.9l0.3-3.1c0,0-3.5,6.5-2.9,7.2C27.8,41.2,28.7,38.1,32.1,35.5z"/>
		</g>
		<g>
			<path fill="#FFFFFF" d="M64.8,16.9c-0.1,0.1-0.3,0.2-0.4,0.4c-0.6,0.5-1.2,1-1.9,1.5c-1.5,1-2.9,1.6-4.3,1.9
				c0.1,0.1,0.3,0.2,0.4,0.3c1.8,1.5,5.7,3.6,5.7,3.6s-3.4-0.1-6.2-1.8c-0.7-0.4-1.5-1.1-2.4-1.8c-1,0-2-0.1-2.7-0.3
				c1.7,2.4,4.6,5.5,9,7.9c7.1,4,13.9-0.4,13.9-0.4s-4.8-3.4-6.4-5.1C68.3,21.6,67.2,19.2,64.8,16.9z"/>
			<path fill="#FFFFFF" d="M63.8,16.5c-0.6,0.5-1.2,1-1.8,1.4c-5,3.4-10,1.4-10.2,1.3L51.3,19l0.3-0.4c0.1-0.2,3.2-4.5,5.7-6.5
				c0.9-0.7,2.9-2,4.1-2.6c-1.1-0.3-3.5,0.2-5.1,1.6c-1.9,1.6-6.1,6.2-6.1,6.2l-1,0.9l0.4-1.4c0.1-0.2,1.7-5.6,7.4-10.7
				c0.9-0.9,2-1.7,3-2.4c6.8-4.7,14.2-1,14.3-0.9l0.5,0.2l-0.3,0.4c0,0-3.8,4.2-5.2,6.1c-0.4,0.5-0.8,1.1-1.2,1.7
				C67.1,12.8,65.8,14.7,63.8,16.5z"/>
			<path fill="#FFFFFF" d="M52.1,20.5l-2.4,0l1.3-2.7c0,0-5.2,4.7-4.9,5.6C46.4,24.2,48.2,21.7,52.1,20.5z"/>
		</g>
		<g>
			<path fill="#FFFFFF" d="M130.8,172c-0.2,0-0.4,0-0.6,0c-1,0-1.9,0.1-2.9,0.2c-2.1,0.3-3.9,1-5.5,1.9c0-0.2,0.1-0.4,0.1-0.6
				c0.6-3,2.8-8.2,2.8-8.2s-3.2,3-4.5,7c-0.3,1-0.7,2.3-1,3.8c-1,0.9-1.8,1.8-2.3,2.5c-0.1-3.8,0.3-9.1,2.6-15.2
				c3.7-9.8,13.5-11.5,13.5-11.5s-2,7.3-2.2,10.2C130.5,164.6,131.3,167.8,130.8,172z"/>
			<path fill="#FFFFFF" d="M130.1,173.2c3.2,0,5.8,0.8,7.9,1.4c0.9,0.3,1.7,0.5,2.4,0.6c2.7,0.5,9.3,1.4,9.4,1.4l0.6,0.1l-0.3,0.6
				c0,0.1-4.3,9.9-14.2,11.2c-1.6,0.2-3.1,0.3-4.6,0.3c-9.2,0-14.7-3.7-15-3.8L115,184l1.6,0c0,0,7.5,0.8,10.4,0.6
				c2.5-0.1,5.2-1.6,6-2.8c-1.6,0.5-4.4,1-5.8,1.1c-3.9,0.2-10-1.3-10.3-1.3l-0.6-0.1l0.3-0.6c0.1-0.3,3.4-6.5,10.7-7.5
				C128.3,173.3,129.2,173.2,130.1,173.2z"/>
			<path fill="#FFFFFF" d="M116.1,179.4l-2.2,2.1l3.2,1.5c0,0-8.4-0.1-8.8-1.1C107.9,180.7,111.5,181.5,116.1,179.4z"/>
		</g>
		<g>
			<path fill="#FFFFFF" d="M158,154.9c-0.2,0.1-0.4,0.1-0.6,0.2c-0.9,0.3-1.8,0.8-2.6,1.2c-1.9,1-3.3,2.3-4.4,3.6
				c0-0.2-0.1-0.4-0.1-0.6c-0.4-3,0-8.5,0-8.5s-2,3.8-1.9,7.9c0,1,0.1,2.4,0.3,3.8c-0.6,1.2-1.1,2.3-1.3,3.1
				c-1.3-3.4-2.6-8.4-2.3-14.7c0.4-10.2,8.7-15.2,8.7-15.2s0.4,7.4,1.1,10.1C155.5,148.2,157.2,150.9,158,154.9z"/>
			<path fill="#FFFFFF" d="M157.8,156.2c2.9-1.1,5.5-1.4,7.6-1.6c0.9-0.1,1.7-0.2,2.4-0.3c2.6-0.5,8.9-2.1,9-2.1l0.6-0.1l0,0.6
				c0,0.1-0.8,10.5-9.5,15.3c-1.3,0.7-2.7,1.4-4.1,1.9c-8.3,3.2-14.6,1.9-14.8,1.8l-1.6-0.4l1.5-0.5c0,0,7-2,9.7-3.1
				c2.3-1,4.2-3.3,4.6-4.7c-1.3,1-3.7,2.5-4.9,3c-3.5,1.5-9.5,2.4-9.8,2.4l-0.6,0.1l0.1-0.6c0-0.3,1.1-7.1,7.4-10.6
				C156.2,156.9,157,156.6,157.8,156.2z"/>
			<path fill="#FFFFFF" d="M146.9,166.8l-1.4,2.7l3.4,0.2c0,0-7.6,2.9-8.3,2.1C139.9,170.9,143.4,170.4,146.9,166.8z"/>
		</g>
		<g>
			<path fill="#FFFFFF" d="M178.2,129.1c-0.2,0.1-0.3,0.3-0.5,0.4c-0.7,0.6-1.4,1.3-2,2c-1.4,1.6-2.3,3.3-2.9,4.9
				c-0.1-0.2-0.2-0.4-0.3-0.5c-1.3-2.6-2.7-7.7-2.7-7.7s-0.6,4.2,0.7,7.9c0.3,0.9,0.8,2.1,1.4,3.4c-0.2,1.3-0.3,2.4-0.2,3.3
				c-2.2-2.6-4.9-6.7-6.7-12.6c-2.8-9.5,3.2-17,3.2-17s2.7,6.5,4.2,8.8C173.8,123.9,176.2,125.8,178.2,129.1z"/>
			<path fill="#FFFFFF" d="M178.4,130.4c2.3-2.1,4.6-3.2,6.5-4.1c0.8-0.4,1.5-0.7,2.1-1.1c2.2-1.4,7.5-5.1,7.6-5.1l0.5-0.3l0.2,0.6
				c0,0.1,2.5,9.9-3.9,17.3c-1,1.2-2.1,2.2-3.2,3.2c-6.6,5.9-12.7,6.9-13,6.9l-1.5,0.2l1.2-1c0,0,5.8-4.3,7.9-6.3
				c1.8-1.7,2.8-4.5,2.7-5.9c-0.8,1.4-2.6,3.6-3.6,4.5c-2.7,2.6-7.9,5.5-8.2,5.7l-0.5,0.3l-0.1-0.6c-0.1-0.3-1.2-6.8,3.5-12.3
				C177.1,131.6,177.8,131,178.4,130.4z"/>
			<path fill="#FFFFFF" d="M171.8,143.9l-0.4,2.9l3.1-1c0,0-6.1,5.4-6.9,4.8C166.6,150.2,169.7,148.5,171.8,143.9z"/>
		</g>
		<g>
			<path fill="#FFFFFF" d="M187.7,101.2c-0.1,0.2-0.2,0.3-0.3,0.5c-0.4,0.8-0.8,1.6-1.1,2.5c-0.7,1.9-1,3.7-1.1,5.3
				c-0.1-0.1-0.3-0.3-0.4-0.4c-1.9-1.8-4.7-5.9-4.7-5.9s0.7,3.9,3,6.8c0.6,0.7,1.4,1.6,2.3,2.5c0.2,1.2,0.5,2.2,0.8,3
				c-2.8-1.6-6.4-4.3-9.7-8.8c-5.4-7.4-2.3-16.1-2.3-16.1s4.3,4.9,6.4,6.4C182.2,98.1,184.9,98.9,187.7,101.2z"/>
			<path fill="#FFFFFF" d="M188.3,102.2c1.4-2.6,3.1-4.4,4.5-5.9c0.6-0.6,1.1-1.2,1.5-1.7c1.6-2,5.1-7.1,5.1-7.1l0.3-0.5l0.3,0.5
				c0.1,0.1,5.2,7.9,1.8,16.6c-0.5,1.4-1.2,2.7-1.8,3.9c-4.1,7.5-9.2,10.4-9.4,10.6l-1.3,0.7l0.8-1.3c0,0,3.8-5.8,5.1-8.3
				c1-2.1,1.1-4.9,0.6-6.1c-0.3,1.5-1.2,4.1-1.8,5.2c-1.6,3.3-5.3,7.6-5.5,7.8l-0.4,0.4l-0.3-0.5c-0.1-0.2-3.1-5.6-0.6-12.1
				C187.5,103.8,187.9,103,188.3,102.2z"/>
			<path fill="#FFFFFF" d="M186.5,116.5l0.5,2.7l2.5-2c0,0-3.7,6.8-4.7,6.7C183.8,123.7,186,121.2,186.5,116.5z"/>
		</g>
		<g>
			<path fill="#FFFFFF" d="M187.2,73.1c0,0.2-0.1,0.4-0.1,0.6c-0.1,0.9-0.2,1.8-0.3,2.7c-0.1,2,0.2,3.7,0.7,5.2
				c-0.2-0.1-0.3-0.1-0.5-0.2c-2.3-1-6.1-3.7-6.1-3.7s1.9,3.3,4.8,5.1c0.7,0.4,1.8,0.9,2.8,1.4c0.6,1,1.1,1.9,1.7,2.5
				c-3-0.4-7.2-1.6-11.6-4.6c-7.2-4.8-7.1-13.9-7.1-13.9s5.5,2.9,7.8,3.5C181.3,72.3,184,72.1,187.2,73.1z"/>
			<path fill="#FFFFFF" d="M188.1,73.9c0.5-2.9,1.5-5.1,2.2-6.9c0.3-0.8,0.6-1.5,0.9-2.1c0.8-2.4,2.5-8.2,2.5-8.3l0.2-0.5l0.4,0.3
				c0.1,0.1,7.2,5.3,6.8,14.5c-0.1,1.4-0.2,2.9-0.4,4.2c-1.4,8.3-5.1,12.8-5.3,12.9l-0.9,1.1l0.3-1.5c0,0,1.7-6.6,2-9.3
				c0.3-2.3-0.5-4.9-1.3-5.8c0.1,1.5,0.1,4.1,0,5.4c-0.5,3.6-2.5,8.8-2.6,9.1l-0.2,0.5l-0.4-0.3c-0.2-0.2-4.6-4-4.3-10.8
				C187.9,75.6,188,74.7,188.1,73.9z"/>
			<path fill="#FFFFFF" d="M190.9,87.5l1.3,2.3l1.6-2.7c0,0-1.3,7.6-2.2,7.7C190.7,95.1,191.9,92,190.9,87.5z"/>
		</g>
		<g>
			<path fill="#FFFFFF" d="M177.8,48.6c0,0.2,0.1,0.4,0.1,0.6c0.1,0.8,0.3,1.7,0.6,2.5c0.5,1.8,1.3,3.3,2.2,4.5c-0.2,0-0.3,0-0.5,0
				c-2.4-0.1-6.7-1.2-6.7-1.2s2.7,2.4,6,2.9c0.8,0.1,1.9,0.2,3,0.3c0.8,0.7,1.6,1.3,2.3,1.7c-2.9,0.7-7,1.1-12-0.1
				c-8.1-1.9-10.8-10.2-10.8-10.2s5.9,0.7,8.2,0.5C172.2,49.9,174.6,48.7,177.8,48.6z"/>
			<path fill="#FFFFFF" d="M178.9,49c-0.5-2.8-0.3-5.2-0.1-7.1c0.1-0.8,0.1-1.6,0.1-2.2c0-2.4-0.3-8.4-0.3-8.4l0-0.6l0.5,0.1
				c0.1,0,8.2,2.3,10.7,10.8c0.4,1.3,0.7,2.7,0.9,4c1.3,8-0.7,13.4-0.8,13.7l-0.5,1.4l-0.2-1.4c0,0-0.5-6.6-1-9.2
				c-0.4-2.2-2-4.3-3-4.8c0.6,1.3,1.4,3.7,1.6,4.9c0.7,3.4,0.5,8.9,0.5,9.2l0,0.5l-0.5-0.2c-0.2-0.1-5.5-2-7.3-8.3
				C179.2,50.6,179,49.8,178.9,49z"/>
			<path fill="#FFFFFF" d="M185.6,60.4l1.9,1.7l0.7-3c0,0,1.2,7.3,0.4,7.8C187.8,67.4,188,64.1,185.6,60.4z"/>
		</g>
		<g>
			<path fill="#FFFFFF" d="M160.8,27.2c0.1,0.2,0.2,0.3,0.3,0.5c0.4,0.7,0.9,1.5,1.3,2.2c1.1,1.5,2.3,2.6,3.5,3.4
				c-0.2,0.1-0.3,0.1-0.5,0.2c-2.3,0.8-6.7,1.3-6.7,1.3s3.3,1.2,6.6,0.6c0.8-0.2,1.9-0.5,3-0.8c1,0.4,1.9,0.6,2.7,0.7
				c-2.5,1.7-6.3,3.6-11.3,4.3c-8.2,1.2-13.4-5.6-13.4-5.6s5.8-1.5,7.8-2.5C155.9,30.5,157.8,28.6,160.8,27.2z"/>
			<path fill="#FFFFFF" d="M161.9,27.2c-1.3-2.5-1.9-4.8-2.4-6.6c-0.2-0.8-0.4-1.5-0.6-2.1c-0.8-2.3-3-7.8-3-7.8l-0.2-0.5l0.5-0.1
				c0.1,0,8.5-0.8,13.5,6.3c0.8,1.1,1.5,2.3,2.1,3.4c3.8,7.1,3.6,12.9,3.6,13.1l-0.1,1.5l-0.7-1.3c0,0-2.6-6.1-3.9-8.3
				c-1.1-1.9-3.2-3.3-4.4-3.4c1,1,2.5,3,3.1,4c1.7,3,3.3,8.2,3.4,8.5l0.1,0.5l-0.5,0c-0.2,0-5.8,0.1-9.5-5.1
				C162.7,28.6,162.3,27.9,161.9,27.2z"/>
			<path fill="#FFFFFF" d="M171.9,35.5l2.3,0.9l-0.3-3.1c0,0,3.5,6.5,2.9,7.2C176.2,41.2,175.3,38.1,171.9,35.5z"/>
		</g>
		<g>
			<path fill="#FFFFFF" d="M139.2,16.9c0.1,0.1,0.3,0.2,0.4,0.4c0.6,0.5,1.2,1,1.9,1.5c1.5,1,2.9,1.6,4.3,1.9
				c-0.1,0.1-0.3,0.2-0.4,0.3c-1.8,1.5-5.7,3.6-5.7,3.6s3.4-0.1,6.2-1.8c0.7-0.4,1.5-1.1,2.4-1.8c1.1,0,2-0.1,2.7-0.3
				c-1.7,2.4-4.6,5.5-9,7.9c-7.1,4-13.9-0.4-13.9-0.4s4.8-3.4,6.4-5.1C135.7,21.6,136.8,19.2,139.2,16.9z"/>
			<path fill="#FFFFFF" d="M140.2,16.5c-2-1.8-3.2-3.7-4.2-5.2c-0.4-0.7-0.8-1.2-1.2-1.7c-1.4-1.8-5.1-6-5.2-6.1l-0.3-0.4l0.5-0.2
				c0.1,0,7.4-3.8,14.3,0.9c1.1,0.7,2.1,1.5,3,2.4c5.7,5.1,7.3,10.4,7.4,10.7l0.4,1.4l-1-0.9c0,0-4.2-4.6-6.1-6.2
				c-1.6-1.3-4-1.9-5.1-1.6c1.2,0.6,3.2,1.8,4.1,2.6c2.5,2.1,5.6,6.3,5.7,6.5l0.3,0.4l-0.5,0.2c-0.2,0.1-5.2,2.1-10.2-1.3
				C141.3,17.5,140.7,17,140.2,16.5z"/>
			<path fill="#FFFFFF" d="M151.9,20.5l2.4,0l-1.3-2.7c0,0,5.2,4.7,4.9,5.6C157.6,24.2,155.8,21.7,151.9,20.5z"/>
		</g>
	</g>
</g>
<path fill="#FFFFFF" d="M70,101.2l-4-25.7c-0.5-3.5,1.9-6.8,5.4-7.3L124,60c3.5-0.5,6.8,1.9,7.3,5.4l1,6.3c-0.5-0.1-0.9-0.1-1.4-0.1
	H77.6c-4.2,0-7.6,3.4-7.6,7.6V101.2z M137.2,79.2v33.2c0,3.5-2.9,6.4-6.4,6.4H77.6c-3.5,0-6.4-2.9-6.4-6.4V79.2
	c0-3.5,2.9-6.4,6.4-6.4h53.2C134.4,72.7,137.2,75.6,137.2,79.2z M100.8,107.8h1.7v-3h-1.7V107.8z M97.7,107.8h1.7v-3h-1.7
	L97.7,107.8z M94.6,107.8h1.7v-3h-1.7L94.6,107.8z M91.4,107.8h1.7v-3h-1.7V107.8z M76.8,92.4c0,0.9,0.8,1.7,1.7,1.7h7.9
	c0.9,0,1.7-0.8,1.7-1.7v-0.9h-3v-0.9h3v-2.2h-3v-0.9h3v-1.1c0-0.9-0.8-1.7-1.7-1.7h-7.9c-0.9,0-1.7,0.8-1.7,1.7v1.1h3v0.9h-3v2.2h3
	v0.9h-3V92.4z M86.3,104.9v3H88v-3H86.3z M83.2,104.9v3h1.7v-3H83.2z M80.1,104.9v3h1.7v-3H80.1z M77,104.9v3h1.7v-3H77z
	 M76.8,111.9h13.8v-1.7H76.8V111.9z M96.3,114.9H76.8v0.8h19.6V114.9z M107.5,110.2H93.7v1.7h13.8L107.5,110.2z M107.6,104.9h-1.7v3
	h1.7V104.9z M110.7,104.9h-1.7v3h1.7L110.7,104.9z M113.9,104.9h-1.7v3h1.7V104.9z M117,104.9h-1.7v3h1.7V104.9z M122.1,104.9h-1.7
	v3h1.7V104.9z M125.2,104.9h-1.7v3h1.7L125.2,104.9L125.2,104.9z M128.4,104.9h-1.7v3h1.7V104.9z M131.5,104.9h-1.7v3h1.7V104.9z
	 M81.2,85.8h-0.9v7.3h0.9V85.8z M84.3,85.8h-0.9v7.3h0.9V85.8z"/>
</svg>
