<?xml version="1.0" encoding="utf-8"?>
<!-- Generator: Adobe Illustrator 19.1.0, SVG Export Plug-In . SVG Version: 6.00 Build 0)  -->
<svg version="1.2" baseProfile="tiny" id="Layer_1" xmlns="http://www.w3.org/2000/svg" xmlns:xlink="http://www.w3.org/1999/xlink"
	 x="0px" y="0px" viewBox="0 0 204.3 192.2" xml:space="preserve">
<path fill="#FFFFFF" d="M70,101.2l-4-25.7c-0.5-3.5,1.9-6.8,5.4-7.3L124,60c3.5-0.5,6.8,1.9,7.3,5.4l1,6.3c-0.5-0.1-0.9-0.1-1.4-0.1
	H77.6c-4.2,0-7.6,3.4-7.6,7.6V101.2z M137.2,79.2v33.2c0,3.5-2.9,6.4-6.4,6.4H77.6c-3.5,0-6.4-2.9-6.4-6.4V79.2
	c0-3.5,2.9-6.4,6.4-6.4h53.2C134.4,72.7,137.2,75.6,137.2,79.2z M100.8,107.8h1.7v-3h-1.7V107.8z M97.7,107.8h1.7v-3h-1.7
	L97.7,107.8z M94.6,107.8h1.7v-3h-1.7L94.6,107.8z M91.4,107.8h1.7v-3h-1.7V107.8z M76.8,92.4c0,0.9,0.8,1.7,1.7,1.7h7.9
	c0.9,0,1.7-0.8,1.7-1.7v-0.9h-3v-0.9h3v-2.2h-3v-0.9h3v-1.1c0-0.9-0.8-1.7-1.7-1.7h-7.9c-0.9,0-1.7,0.8-1.7,1.7v1.1h3v0.9h-3v2.2h3
	v0.9h-3V92.4z M86.3,104.9v3H88v-3H86.3z M83.2,104.9v3h1.7v-3H83.2z M80.1,104.9v3h1.7v-3H80.1z M77,104.9v3h1.7v-3H77z
	 M76.8,111.9h13.8v-1.7H76.8V111.9z M96.3,114.9H76.8v0.8h19.6V114.9z M107.5,110.2H93.7v1.7h13.8L107.5,110.2z M107.6,104.9h-1.7v3
	h1.7V104.9z M110.7,104.9h-1.7v3h1.7L110.7,104.9z M113.9,104.9h-1.7v3h1.7V104.9z M117,104.9h-1.7v3h1.7V104.9z M122.1,104.9h-1.7
	v3h1.7V104.9z M125.2,104.9h-1.7v3h1.7L125.2,104.9L125.2,104.9z M128.4,104.9h-1.7v3h1.7V104.9z M131.5,104.9h-1.7v3h1.7V104.9z
	 M81.2,85.8h-0.9v7.3h0.9V85.8z M84.3,85.8h-0.9v7.3h0.9V85.8z"/>
</svg>
