<?xml version="1.0" encoding="utf-8"?>
<!-- Generator: Adobe Illustrator 19.1.0, SVG Export Plug-In . SVG Version: 6.00 Build 0)  -->
<svg version="1.1" id="Capa_1" xmlns="http://www.w3.org/2000/svg" xmlns:xlink="http://www.w3.org/1999/xlink" x="0px" y="0px"
	 viewBox="-442 410.4 115 181.6" style="enable-background:new -442 410.4 115 181.6;" xml:space="preserve">
<style type="text/css">
	.st0{fill:none;stroke:#FFFFFF;stroke-miterlimit:10;}
	.st1{fill:#FFFFFF;}
	.st2{font-family:'Playbill';}
	.st3{font-size:76.2246px;}
</style>
<polygon class="st0" points="-370.8,485.4 -347.9,432.6 -368.6,411.9 -385,453 "/>
<polygon class="st0" points="-383.4,437 -373.4,411.9 -403.5,411.9 -392.5,437 "/>
<polygon class="st0" points="-373.4,491.4 -408.4,411.9 -429,432.6 -400.4,491.4 "/>
<path class="st0" d="M-385,494.3c-26.5,0-48.1,21.5-48.1,48.1c0,26.5,21.5,48.1,48.1,48.1c26.5,0,48.1-21.5,48.1-48.1
	C-337,515.8-358.5,494.3-385,494.3z M-347,543.7c-1.7,3.2-3.5,5.1-7,6.2c-1.8-6.3,2-13.5,8.2-15.5
	C-344.7,537.9-345.3,540.5-347,543.7z M-350.7,521.8c2.1,3,2.4,5.6,1.9,9.2c-0.6,3.6-1.7,6-4.6,8.2
	C-357.3,533.7-356,525.7-350.7,521.8z M-345.1,548.1c-0.1,3.6-1.5,5.9-4.2,8.4c-2.6,2.5-5,3.7-8.7,3.6
	C-357.6,553.5-351.7,547.9-345.1,548.1z M-419.3,521.8c5.3,4,6.5,12,2.7,17.3c-2.9-2.2-4-4.6-4.6-8.2
	C-421.8,527.4-421.5,524.7-419.3,521.8z M-424.3,534.5c6.3,2,10.1,9.2,8.2,15.5c-3.5-1.1-5.3-3-7-6.2
	C-424.8,540.5-425.4,537.9-424.3,534.5z M-412.1,560c-3.7,0.1-6-1.1-8.7-3.6s-4-4.7-4.2-8.4C-418.3,547.9-412.4,553.5-412.1,560z
	 M-421.1,561.2c6.2-2.3,13.6,1,16,7.1c-3.4,1.3-6,0.9-9.3-0.6C-417.7,566.3-419.8,564.6-421.1,561.2z M-404.7,576.3
	c-3.6-0.3-6.1-1.3-8.5-4c5.1-4.2,13.2-3.5,17.5,1.5C-398.5,576.1-401.1,576.6-404.7,576.3z M-380.9,586.3c-1.7-0.5-2.7-1.5-3.5-3.1
	c-0.3-0.6-0.5-1.2-0.7-1.7c-0.1,0.6-0.3,1.1-0.7,1.7c-0.9,1.6-1.8,2.5-3.5,3.1c-0.9-3.2,1-6.7,4.2-7.7
	C-381.9,579.6-380,583.2-380.9,586.3z M-377.3,581.2c-3.5-0.9-5.8-2.2-7.7-5.3c-1.9,3.1-4.2,4.4-7.7,5.3c-3.5,0.9-6.2,0.8-9.3-1.1
	c3.5-5.6,11.3-7.5,17-4.2c5.7-3.3,13.5-1.4,17,4.2C-371.2,582-373.8,582.1-377.3,581.2z M-365.4,576.3c-3.6,0.3-6.2-0.2-9-2.5
	c4.3-5,12.4-5.7,17.5-1.5C-359.3,575-361.8,576-365.4,576.3z M-355.7,567.7c-3.3,1.5-5.9,1.9-9.4,0.6c2.5-6.1,9.9-9.4,16-7.1
	C-350.3,564.6-352.4,566.3-355.7,567.7z"/>
<text transform="matrix(1 0 0 1 -399.3333 563.2635)" class="st1 st2 st3">3</text>
</svg>
