<?xml version="1.0" encoding="utf-8"?>
<!-- Generator: Adobe Illustrator 19.1.0, SVG Export Plug-In . SVG Version: 6.00 Build 0)  -->
<svg version="1.1" id="Capa_1" xmlns="http://www.w3.org/2000/svg" xmlns:xlink="http://www.w3.org/1999/xlink" x="0px" y="0px"
	 viewBox="-375.7 410.4 115 181.6" style="enable-background:new -375.7 410.4 115 181.6;" xml:space="preserve">
<style type="text/css">
	.st0{fill:none;stroke:#FFFFFF;stroke-miterlimit:10;}
	.st1{fill:#FFFFFF;}
	.st2{font-family:'Playbill';}
	.st3{font-size:76.2246px;}
</style>
<polygon class="st0" points="-303.8,486 -280.9,433.2 -301.6,412.5 -318,453.6 "/>
<polygon class="st0" points="-316.4,437.6 -306.4,412.5 -336.5,412.5 -325.5,437.6 "/>
<polygon class="st0" points="-306.4,492 -341.4,412.5 -362,433.2 -333.4,492 "/>
<path class="st0" d="M-318,494.9c-26.5,0-48.1,21.5-48.1,48.1c0,26.5,21.5,48.1,48.1,48.1c26.5,0,48.1-21.5,48.1-48.1
	C-270,516.4-291.5,494.9-318,494.9z M-280,544.3c-1.7,3.2-3.5,5.1-7,6.2c-1.8-6.3,2-13.5,8.2-15.5
	C-277.7,538.5-278.3,541.1-280,544.3z M-283.7,522.4c2.1,3,2.4,5.6,1.9,9.2c-0.6,3.6-1.7,6-4.6,8.2
	C-290.3,534.3-289,526.3-283.7,522.4z M-278.1,548.7c-0.1,3.6-1.5,5.9-4.2,8.4c-2.6,2.5-5,3.7-8.7,3.6
	C-290.6,554.1-284.7,548.5-278.1,548.7z M-352.3,522.4c5.3,4,6.5,12,2.7,17.3c-2.9-2.2-4-4.6-4.6-8.2
	C-354.8,528-354.5,525.3-352.3,522.4z M-357.3,535.1c6.3,2,10.1,9.2,8.2,15.5c-3.5-1.1-5.3-3-7-6.2
	C-357.8,541.1-358.4,538.5-357.3,535.1z M-345.1,560.6c-3.7,0.1-6-1.1-8.7-3.6c-2.7-2.5-4-4.7-4.2-8.4
	C-351.3,548.5-345.4,554.1-345.1,560.6z M-354.1,561.8c6.2-2.3,13.6,1,16,7.1c-3.4,1.3-6,0.9-9.3-0.6
	C-350.7,566.9-352.8,565.2-354.1,561.8z M-337.7,576.9c-3.6-0.3-6.1-1.3-8.5-4c5.1-4.2,13.2-3.5,17.5,1.5
	C-331.5,576.7-334.1,577.2-337.7,576.9z M-313.9,586.9c-1.7-0.5-2.7-1.5-3.5-3.1c-0.3-0.6-0.5-1.2-0.7-1.7c-0.1,0.6-0.3,1.1-0.7,1.7
	c-0.9,1.6-1.8,2.5-3.5,3.1c-0.9-3.2,1-6.7,4.2-7.7C-314.9,580.2-313,583.8-313.9,586.9z M-310.3,581.8c-3.5-0.9-5.8-2.2-7.7-5.3
	c-1.9,3.1-4.2,4.4-7.7,5.3c-3.5,0.9-6.2,0.8-9.3-1.1c3.5-5.6,11.3-7.5,17-4.2c5.7-3.3,13.5-1.4,17,4.2
	C-304.2,582.6-306.8,582.7-310.3,581.8z M-298.4,576.9c-3.6,0.3-6.2-0.2-9-2.5c4.3-5,12.4-5.7,17.5-1.5
	C-292.3,575.6-294.8,576.6-298.4,576.9z M-288.7,568.3c-3.3,1.5-5.9,1.9-9.4,0.6c2.5-6.1,9.9-9.4,16-7.1
	C-283.3,565.2-285.4,566.9-288.7,568.3z"/>
<text transform="matrix(1 0 0 1 -332.3333 563.8635)" class="st1 st2 st3">1</text>
</svg>
