<?xml version="1.0" encoding="utf-8"?>
<!-- Generator: Adobe Illustrator 19.1.0, SVG Export Plug-In . SVG Version: 6.00 Build 0)  -->
<svg version="1.2" baseProfile="tiny" id="Layer_1" xmlns="http://www.w3.org/2000/svg" xmlns:xlink="http://www.w3.org/1999/xlink"
	 x="0px" y="0px" viewBox="0 0 204.3 192.2" xml:space="preserve">
<g>
	<g>
		<g>
			<path fill="#FFFFFF" d="M91.2,165.6c-5.8,2.7-16.7,2-16.7,2s10.7-1.8,14.7-3.6c2.6-1.1,5.8-3.8,6.6-4.5c-0.5-0.9-2.7-5-3.9-7.5
				c-1.4-2.9-6.4-9.1-6.4-9.1s7.3,6.3,10.7,11.9c1,1.7,1.9,3,2.6,4c-0.9-1.6-1.9-3.4-2.1-4.7c-0.4-2.4,1.2-6.8-2.9-11
				c-3.7-3.8-11.2-4.5-16.4-7.9c0,0,2.7,5.6,3.3,9.1c0.6,3.4,0.4,8,3.5,9.8c2.6,1.6,6.2,3.2,9.3,4.6c-7.4-2.3-12.2-1.3-14.6-0.4
				c-2.9,1.1-6.2,6.2-9.3,8.7c-2.7,2.2-8.1,4.9-8.1,4.9c8.6,1.4,12,5.3,19.2,3.7c7.7-1.8,8-6.2,11.2-9.4c0.9-1,2.3-1.8,3.7-2.5
				C94.3,164.2,92.9,164.8,91.2,165.6z"/>
			<path fill="#FFFFFF" d="M67.8,154.6c-6,1-15.8-2.3-15.8-2.3s10.3,1,14.4,0.3c2.7-0.4,6.3-2.1,7.1-2.5c-0.2-1-1.2-5.2-1.8-7.9
				c-0.6-3-3.6-9.9-3.6-9.9s5.1,7.6,6.9,13.5c0.5,1.8,1,3.2,1.4,4.3c-0.5-1.7-0.9-3.6-0.8-4.8c0.2-2.3,2.8-5.9,0.1-10.8
				c-2.4-4.4-9.2-6.9-13.1-11.3c0,0,1.1,5.8,0.8,9.2c-0.3,3.2-1.6,7.4,0.8,9.9c2,2.1,4.9,4.5,7.4,6.5c-6.3-3.9-10.9-4.2-13.3-4
				c-3,0.3-7.2,4.2-10.7,5.7c-3.1,1.3-8.6,2.5-8.6,2.5c7.5,3.4,9.7,7.8,16.7,8.1c7.5,0.3,8.9-3.7,12.5-5.9c1.1-0.6,2.5-1.1,4-1.4
				C70.9,154.1,69.5,154.3,67.8,154.6z"/>
			<path fill="#FFFFFF" d="M48.8,139.2c-5.8-0.5-13.9-6-13.9-6S44,136.6,48,137c2.6,0.3,6.3-0.4,7.2-0.5c0-1,0.2-5.1,0.3-7.7
				c0.2-2.9-0.9-10-0.9-10s2.8,8.2,3,14.1c0.1,1.8,0.1,3.2,0.2,4.3c0-1.6,0.1-3.6,0.4-4.6c0.7-2.1,4-4.8,2.7-9.9
				c-1.2-4.7-6.7-8.6-9.3-13.6c0,0-0.4,5.6-1.5,8.6c-1.1,2.9-3.3,6.4-1.7,9.2c1.3,2.4,3.4,5.3,5.2,7.8c-4.8-5.1-9-6.6-11.3-6.9
				c-2.8-0.4-7.6,2.1-11.2,2.6c-3.1,0.5-8.5,0.2-8.5,0.2c6.1,5,7,9.6,13.3,11.5c6.8,2.1,9.1-1.2,13-2.3c1.2-0.3,2.6-0.4,4-0.3
				C51.8,139.5,50.4,139.3,48.8,139.2z"/>
			<path fill="#FFFFFF" d="M34.9,120.6c-5.2-1.9-11.3-8.9-11.3-8.9s7.6,5.4,11.1,6.8c2.3,0.9,5.9,1.2,6.7,1.3
				c0.3-0.9,1.4-4.7,2.2-6.9c0.9-2.6,1.6-9.4,1.6-9.4s0.6,8.2-0.7,13.7c-0.4,1.6-0.7,2.9-0.8,4c0.4-1.5,0.9-3.2,1.5-4.1
				c1.2-1.7,4.8-3.4,4.9-8.4c0.1-4.6-4.1-9.6-5.2-14.7c0,0-1.8,5.1-3.5,7.6c-1.7,2.4-4.6,5.1-3.8,8.1c0.6,2.5,1.8,5.7,2.9,8.4
				c-3.1-5.9-6.6-8.2-8.6-9.1c-2.5-1.1-7.5,0-11-0.4c-3-0.3-7.9-1.9-7.9-1.9c4.4,6.1,4.1,10.5,9.4,13.9c5.8,3.6,8.6,1.1,12.5,1.1
				c1.1,0,2.5,0.3,3.7,0.7C37.6,121.6,36.4,121.1,34.9,120.6z"/>
			<path fill="#FFFFFF" d="M26.4,100.4c-4.3-3-8.2-11-8.2-11s5.6,6.8,8.5,8.9c1.9,1.4,5.1,2.5,5.8,2.8c0.5-0.7,2.4-3.9,3.7-5.8
				c1.5-2.2,3.8-8.2,3.8-8.2s-1.5,7.7-4,12.4c-0.8,1.4-1.3,2.5-1.7,3.4c0.7-1.3,1.6-2.7,2.4-3.4c1.5-1.3,5.3-1.9,6.6-6.5
				c1.2-4.2-1.4-9.8-1.1-14.8c0,0-2.9,4.2-5.1,6.1c-2.1,1.8-5.5,3.5-5.5,6.5c0,2.5,0.2,5.6,0.6,8.4c-1.4-6.2-4-9.2-5.7-10.5
				c-2-1.6-6.9-1.8-10-3c-2.7-1-6.7-3.7-6.7-3.7c2.5,6.6,1.1,10.7,5.2,15c4.4,4.7,7.6,3.1,11.2,4.1c1.1,0.3,2.2,0.9,3.3,1.6
				C28.7,102,27.6,101.3,26.4,100.4z"/>
			<path fill="#FFFFFF" d="M23.2,80c-3.2-3.8-4.8-12.1-4.8-12.1s3.5,7.6,5.6,10.3c1.4,1.7,4,3.6,4.7,4c0.6-0.6,3.2-3,4.8-4.4
				c1.9-1.6,5.5-6.6,5.5-6.6s-3.2,6.7-6.7,10.4c-1,1.1-1.8,2-2.4,2.7c1-1,2.2-2.1,3.1-2.5c1.7-0.8,5.3-0.5,7.7-4.4
				c2.1-3.5,1.2-9.3,2.6-13.8c0,0-3.7,3.2-6.2,4.3c-2.4,1.1-5.9,1.9-6.6,4.6c-0.6,2.3-1.2,5.2-1.5,7.9c0.2-6-1.5-9.4-2.6-11
				c-1.4-2-5.9-3.4-8.4-5.2c-2.2-1.6-5.3-5.1-5.3-5.1c0.7,6.7-1.6,10.1,1.1,15.1c2.9,5.4,6.2,4.8,9.2,6.5c0.9,0.5,1.8,1.3,2.6,2.2
				C24.8,82,24.1,81.1,23.2,80z"/>
			<path fill="#FFFFFF" d="M24.8,60.6c-2-4.3-1.5-12.3-1.5-12.3s1.3,7.9,2.6,10.8c0.8,1.9,2.8,4.3,3.3,4.8c0.7-0.4,3.7-2,5.5-2.9
				c2.1-1,6.7-4.7,6.7-4.7s-4.6,5.4-8.7,7.9c-1.2,0.8-2.2,1.4-2.9,1.9c1.2-0.7,2.5-1.4,3.4-1.6c1.8-0.3,5,0.9,8.1-2.1
				c2.8-2.7,3.3-8.3,5.8-12.1c0,0-4.1,2-6.7,2.5c-2.5,0.4-5.9,0.3-7.2,2.6c-1.1,1.9-2.4,4.5-3.3,6.8c1.7-5.5,1-9,0.3-10.8
				c-0.8-2.2-4.6-4.5-6.4-6.9c-1.6-2-3.6-5.9-3.6-5.9c-1,6.3-3.9,8.8-2.7,14.1c1.3,5.7,4.6,5.9,6.9,8.2c0.7,0.7,1.3,1.7,1.8,2.7
				C25.9,62.9,25.4,61.8,24.8,60.6z"/>
			<path fill="#FFFFFF" d="M30.7,43.3c-0.8-4.4,1.7-11.6,1.7-11.6s-0.7,7.5-0.3,10.6c0.3,2,1.5,4.6,1.8,5.2c0.7-0.2,3.9-0.9,5.8-1.3
				c2.2-0.4,7.3-2.7,7.3-2.7s-5.6,3.8-9.9,5.1c-1.3,0.4-2.3,0.7-3.1,1c1.2-0.3,2.7-0.7,3.5-0.6c1.7,0.1,4.4,2,8,0.1
				c3.2-1.8,5.1-6.8,8.3-9.6c0,0-4.3,0.8-6.8,0.6c-2.4-0.2-5.5-1.2-7.3,0.6c-1.5,1.5-3.3,3.6-4.7,5.4c2.9-4.6,3.1-8,2.9-9.8
				c-0.2-2.2-3.1-5.3-4.2-7.9c-1-2.2-1.8-6.3-1.8-6.3c-2.5,5.5-5.8,7.2-5.9,12.3c-0.2,5.5,2.7,6.5,4.3,9.2c0.5,0.8,0.8,1.9,1,2.9
				C31.1,45.7,30.9,44.6,30.7,43.3z"/>
			<path fill="#FFFFFF" d="M40,29.1c0.4-4.3,4.4-10.2,4.4-10.2s-2.5,6.7-2.8,9.7c-0.2,1.9,0.3,4.6,0.4,5.3c0.7,0,3.8,0.1,5.6,0.2
				c2.1,0.2,7.3-0.7,7.3-0.7s-6,2.1-10.4,2.2c-1.3,0-2.3,0.1-3.1,0.2c1.2,0,2.6,0,3.4,0.3c1.5,0.5,3.5,2.9,7.3,2
				c3.4-0.8,6.3-5,10-6.8c0,0-4.1-0.3-6.3-1.1c-2.1-0.8-4.7-2.4-6.8-1.3c-1.8,1-3.9,2.5-5.7,3.8c3.8-3.5,4.8-6.6,5.1-8.3
				c0.3-2.1-1.5-5.6-1.9-8.3c-0.3-2.3-0.1-6.3-0.1-6.3c-3.7,4.5-7,5.1-8.5,9.8c-1.5,5,0.9,6.7,1.7,9.5c0.2,0.9,0.3,1.9,0.2,2.9
				C39.8,31.3,39.9,30.3,40,29.1z"/>
			<path fill="#FFFFFF" d="M51.7,18.4c1.4-3.8,6.6-8.3,6.6-8.3s-4,5.6-5,8.2c-0.7,1.7-0.9,4.3-0.9,4.9c0.6,0.2,3.4,1,5.1,1.6
				c1.9,0.7,6.9,1.2,6.9,1.2s-6.1,0.4-10.1-0.5c-1.2-0.3-2.2-0.5-2.9-0.6c1.1,0.3,2.4,0.7,3,1.1c1.3,0.9,2.5,3.6,6.2,3.6
				c3.4,0.1,7-3,10.8-3.8c0,0-3.7-1.3-5.5-2.6c-1.8-1.2-3.7-3.4-5.9-2.8c-1.9,0.5-4.2,1.3-6.2,2.1c4.3-2.3,6.1-4.9,6.7-6.3
				c0.8-1.8,0-5.5,0.3-8.1C61,6,62.1,2.4,62.1,2.4c-4.5,3.2-7.7,3-10.2,6.9c-2.6,4.2-0.8,6.3-0.8,9.2c0,0.8-0.2,1.8-0.5,2.7
				C50.9,20.4,51.3,19.5,51.7,18.4z"/>
			<path fill="#FFFFFF" d="M63.6,18.3c0.5-0.4,2.9-2.1,4.3-3.1c1.6-1.2,6.1-3.3,6.1-3.3s-5.9,1.5-9.4,3.7c-1,0.6-1.9,1.1-2.6,1.5
				c1-0.6,1.8-1.7,2.3-2.4c0.9-1.2,1.4-3.8,4.9-5.1c3.2-1.1,7.6,0.6,11.4,0.2c0,0-3,2.2-4.6,3.9c-1.5,1.6-2.4,4.2-4.6,4.8
				C69.4,19.1,67.3,18,63.6,18.3z"/>
		</g>
		<g>
			<path fill="#FFFFFF" d="M113,165.6c5.8,2.7,16.7,2,16.7,2S119,165.8,115,164c-2.6-1.1-5.8-3.8-6.6-4.5c0.5-0.9,2.7-5,3.9-7.5
				c1.4-2.9,6.4-9.1,6.4-9.1s-7.3,6.3-10.7,11.9c-1,1.7-1.9,3-2.6,4c0.9-1.6,1.9-3.4,2.1-4.7c0.4-2.4-1.2-6.8,2.9-11
				c3.7-3.8,11.3-4.5,16.4-7.9c0,0-2.7,5.6-3.3,9.1c-0.6,3.4-0.4,8-3.5,9.8c-2.6,1.6-6.2,3.2-9.3,4.6c7.4-2.3,12.2-1.3,14.6-0.4
				c2.9,1.1,6.2,6.2,9.3,8.7c2.7,2.2,8.1,4.9,8.1,4.9c-8.6,1.4-12,5.3-19.2,3.7c-7.7-1.8-8-6.2-11.2-9.4c-0.9-1-2.3-1.8-3.7-2.5
				C109.9,164.2,111.4,164.8,113,165.6z"/>
			<path fill="#FFFFFF" d="M136.5,154.6c6,1,15.8-2.3,15.8-2.3s-10.3,1-14.4,0.3c-2.7-0.4-6.3-2.1-7.1-2.5c0.2-1,1.2-5.2,1.8-7.9
				c0.6-3,3.6-9.9,3.6-9.9s-5.1,7.6-6.9,13.5c-0.5,1.8-1,3.2-1.4,4.3c0.5-1.7,0.9-3.6,0.8-4.8c-0.2-2.3-2.8-5.9-0.1-10.8
				c2.4-4.4,9.2-6.9,13.1-11.3c0,0-1.1,5.8-0.8,9.2c0.3,3.2,1.6,7.4-0.8,9.9c-2,2.1-4.9,4.5-7.4,6.5c6.3-3.9,10.9-4.2,13.3-4
				c3,0.3,7.2,4.2,10.7,5.7c3.1,1.3,8.6,2.5,8.6,2.5c-7.5,3.4-9.7,7.8-16.7,8.1c-7.5,0.3-8.9-3.7-12.5-5.9c-1.1-0.6-2.5-1.1-4-1.4
				C133.3,154.1,134.8,154.3,136.5,154.6z"/>
			<path fill="#FFFFFF" d="M155.5,139.2c5.8-0.5,13.9-6,13.9-6s-9.2,3.4-13.1,3.9c-2.6,0.3-6.3-0.4-7.2-0.5c0-1-0.2-5.1-0.3-7.7
				c-0.2-2.9,0.9-10,0.9-10s-2.8,8.2-3,14.1c-0.1,1.8-0.1,3.2-0.2,4.3c0-1.6-0.1-3.6-0.4-4.6c-0.7-2.1-4-4.8-2.7-9.9
				c1.2-4.7,6.7-8.6,9.3-13.6c0,0,0.4,5.6,1.5,8.6c1.1,2.9,3.3,6.4,1.7,9.2c-1.3,2.4-3.4,5.3-5.2,7.8c4.8-5.1,9-6.6,11.3-6.9
				c2.8-0.4,7.6,2.1,11.2,2.6c3.1,0.5,8.5,0.2,8.5,0.2c-6.1,5-7,9.6-13.3,11.5c-6.8,2.1-9.1-1.2-13-2.3c-1.2-0.3-2.6-0.4-4-0.3
				C152.4,139.5,153.8,139.3,155.5,139.2z"/>
			<path fill="#FFFFFF" d="M169.4,120.6c5.2-1.9,11.3-8.9,11.3-8.9s-7.6,5.4-11.1,6.8c-2.3,0.9-5.9,1.2-6.7,1.3
				c-0.3-0.9-1.4-4.7-2.2-6.9c-0.9-2.6-1.6-9.4-1.6-9.4s-0.6,8.2,0.7,13.7c0.4,1.6,0.7,2.9,0.8,4c-0.4-1.5-0.9-3.2-1.5-4.1
				c-1.2-1.7-4.8-3.4-4.9-8.4c-0.1-4.6,4.1-9.6,5.2-14.7c0,0,1.8,5.1,3.5,7.6c1.7,2.4,4.6,5.1,3.8,8.1c-0.6,2.5-1.8,5.7-2.9,8.4
				c3.1-5.9,6.6-8.2,8.6-9.1c2.5-1.1,7.5,0,11-0.4c3-0.3,7.9-1.9,7.9-1.9c-4.4,6.1-4.1,10.5-9.4,13.9c-5.8,3.6-8.6,1.1-12.5,1.1
				c-1.1,0-2.5,0.3-3.7,0.7C166.6,121.6,167.9,121.1,169.4,120.6z"/>
			<path fill="#FFFFFF" d="M177.9,100.4c4.3-3,8.2-11,8.2-11s-5.6,6.8-8.5,8.9c-1.9,1.4-5.1,2.5-5.8,2.8c-0.5-0.7-2.4-3.9-3.7-5.8
				c-1.5-2.2-3.8-8.2-3.8-8.2s1.5,7.7,4,12.4c0.8,1.4,1.3,2.5,1.7,3.4c-0.7-1.3-1.6-2.7-2.4-3.4c-1.5-1.3-5.3-1.9-6.6-6.5
				c-1.2-4.2,1.4-9.8,1.1-14.8c0,0,2.9,4.2,5.1,6.1c2.1,1.8,5.5,3.5,5.5,6.5c0,2.5-0.2,5.6-0.6,8.4c1.4-6.2,4-9.2,5.7-10.5
				c2-1.6,6.9-1.8,10-3c2.7-1,6.7-3.7,6.7-3.7c-2.5,6.6-1.1,10.7-5.2,15c-4.4,4.7-7.6,3.1-11.2,4.1c-1.1,0.3-2.2,0.9-3.3,1.6
				C175.6,102,176.6,101.3,177.9,100.4z"/>
			<path fill="#FFFFFF" d="M181.1,80c3.2-3.8,4.8-12.1,4.8-12.1s-3.5,7.6-5.6,10.3c-1.4,1.7-4,3.6-4.7,4c-0.6-0.6-3.2-3-4.8-4.4
				c-1.9-1.6-5.5-6.6-5.5-6.6s3.2,6.7,6.7,10.4c1,1.1,1.8,2,2.4,2.7c-1-1-2.2-2.1-3.1-2.5c-1.7-0.8-5.3-0.5-7.7-4.4
				c-2.1-3.5-1.2-9.3-2.6-13.8c0,0,3.7,3.2,6.2,4.3c2.4,1.1,5.9,1.9,6.6,4.6c0.6,2.3,1.2,5.2,1.5,7.9c-0.2-6,1.5-9.4,2.6-11
				c1.4-2,5.9-3.4,8.4-5.2c2.2-1.6,5.3-5.1,5.3-5.1c-0.7,6.7,1.6,10.1-1.1,15.1c-2.9,5.4-6.2,4.8-9.2,6.5c-0.9,0.5-1.8,1.3-2.6,2.2
				C179.4,82,180.2,81.1,181.1,80z"/>
			<path fill="#FFFFFF" d="M179.4,60.6c2-4.3,1.5-12.3,1.5-12.3s-1.3,7.9-2.6,10.8c-0.8,1.9-2.8,4.3-3.3,4.8c-0.7-0.4-3.7-2-5.5-2.9
				c-2.1-1-6.7-4.7-6.7-4.7s4.6,5.4,8.7,7.9c1.2,0.8,2.2,1.4,2.9,1.9c-1.1-0.7-2.5-1.4-3.4-1.6c-1.8-0.3-5,0.9-8.1-2.1
				c-2.8-2.7-3.3-8.3-5.8-12.1c0,0,4.1,2,6.7,2.5c2.5,0.4,5.9,0.3,7.2,2.6c1.1,1.9,2.4,4.5,3.3,6.8c-1.7-5.5-1-9-0.3-10.8
				c0.8-2.2,4.6-4.5,6.4-6.9c1.6-2,3.6-5.9,3.6-5.9c1,6.3,3.9,8.8,2.7,14.1c-1.3,5.7-4.6,5.9-6.9,8.2c-0.7,0.7-1.3,1.7-1.8,2.7
				C178.4,62.9,178.9,61.8,179.4,60.6z"/>
			<path fill="#FFFFFF" d="M173.5,43.3c0.8-4.4-1.7-11.6-1.7-11.6s0.7,7.5,0.3,10.6c-0.3,2-1.5,4.6-1.8,5.2
				c-0.7-0.2-3.9-0.9-5.8-1.3c-2.2-0.4-7.3-2.7-7.3-2.7s5.6,3.8,9.9,5.1c1.3,0.4,2.3,0.7,3.1,1c-1.2-0.3-2.7-0.7-3.5-0.6
				c-1.7,0.1-4.4,2-8,0.1c-3.2-1.8-5.1-6.8-8.3-9.6c0,0,4.3,0.8,6.8,0.6c2.4-0.2,5.5-1.2,7.3,0.6c1.5,1.5,3.3,3.6,4.7,5.4
				c-2.9-4.6-3.1-8-2.9-9.8c0.2-2.2,3.1-5.3,4.2-7.9c1-2.2,1.8-6.3,1.8-6.3c2.5,5.5,5.8,7.2,5.9,12.3c0.2,5.5-2.7,6.5-4.3,9.2
				c-0.5,0.8-0.8,1.9-1,2.9C173.2,45.7,173.3,44.6,173.5,43.3z"/>
			<path fill="#FFFFFF" d="M164.3,29.1c-0.4-4.3-4.4-10.2-4.4-10.2s2.5,6.7,2.8,9.7c0.2,1.9-0.3,4.6-0.4,5.3c-0.7,0-3.8,0.1-5.6,0.2
				c-2.1,0.2-7.3-0.7-7.3-0.7s6,2.1,10.4,2.2c1.3,0,2.3,0.1,3.1,0.2c-1.2,0-2.6,0-3.4,0.3c-1.5,0.5-3.5,2.9-7.3,2
				c-3.4-0.8-6.3-5-10-6.8c0,0,4.1-0.3,6.3-1.1c2.1-0.8,4.7-2.4,6.8-1.3c1.8,1,3.9,2.5,5.7,3.8c-3.8-3.5-4.8-6.6-5.1-8.3
				c-0.3-2.1,1.5-5.6,1.9-8.3c0.3-2.3,0.1-6.3,0.1-6.3c3.7,4.5,7,5.1,8.5,9.8c1.5,5-0.9,6.7-1.7,9.5c-0.2,0.9-0.3,1.9-0.2,2.9
				C164.5,31.3,164.4,30.3,164.3,29.1z"/>
			<path fill="#FFFFFF" d="M152.6,18.4c-1.4-3.8-6.6-8.3-6.6-8.3s4,5.6,5,8.2c0.7,1.7,0.9,4.3,0.9,4.9c-0.6,0.2-3.4,1-5.1,1.6
				c-1.9,0.7-6.9,1.2-6.9,1.2s6.1,0.4,10.1-0.5c1.2-0.3,2.2-0.5,2.9-0.6c-1.1,0.3-2.4,0.7-3,1.1c-1.3,0.9-2.5,3.6-6.2,3.6
				c-3.3,0.1-7-3-10.8-3.8c0,0,3.7-1.3,5.6-2.6c1.8-1.2,3.7-3.4,5.9-2.8c1.9,0.5,4.2,1.3,6.2,2.1c-4.3-2.3-6.1-4.9-6.7-6.3
				c-0.8-1.8,0-5.5-0.3-8.1c-0.2-2.2-1.4-5.8-1.4-5.8c4.5,3.2,7.7,3,10.2,6.9c2.6,4.2,0.8,6.3,0.8,9.2c0,0.8,0.2,1.8,0.5,2.7
				C153.3,20.4,153,19.5,152.6,18.4z"/>
			<path fill="#FFFFFF" d="M140.6,18.3c-0.5-0.4-2.9-2.1-4.3-3.1c-1.6-1.2-6.1-3.3-6.1-3.3s5.9,1.5,9.4,3.7c1,0.6,1.9,1.1,2.6,1.5
				c-1-0.6-1.8-1.7-2.3-2.4c-0.9-1.2-1.4-3.8-4.9-5.1c-3.1-1.1-7.6,0.6-11.4,0.2c0,0,3,2.2,4.6,3.9c1.5,1.6,2.4,4.2,4.6,4.8
				C134.9,19.1,137,18,140.6,18.3z"/>
		</g>
		<path fill="#FFFFFF" d="M103.1,165c-0.1,2.4,0.7,6.6,0.6,10c-0.2,4.4-1.6,9.8-1.6,9.8s-1.4-5.5-1.6-9.8c-0.1-3.4,0.7-7.6,0.6-10
			c-2.4,7.5-7.1,8.9-7.2,14.6c-0.2,5.7,8.2,10.8,8.2,10.8s8.4-5.1,8.2-10.8C110.2,173.9,105.6,172.4,103.1,165z"/>
	</g>
</g>
</svg>
