<?xml version="1.0" encoding="utf-8"?>
<!-- Generator: Adobe Illustrator 19.1.0, SVG Export Plug-In . SVG Version: 6.00 Build 0)  -->
<svg version="1.2" baseProfile="tiny" id="Layer_1" xmlns="http://www.w3.org/2000/svg" xmlns:xlink="http://www.w3.org/1999/xlink"
	 x="0px" y="0px" viewBox="0 0 204.3 192.2" xml:space="preserve">
<g>
	<rect x="74.3" y="77.5" fill="#FFFFFF" width="19.9" height="32.6"/>
	<rect x="110.2" y="77.5" fill="#FFFFFF" width="19.9" height="32.6"/>
	<path fill="#FFFFFF" d="M121.9,58.4c2.9-0.5,5.9-2,8.7-3.2c0,0,0,0,0.1,0c-0.1-1.4-0.7-3.3-1.8-4.4c-1.5-1.6-3.5-2.3-3-4.5
		c0.7-3,0.7-5.2-0.7-8.8c-2.7,0.8-7.2,1.9-10.9,4.6c-4.2,3-7,6-9,8.7v-1.6c0-1.5,1.9-2.8,1.9-2.8h-5.7c-1.3,0-2.3,1.2-2.3,2.8v1.5
		c-2-2.7-4.8-5.7-9-8.6c-3.7-2.7-8.2-3.8-10.9-4.6c-1.3,2.6-2.3,3.6-0.8,9.6c0.6,2.3-4.5,0.7-4.7,8.2c0,0,0,0,0.1,0
		c2.8,1.2,5.8,2.8,8.7,3.2H70.3v15.9h23.9V58.7c1.2-0.2,1.8-0.3,2.8-0.6v51.9h10.4V58c1,0.2,1.6,0.4,2.8,0.6v15.7h23.9V58.4H121.9z"
		/>
</g>
</svg>
