<?xml version="1.0" encoding="utf-8"?>
<!-- Generator: Adobe Illustrator 19.1.0, SVG Export Plug-In . SVG Version: 6.00 Build 0)  -->
<svg version="1.2" baseProfile="tiny" id="Layer_1" xmlns="http://www.w3.org/2000/svg" xmlns:xlink="http://www.w3.org/1999/xlink"
	 x="0px" y="0px" viewBox="0 0 204.3 192.2" xml:space="preserve">
<g>
	<g>
		<g>
			<path fill="#FFFFFF" d="M68.6,152.6c1.7-3.2,1.4-6.1,1.2-7.8c-0.3-1.9-1.9-7.5-4.8-11c0,0,0,2.5-1.1,4.2
				c-1.1,1.7-3.6,4.1-4.5,5.1c-0.9,1-2,2.6-2.4,4c-0.4,1.4-0.2,3.2,0,4.2c0.4,1.4,1.1,2.8,1.8,3.5c0.6,0.5,1.8,1.5,3.3,1.4
				c-0.7-1-1.2-1.9-1.7-3.3c-0.5-1.4-0.4-3.4,0.2-5.2c0.6-1.7,2.6-4.5,3.3-5.6c0.7-1.1,1.6-2.9,1.6-2.9c-0.1,1.7-2.4,5.3-2.9,6.3
				c-0.6,1.1-1.3,3-1.4,4.9c-0.1,1.9,1.2,4.1,1.5,4.7c0.3,0.5,1.4,2,2.5,3.6c-2,0.3-3.9,0.5-4.5,0.6c-0.7,0.2-3.3,0.7-4.7,2
				c-1.4,1.4-2.5,3.2-2.9,4.3c-0.5,1.1-1.8,5.1-3.1,6.3c0,0,0.9-1.8,1.3-3c0.4-1.2,1.3-4.4,2.3-6.1c1-1.6,2.6-3,4-3.6
				c1.4-0.6,2.4-0.8,3.7-1c-0.9-1.1-2.5-1.4-3.3-1.4c-1-0.1-2.7,0.4-4,1c-0.9,0.4-2.5,1.6-3.3,2.7c-0.9,1.3-1.4,3-1.6,4.4
				c-0.2,1.3-0.5,4.7-1.1,6.6c-0.6,1.9-2.6,3.5-2.6,3.5c4.7-0.2,10.1-2.8,11.8-3.8c1.6-1,4-2.6,5.4-6c1.4-3.3,0-5.6,0-5.6
				s4.1,0.2,4.2-0.2c0.2-0.6-2.6-3.4-2.6-3.4S66.9,155.8,68.6,152.6z"/>
			<path fill="#FFFFFF" d="M53.8,140.8c2.2-2.6,2.5-5.4,2.6-7c0.1-1.8-0.3-7.3-2.3-11.1c0,0-0.5,2.3-1.8,3.6
				c-1.4,1.3-4.2,3.1-5.2,3.9c-1,0.8-2.3,2-3,3.3c-0.6,1.2-0.9,2.9-0.8,3.9c0.1,1.3,0.5,2.9,1,3.7c0.4,0.6,1.4,1.8,2.8,2
				c-0.5-1.1-0.7-2-0.9-3.3c-0.2-1.4,0.3-3.3,1.2-4.8c0.9-1.5,3.3-3.7,4.2-4.6c0.9-0.9,2-2.4,2-2.4c-0.4,1.6-3.3,4.4-4,5.3
				c-0.7,0.9-1.8,2.5-2.3,4.3c-0.5,1.8,0.3,4.1,0.5,4.7c0.2,0.5,0.9,2.2,1.6,3.9c-1.9-0.2-3.7-0.3-4.3-0.3c-0.7,0-3.2,0-4.8,1
				c-1.6,1-2.9,2.5-3.6,3.4c-0.7,0.9-2.6,4.4-4.1,5.2c0,0,1.2-1.5,1.8-2.6c0.6-1.1,2.1-3.9,3.3-5.2c1.2-1.3,3-2.3,4.4-2.5
				c1.4-0.3,2.4-0.3,3.6-0.2c-0.6-1.2-2.1-1.8-2.8-2c-0.9-0.3-2.6-0.2-3.9,0.1c-0.9,0.2-2.6,1-3.6,1.9c-1.1,1-1.9,2.5-2.4,3.7
				c-0.5,1.2-1.4,4.3-2.3,5.9c-0.9,1.7-3.1,2.8-3.1,2.8c4.4,0.7,9.9-0.6,11.7-1.2c1.7-0.6,4.2-1.7,6.2-4.5c1.9-2.8,1.1-5.2,1.1-5.2
				s3.7,1,4,0.6c0.3-0.5-1.7-3.7-1.7-3.7S51.6,143.4,53.8,140.8z"/>
			<path fill="#FFFFFF" d="M42.1,127.1c2.6-2,3.4-4.5,3.8-6c0.4-1.7,1.2-6.8,0.1-10.8c0,0-0.9,2-2.4,3c-1.5,1-4.5,2-5.6,2.6
				c-1.1,0.5-2.6,1.4-3.4,2.5c-0.8,1-1.4,2.6-1.5,3.4c-0.2,1.3-0.1,2.7,0.2,3.6c0.3,0.6,0.9,1.9,2.2,2.4c-0.2-1.1-0.3-2-0.2-3.3
				c0.1-1.3,0.9-3,2.1-4.2c1.2-1.2,3.8-2.8,4.8-3.4c1-0.6,2.4-1.8,2.4-1.8c-0.7,1.4-3.9,3.5-4.8,4.1c-0.9,0.7-2.2,2-3,3.5
				c-0.8,1.6-0.5,3.8-0.5,4.4c0,0.5,0.4,2.2,0.7,3.9c-1.7-0.5-3.3-1-3.9-1.1c-0.6-0.1-3-0.7-4.6-0.1c-1.7,0.6-3.2,1.7-4,2.5
				c-0.8,0.7-3.3,3.5-4.8,4.1c0,0,1.4-1.2,2.2-2.1c0.8-0.9,2.7-3.2,4.1-4.2c1.4-1,3.2-1.5,4.6-1.5c1.4,0,2.3,0.2,3.4,0.6
				c-0.3-1.2-1.6-2-2.2-2.4c-0.8-0.4-2.3-0.7-3.7-0.6c-0.9,0-2.6,0.4-3.7,1c-1.2,0.7-2.3,2-2.9,3c-0.7,1-2.1,3.7-3.3,5.1
				c-1.2,1.3-3.4,2-3.4,2c4,1.5,9.3,1.4,11.1,1.2c1.6-0.2,4.3-0.7,6.7-2.9c2.3-2.2,2.1-4.6,2.1-4.6s3.3,1.7,3.6,1.4
				c0.4-0.4-0.9-3.8-0.9-3.8S39.6,129.1,42.1,127.1z"/>
			<path fill="#FFFFFF" d="M33.8,112.2c2.8-1.4,4.1-3.5,4.7-4.8c0.8-1.5,2.4-6.1,2.2-10c0,0-1.2,1.7-2.8,2.3c-1.6,0.6-4.6,1-5.7,1.3
				c-1.1,0.3-2.6,0.8-3.7,1.6c-0.9,0.7-1.8,2.1-2.1,2.9c-0.4,1.1-0.7,2.5-0.5,3.4c0.1,0.7,0.5,2,1.6,2.6c0-1,0.1-1.9,0.5-3.1
				c0.4-1.2,1.4-2.6,2.7-3.5c1.3-0.9,4.1-1.8,5.1-2.2c1-0.4,2.6-1.2,2.6-1.2c-1,1.2-4.3,2.4-5.2,2.9c-0.9,0.5-2.4,1.4-3.5,2.7
				c-1.1,1.3-1.3,3.5-1.3,4c-0.1,0.5-0.1,2.1-0.1,3.8c-1.5-0.8-2.9-1.6-3.4-1.8c-0.6-0.2-2.6-1.2-4.3-1c-1.7,0.2-3.3,1-4.2,1.5
				c-0.9,0.5-3.8,2.6-5.3,2.8c0,0,1.5-0.8,2.4-1.5c0.9-0.6,3.1-2.4,4.6-3.1c1.5-0.6,3.3-0.8,4.5-0.5c1.3,0.3,2.1,0.7,3,1.2
				c-0.1-1.2-1.1-2.2-1.6-2.6c-0.7-0.6-2-1.1-3.3-1.3c-0.9-0.2-2.5-0.2-3.7,0.2c-1.3,0.4-2.5,1.4-3.3,2.2c-0.8,0.8-2.7,3-4.1,4
				c-1.4,1-3.5,1.1-3.5,1.1c3.4,2.2,8.4,3.2,10.1,3.3c1.6,0.1,4.1,0.2,6.8-1.4c2.6-1.6,2.8-3.9,2.8-3.9s2.7,2.2,3,2
				c0.4-0.3-0.1-3.7-0.1-3.7S31,113.6,33.8,112.2z"/>
			<path fill="#FFFFFF" d="M28.6,96.9c2.9-0.7,4.5-2.4,5.4-3.6c1-1.2,3.5-5.2,4-8.9c0,0-1.5,1.4-3.1,1.6c-1.6,0.2-4.4,0-5.6,0.1
				c-1.1,0-2.6,0.2-3.7,0.8c-1,0.5-2.1,1.6-2.5,2.3c-0.6,1-1.1,2.2-1.1,3c0,0.6,0.1,1.9,0.9,2.8c0.2-1,0.5-1.7,1.1-2.8
				c0.6-1,1.8-2.1,3.2-2.7c1.4-0.6,4.1-0.9,5.2-1.1c1-0.2,2.6-0.6,2.6-0.6c-1.1,0.9-4.5,1.4-5.4,1.7c-1,0.3-2.5,0.8-3.8,1.8
				c-1.2,1-1.9,3-2,3.5c-0.2,0.5-0.5,1.9-0.8,3.5c-1.2-1.1-2.4-2.1-2.8-2.4c-0.5-0.3-2.2-1.6-3.8-1.8c-1.6-0.1-3.3,0.2-4.2,0.6
				c-0.9,0.3-4,1.7-5.5,1.6c0,0,1.6-0.5,2.5-0.9c1-0.4,3.4-1.6,4.9-1.9c1.5-0.3,3.2-0.1,4.3,0.5c1.1,0.5,1.8,1,2.6,1.7
				c0.2-1.2-0.5-2.3-0.9-2.8c-0.5-0.7-1.7-1.4-2.8-1.9c-0.8-0.3-2.3-0.6-3.5-0.5c-1.3,0.1-2.6,0.8-3.5,1.4c-0.9,0.6-3.1,2.3-4.6,3
				c-1.5,0.7-3.5,0.4-3.5,0.4c2.7,2.7,7.2,4.6,8.7,5.1c1.4,0.4,3.8,1,6.6,0c2.7-0.9,3.4-3,3.4-3s2.1,2.6,2.4,2.4
				c0.5-0.2,0.7-3.4,0.7-3.4S25.8,97.6,28.6,96.9z"/>
			<path fill="#FFFFFF" d="M26.5,81.8c2.8-0.1,4.6-1.4,5.7-2.3c1.2-0.9,4.3-4.1,5.5-7.4c0,0-1.6,1-3.2,0.9c-1.6-0.1-4.1-0.8-5.2-1
				c-1-0.2-2.5-0.3-3.6,0c-1.1,0.3-2.3,1.1-2.8,1.6c-0.8,0.8-1.5,1.8-1.7,2.6c-0.1,0.6-0.3,1.8,0.3,2.8c0.4-0.8,0.8-1.5,1.5-2.4
				c0.8-0.8,2.1-1.6,3.6-1.9c1.4-0.2,4,0,5,0c1,0.1,2.6-0.1,2.6-0.1c-1.2,0.6-4.5,0.4-5.4,0.5c-0.9,0-2.5,0.3-3.9,0.9
				c-1.3,0.7-2.3,2.4-2.6,2.8c-0.2,0.4-0.8,1.7-1.5,3.1c-0.9-1.2-1.8-2.4-2.1-2.8c-0.4-0.4-1.7-1.9-3.2-2.4c-1.5-0.4-3.1-0.4-4-0.3
				c-0.9,0.1-4.1,0.8-5.4,0.4c0,0,1.6-0.1,2.5-0.3c1-0.2,3.5-0.8,4.9-0.8c1.5,0,3,0.6,3.9,1.3c0.9,0.7,1.5,1.3,2.1,2.1
				c0.4-1-0.1-2.2-0.3-2.8c-0.4-0.7-1.3-1.7-2.2-2.3c-0.6-0.4-2-1.1-3.1-1.2c-1.2-0.1-2.6,0.2-3.6,0.6c-1,0.4-3.3,1.5-4.8,1.8
				c-1.5,0.3-3.3-0.4-3.3-0.4c2,3.1,5.8,5.7,7.1,6.4c1.2,0.7,3.3,1.7,6.1,1.3c2.7-0.3,3.8-2.2,3.8-2.2s1.4,2.8,1.8,2.8
				c0.5-0.1,1.3-3,1.3-3S23.8,81.9,26.5,81.8z"/>
			<path fill="#FFFFFF" d="M27.2,67.4c2.6,0.5,4.6-0.4,5.7-1c1.3-0.7,4.8-3,6.6-5.8c0,0-1.7,0.6-3.1,0.2c-1.4-0.4-3.7-1.6-4.6-2
				c-0.9-0.4-2.2-0.8-3.4-0.7c-1,0-2.3,0.6-2.9,1c-0.9,0.6-1.7,1.4-2.1,2.1c-0.2,0.5-0.7,1.6-0.3,2.6c0.5-0.7,1-1.3,1.9-1.9
				c0.9-0.6,2.3-1.1,3.7-1c1.4,0.1,3.7,0.8,4.7,1c0.9,0.3,2.4,0.4,2.4,0.4c-1.2,0.3-4.2-0.5-5.1-0.6c-0.9-0.1-2.4-0.2-3.8,0.1
				c-1.4,0.4-2.6,1.8-3,2.1c-0.3,0.3-1.1,1.4-2,2.6c-0.6-1.3-1.2-2.6-1.4-3c-0.3-0.4-1.2-2.1-2.5-2.8c-1.3-0.7-2.8-1-3.7-1.1
				c-0.9-0.1-3.9-0.1-5.1-0.7c0,0,1.5,0.2,2.4,0.2c0.9,0,3.4-0.1,4.7,0.2c1.3,0.3,2.7,1.1,3.4,2c0.7,0.8,1.1,1.5,1.5,2.3
				c0.6-0.9,0.4-2.1,0.2-2.6c-0.2-0.7-0.9-1.8-1.6-2.6c-0.5-0.5-1.7-1.4-2.7-1.7c-1.1-0.3-2.4-0.3-3.4-0.2c-1,0.1-3.4,0.7-4.9,0.8
				c-1.5,0-3-1-3-1c1.2,3.2,4.2,6.4,5.3,7.4c1,0.9,2.8,2.2,5.4,2.4c2.6,0.2,3.9-1.3,3.9-1.3s0.8,2.9,1.1,2.9c0.4,0,1.8-2.6,1.8-2.6
				S24.6,66.9,27.2,67.4z"/>
			<path fill="#FFFFFF" d="M30.3,54.3c2.4,0.9,4.3,0.6,5.5,0.2c1.3-0.4,5-1.8,7.3-4.1c0,0-1.7,0.2-3-0.5c-1.3-0.7-3.1-2.2-3.9-2.8
				c-0.8-0.5-1.9-1.2-3-1.3c-1-0.2-2.3,0.1-2.9,0.3c-0.9,0.4-1.9,1-2.3,1.5c-0.3,0.4-0.9,1.4-0.7,2.4c0.6-0.6,1.2-1,2.1-1.4
				c0.9-0.4,2.4-0.6,3.6-0.2c1.3,0.3,3.3,1.5,4.1,1.9c0.8,0.4,2.1,0.9,2.1,0.9c-1.2,0-3.8-1.3-4.6-1.6c-0.8-0.3-2.2-0.7-3.5-0.6
				c-1.4,0.1-2.8,1.1-3.2,1.4c-0.3,0.2-1.3,1.1-2.3,2c-0.3-1.4-0.6-2.6-0.7-3.1c-0.2-0.5-0.7-2.2-1.8-3.1c-1-0.9-2.4-1.5-3.2-1.7
				c-0.8-0.3-3.6-0.9-4.6-1.7c0,0,1.3,0.5,2.2,0.6c0.9,0.2,3.2,0.6,4.4,1.1c1.2,0.5,2.3,1.6,2.8,2.5c0.5,0.9,0.7,1.6,0.9,2.5
				c0.7-0.7,0.8-1.8,0.7-2.4c0-0.7-0.5-1.8-1-2.7c-0.4-0.6-1.3-1.6-2.1-2.1c-0.9-0.5-2.2-0.7-3.1-0.8c-0.9-0.1-3.3,0-4.7-0.3
				c-1.4-0.3-2.6-1.5-2.6-1.5c0.5,3.2,2.7,6.8,3.5,7.9c0.8,1,2.1,2.6,4.5,3.3c2.4,0.7,3.9-0.4,3.9-0.4s0.1,2.8,0.5,2.9
				c0.4,0.1,2.2-2,2.2-2S28,53.3,30.3,54.3z"/>
			<path fill="#FFFFFF" d="M35.4,42.9c2,1.3,3.9,1.4,5.1,1.3c1.3-0.1,5-0.7,7.6-2.4c0,0-1.6-0.2-2.7-1c-1-0.8-2.4-2.7-3.1-3.3
				c-0.6-0.7-1.6-1.5-2.5-1.8c-0.9-0.3-2.1-0.4-2.8-0.3c-0.9,0.2-2,0.5-2.5,1c-0.4,0.3-1.1,1.1-1.2,2.1c0.7-0.4,1.3-0.7,2.3-0.9
				c1-0.2,2.3-0.1,3.4,0.5c1.1,0.5,2.8,2,3.5,2.6c0.7,0.5,1.8,1.2,1.8,1.2c-1.1-0.2-3.3-1.9-4-2.4c-0.7-0.4-1.9-1.1-3.2-1.3
				c-1.3-0.2-2.8,0.5-3.2,0.7c-0.4,0.2-1.4,0.8-2.6,1.4c0-1.3,0-2.6-0.1-3c-0.1-0.5-0.2-2.2-1-3.3c-0.8-1-1.9-1.8-2.6-2.2
				c-0.7-0.4-3.2-1.5-3.9-2.5c0,0,1.1,0.7,1.9,1c0.8,0.3,2.8,1.2,3.8,1.9c1,0.7,1.8,1.9,2.1,2.9c0.3,1,0.4,1.7,0.4,2.5
				c0.8-0.5,1.1-1.6,1.2-2.1c0.1-0.7-0.1-1.8-0.4-2.7c-0.2-0.6-0.9-1.7-1.6-2.4c-0.8-0.7-1.9-1.1-2.8-1.4c-0.9-0.2-3.1-0.6-4.3-1.2
				c-1.2-0.5-2.1-1.9-2.1-1.9c-0.2,3.1,1.1,6.9,1.7,8.1c0.5,1.1,1.5,2.8,3.6,4c2.1,1.1,3.7,0.4,3.7,0.4s-0.4,2.7-0.2,2.8
				c0.4,0.2,2.4-1.5,2.4-1.5S33.5,41.5,35.4,42.9z"/>
			<path fill="#FFFFFF" d="M42.2,33.4c1.6,1.6,3.4,2,4.5,2.2c1.2,0.2,4.8,0.3,7.5-0.7c0,0-1.5-0.5-2.3-1.5c-0.8-1-1.7-3-2.2-3.7
				c-0.5-0.7-1.2-1.7-2-2.2c-0.7-0.5-1.9-0.8-2.5-0.8c-0.9,0-1.9,0.1-2.5,0.4c-0.4,0.2-1.3,0.8-1.5,1.7c0.7-0.2,1.3-0.4,2.3-0.4
				c0.9,0,2.1,0.4,3.1,1.1c0.9,0.7,2.2,2.4,2.7,3.1c0.5,0.6,1.4,1.5,1.4,1.5c-1-0.4-2.7-2.5-3.2-3c-0.5-0.5-1.5-1.4-2.7-1.8
				c-1.1-0.4-2.7-0.1-3.1,0c-0.4,0.1-1.5,0.4-2.7,0.8c0.2-1.2,0.5-2.4,0.5-2.8c0-0.4,0.2-2.1-0.3-3.2c-0.5-1.1-1.4-2.1-2-2.6
				c-0.6-0.5-2.7-2-3.2-3.1c0,0,0.9,0.9,1.6,1.3c0.7,0.5,2.4,1.6,3.2,2.5c0.8,0.9,1.3,2.1,1.4,3.1c0.1,1,0,1.6-0.1,2.4
				c0.8-0.3,1.3-1.2,1.5-1.7c0.2-0.6,0.3-1.7,0.2-2.6c-0.1-0.6-0.5-1.8-1-2.5c-0.6-0.8-1.5-1.4-2.3-1.8c-0.7-0.4-2.7-1.2-3.7-1.9
				c-1-0.7-1.6-2.2-1.6-2.2c-0.8,2.9-0.3,6.6,0,7.8c0.3,1.1,0.8,2.9,2.5,4.4c1.7,1.5,3.4,1.1,3.4,1.1s-0.9,2.4-0.7,2.6
				c0.3,0.2,2.5-0.9,2.5-0.9S40.7,31.7,42.2,33.4z"/>
			<path fill="#FFFFFF" d="M50.1,26c1.2,1.8,2.7,2.6,3.7,2.9c1.1,0.4,4.4,1.3,7.1,0.8c0,0-1.3-0.7-1.8-1.8c-0.5-1.1-1-3.1-1.3-3.9
				c-0.3-0.8-0.7-1.8-1.4-2.4c-0.6-0.6-1.6-1.1-2.2-1.2c-0.8-0.2-1.8-0.3-2.4-0.1c-0.4,0.1-1.3,0.5-1.7,1.3c0.7-0.1,1.3-0.1,2.2,0.1
				c0.9,0.2,1.9,0.8,2.6,1.7c0.7,0.9,1.6,2.7,1.9,3.4c0.4,0.7,1,1.7,1,1.7c-0.9-0.6-2-2.8-2.4-3.4c-0.4-0.6-1.2-1.6-2.1-2.2
				c-1-0.6-2.5-0.6-2.9-0.6c-0.4,0-1.5,0.1-2.6,0.2c0.5-1.1,0.9-2.1,1-2.5c0.1-0.4,0.6-1.9,0.4-3.1c-0.3-1.2-0.9-2.2-1.3-2.8
				c-0.4-0.6-2.1-2.4-2.3-3.5c0,0,0.7,1,1.2,1.6c0.5,0.6,1.9,2,2.5,3c0.5,1,0.8,2.2,0.7,3.1c-0.1,0.9-0.3,1.5-0.6,2.2
				c0.8-0.1,1.5-0.9,1.7-1.3c0.3-0.5,0.6-1.5,0.7-2.4c0-0.6-0.1-1.8-0.4-2.5c-0.4-0.8-1.2-1.6-1.8-2.2c-0.6-0.5-2.3-1.7-3.1-2.5
				c-0.8-0.9-1.1-2.4-1.1-2.4c-1.3,2.5-1.6,6.1-1.6,7.3c0,1.1,0.2,2.9,1.5,4.6c1.3,1.7,2.9,1.7,2.9,1.7s-1.3,2-1.2,2.3
				c0.2,0.3,2.5-0.3,2.5-0.3S49,24.2,50.1,26z"/>
			<path fill="#FFFFFF" d="M58.7,20.8c0.7,1.9,2,2.9,2.9,3.5c0.9,0.6,3.9,2,6.5,2.1c0,0-1.1-0.9-1.3-2c-0.3-1.1-0.4-3.1-0.5-3.9
				c-0.1-0.8-0.3-1.8-0.8-2.5c-0.4-0.7-1.3-1.3-1.8-1.6c-0.7-0.4-1.6-0.6-2.2-0.6c-0.4,0-1.3,0.2-1.9,0.8c0.7,0.1,1.2,0.2,2,0.5
				c0.8,0.3,1.6,1.1,2.1,2.1c0.5,0.9,0.9,2.8,1.1,3.5c0.2,0.7,0.6,1.8,0.6,1.8c-0.7-0.7-1.3-3-1.6-3.7c-0.2-0.6-0.8-1.7-1.5-2.5
				c-0.8-0.8-2.2-1.1-2.6-1.2c-0.3-0.1-1.4-0.2-2.5-0.3c0.6-0.9,1.3-1.8,1.4-2.1c0.2-0.3,1-1.6,0.9-2.8c0-1.1-0.4-2.2-0.7-2.9
				c-0.3-0.6-1.5-2.7-1.5-3.7c0,0,0.4,1.1,0.8,1.7c0.4,0.6,1.4,2.2,1.7,3.3c0.3,1,0.3,2.2,0,3c-0.3,0.8-0.6,1.3-1,1.9
				c0.8,0,1.5-0.5,1.9-0.9c0.4-0.4,0.9-1.3,1.1-2.1c0.2-0.5,0.3-1.6,0.1-2.4c-0.2-0.9-0.7-1.7-1.2-2.3c-0.5-0.6-1.8-2-2.4-3
				c-0.6-1-0.5-2.4-0.5-2.4c-1.7,2.1-2.7,5.3-2.9,6.4c-0.2,1-0.4,2.7,0.5,4.6c0.9,1.8,2.4,2.1,2.4,2.1s-1.6,1.6-1.5,1.9
				c0.2,0.3,2.4,0.2,2.4,0.2S58,18.9,58.7,20.8z"/>
			<g>
				<path fill="#FFFFFF" d="M68.1,8.7c0.4-0.4,1.2-0.9,2-1.2c0.6-0.2,1.7-0.4,2.5-0.2c0.9,0.2,1.9,0.7,2.6,1.1
					c0.7,0.5,2.3,1.7,3.4,2.3c1.1,0.5,2.6,0.4,2.6,0.4c-2,1.8-5.2,2.9-6.4,3.2c-1.1,0.2-2.8,0.5-4.8-0.3c-2-0.8-2.5-2.3-2.5-2.3
					s-1.6,1.6-1.8,1.6c-0.2,0-0.3-0.5-0.1-0.6c1-0.8,2.1-1.7,2.4-1.9c0.3-0.2,1.6-1,2.8-1.1c1.2,0,2.4,0.3,3.1,0.6
					c0.7,0.3,3,1.4,4,1.4c0,0-1.2-0.4-1.9-0.7c-0.7-0.3-2.5-1.3-3.6-1.6c-1.1-0.3-2.3-0.2-3.2,0.1c-0.8,0.3-1.3,0.6-1.9,1.1
					C67.3,9.8,67.8,9.1,68.1,8.7z"/>
				<path fill="#FFFFFF" d="M68.3,8.7c0.4-0.4,1.1-0.8,1.9-1l0,0c0.5-0.2,1.6-0.4,2.5-0.2l0,0c0.1,0,0.2,0,0.4,0.1l0,0l0,0
					c0.9,0.2,1.8,0.8,2.2,1l0,0c0.2,0.1,0.5,0.4,0.9,0.6l0,0c0.6,0.4,1.3,1,2,1.4l0,0l0,0l-0.1,0.1c-0.7-0.4-1.4-0.9-2-1.4l0,0
					c-0.3-0.2-0.6-0.5-0.8-0.6l0,0c-0.4-0.3-1.3-0.8-2.2-1l0,0l0,0c-0.1,0-0.2-0.1-0.3-0.1l0,0c-0.8-0.1-2,0-2.4,0.2l0,0
					C69.5,8,68.8,8.4,68.3,8.7L68.3,8.7L68.3,8.7L68.3,8.7z"/>
			</g>
			<path fill="#FFFFFF" d="M95.1,171.2c-2.7-1.1-7.7-2-11.8-4.1c-0.4-0.3-0.6-0.4-0.6-0.4s2.7-1.2,3.7-4.8c1.1-3.7,0.1-6.6-0.5-8.3
				c-0.7-1.9-3.6-7.3-7.3-10.2c0,0,0.6,2.5-0.2,4.5c-0.8,2-2.8,5-3.5,6.3c-0.7,1.3-1.5,3.1-1.6,4.7c-0.1,1.5,0.5,3.4,0.9,4.3
				c0.7,1.3,1.8,2.7,2.7,3.2c0.7,0.4,2.2,1.2,3.7,0.8c-0.9-0.9-1.6-1.7-2.4-3c-0.8-1.3-1.2-3.4-0.9-5.4c0.3-1.9,1.7-5.2,2.2-6.5
				c0.5-1.3,1-3.3,1-3.3c0.3,1.8-1.3,5.9-1.6,7.2c-0.3,1.2-0.7,3.4-0.4,5.4c0.3,2,2.1,4,2.6,4.5c0.4,0.5,1.9,1.8,3.4,3.2
				c-2,0.7-3.9,1.3-4.5,1.6c-0.7,0.3-3.2,1.4-4.4,3.1c-1.2,1.7-1.8,3.8-2.1,5.1c-0.3,1.3-0.7,5.6-1.8,7.1c0,0,0.5-2.1,0.6-3.4
				c0.1-1.3,0.4-4.9,1-6.7c0.6-1.9,2-3.6,3.3-4.5c1.3-0.9,2.3-1.4,3.6-1.8c-1.2-1-2.9-0.9-3.7-0.7c-1.1,0.2-2.7,1-3.9,1.9
				c-0.8,0.6-2.2,2.2-2.8,3.5c-0.6,1.5-0.8,3.4-0.7,4.8c0.1,1.4,0.5,4.9,0.3,7c-0.2,2.1-1.9,4.2-1.9,4.2c4.8-1.3,9.8-5,11.3-6.5
				c1.4-1.3,3.6-3.6,4.3-7.3c0.7-3.7-1.2-5.8-1.2-5.8s1.4-0.3,2.4-0.3c5-0.1,9.1,0.9,12.6,2.8c5,2.7,8.4,10.4,12.5,12.4
				c3.8,1.8,12.1,1.3,12.1,1.3C114.8,185.1,103,174.4,95.1,171.2z"/>
		</g>
		<g>
			<path fill="#FFFFFF" d="M136.3,152.6c-1.7-3.2-1.4-6.1-1.2-7.8c0.3-1.9,1.9-7.5,4.8-11c0,0,0,2.5,1.1,4.2
				c1.1,1.7,3.6,4.1,4.5,5.1c0.9,1,2,2.6,2.4,4c0.4,1.4,0.2,3.2,0,4.2c-0.4,1.4-1.1,2.8-1.8,3.5c-0.6,0.5-1.8,1.5-3.3,1.4
				c0.7-1,1.2-1.9,1.7-3.3c0.5-1.4,0.4-3.4-0.2-5.2c-0.6-1.7-2.6-4.5-3.3-5.6c-0.7-1.1-1.6-2.9-1.6-2.9c0.1,1.7,2.4,5.3,2.9,6.3
				c0.6,1.1,1.3,3,1.4,4.9c0.1,1.9-1.2,4.1-1.5,4.7c-0.3,0.5-1.4,2-2.5,3.6c2,0.3,3.9,0.5,4.5,0.6c0.7,0.2,3.3,0.7,4.7,2
				c1.4,1.4,2.5,3.2,2.9,4.3c0.5,1.1,1.8,5.1,3.1,6.3c0,0-0.9-1.8-1.3-3c-0.4-1.2-1.3-4.4-2.3-6.1c-1-1.6-2.6-3-4-3.6
				c-1.4-0.6-2.4-0.8-3.7-1c0.9-1.1,2.5-1.4,3.3-1.4c1-0.1,2.7,0.4,4,1c0.9,0.4,2.5,1.6,3.3,2.7c0.9,1.3,1.4,3,1.6,4.4
				c0.2,1.3,0.5,4.7,1.1,6.6c0.6,1.9,2.6,3.5,2.6,3.5c-4.7-0.2-10.1-2.8-11.8-3.8c-1.6-1-4-2.6-5.4-6c-1.4-3.3,0-5.6,0-5.6
				s-4.1,0.2-4.2-0.2c-0.2-0.6,2.6-3.4,2.6-3.4S138,155.8,136.3,152.6z"/>
			<path fill="#FFFFFF" d="M151.1,140.8c-2.2-2.6-2.5-5.4-2.6-7c-0.1-1.8,0.3-7.3,2.3-11.1c0,0,0.5,2.3,1.8,3.6
				c1.4,1.3,4.2,3.1,5.2,3.9c1,0.8,2.3,2,3,3.3c0.6,1.2,0.9,2.9,0.8,3.9c-0.1,1.3-0.5,2.9-1,3.7c-0.4,0.6-1.4,1.8-2.8,2
				c0.5-1.1,0.7-2,0.9-3.3c0.2-1.4-0.3-3.3-1.2-4.8c-0.9-1.5-3.3-3.7-4.2-4.6c-0.9-0.9-2-2.4-2-2.4c0.4,1.6,3.3,4.4,4,5.3
				c0.7,0.9,1.8,2.5,2.3,4.3c0.5,1.8-0.3,4.1-0.5,4.7c-0.2,0.5-0.9,2.2-1.6,3.9c1.9-0.2,3.7-0.3,4.3-0.3c0.7,0,3.2,0,4.8,1
				c1.6,1,2.9,2.5,3.6,3.4c0.7,0.9,2.6,4.4,4.1,5.2c0,0-1.2-1.5-1.8-2.6c-0.6-1.1-2.1-3.9-3.3-5.2c-1.2-1.3-3-2.3-4.4-2.5
				c-1.4-0.3-2.4-0.3-3.6-0.2c0.6-1.2,2.1-1.8,2.8-2c0.9-0.3,2.6-0.2,3.9,0.1c0.9,0.2,2.6,1,3.6,1.9c1.1,1,1.9,2.5,2.4,3.7
				c0.5,1.2,1.4,4.3,2.3,5.9c0.9,1.7,3.1,2.8,3.1,2.8c-4.4,0.7-9.9-0.6-11.7-1.2c-1.6-0.6-4.3-1.7-6.2-4.5c-1.9-2.8-1.1-5.2-1.1-5.2
				s-3.7,1-4,0.6c-0.3-0.5,1.7-3.7,1.7-3.7S153.3,143.4,151.1,140.8z"/>
			<path fill="#FFFFFF" d="M162.8,127.1c-2.6-2-3.4-4.5-3.8-6c-0.4-1.7-1.2-6.8-0.1-10.8c0,0,0.9,2,2.4,3c1.5,1,4.5,2,5.6,2.6
				c1.1,0.5,2.6,1.4,3.4,2.5c0.8,1,1.4,2.6,1.5,3.4c0.2,1.3,0.1,2.7-0.2,3.6c-0.3,0.6-0.9,1.9-2.2,2.4c0.2-1.1,0.3-2,0.2-3.3
				c-0.1-1.3-0.9-3-2.1-4.2c-1.2-1.2-3.8-2.8-4.8-3.4c-1-0.6-2.4-1.8-2.4-1.8c0.7,1.4,3.9,3.5,4.8,4.1c0.9,0.7,2.2,2,3,3.5
				c0.8,1.6,0.5,3.8,0.5,4.4c0,0.5-0.4,2.2-0.7,3.9c1.7-0.5,3.3-1,3.9-1.1c0.6-0.1,3-0.7,4.6-0.1c1.7,0.6,3.2,1.7,4,2.5
				c0.8,0.7,3.3,3.5,4.8,4.1c0,0-1.4-1.2-2.2-2.1c-0.8-0.9-2.7-3.2-4.1-4.2c-1.4-1-3.2-1.5-4.6-1.5c-1.4,0-2.3,0.2-3.4,0.6
				c0.3-1.2,1.6-2,2.2-2.4c0.8-0.4,2.3-0.7,3.7-0.6c0.9,0,2.6,0.4,3.7,1c1.2,0.7,2.3,2,2.9,3c0.7,1,2.1,3.7,3.3,5.1
				c1.2,1.3,3.4,2,3.4,2c-4,1.5-9.3,1.4-11.1,1.2c-1.6-0.2-4.3-0.7-6.7-2.9c-2.3-2.2-2.1-4.6-2.1-4.6s-3.3,1.7-3.6,1.4
				c-0.4-0.4,0.9-3.8,0.9-3.8S165.3,129.1,162.8,127.1z"/>
			<path fill="#FFFFFF" d="M171.1,112.2c-2.8-1.4-4-3.5-4.7-4.8c-0.7-1.5-2.4-6.1-2.2-10c0,0,1.2,1.7,2.8,2.3c1.6,0.6,4.6,1,5.7,1.3
				c1.1,0.3,2.6,0.8,3.7,1.6c0.9,0.7,1.8,2.1,2.1,2.9c0.4,1.1,0.7,2.5,0.5,3.4c-0.1,0.7-0.5,2-1.6,2.6c0-1-0.1-1.9-0.5-3.1
				c-0.4-1.2-1.4-2.6-2.7-3.5c-1.3-0.9-4.1-1.8-5.1-2.2c-1-0.4-2.6-1.2-2.6-1.2c1,1.2,4.3,2.4,5.2,2.9c0.9,0.5,2.4,1.4,3.5,2.7
				c1.1,1.3,1.3,3.5,1.3,4c0.1,0.5,0.1,2.1,0.1,3.8c1.5-0.8,2.9-1.6,3.4-1.8c0.6-0.2,2.6-1.2,4.3-1c1.7,0.2,3.3,1,4.2,1.5
				c0.9,0.5,3.8,2.6,5.3,2.8c0,0-1.5-0.8-2.4-1.5c-0.9-0.6-3.1-2.4-4.6-3.1c-1.5-0.6-3.3-0.8-4.5-0.5c-1.3,0.3-2.1,0.7-3,1.2
				c0.1-1.2,1.1-2.2,1.6-2.6c0.7-0.6,2-1.1,3.3-1.3c0.9-0.2,2.5-0.2,3.7,0.2c1.3,0.4,2.5,1.4,3.3,2.2c0.8,0.8,2.7,3,4.1,4
				c1.4,1,3.5,1.1,3.5,1.1c-3.4,2.2-8.4,3.2-10.1,3.3c-1.6,0.1-4.1,0.2-6.8-1.4c-2.6-1.6-2.8-3.9-2.8-3.9s-2.7,2.2-3,2
				c-0.4-0.3,0.1-3.7,0.1-3.7S173.9,113.6,171.1,112.2z"/>
			<path fill="#FFFFFF" d="M176.3,96.9c-2.9-0.7-4.5-2.4-5.4-3.6c-1-1.2-3.5-5.2-4-8.9c0,0,1.5,1.4,3.1,1.6c1.6,0.2,4.4,0,5.6,0.1
				c1.1,0,2.6,0.2,3.7,0.8c1,0.5,2.1,1.6,2.5,2.3c0.6,1,1.1,2.2,1.1,3c0,0.6-0.1,1.9-0.9,2.8c-0.2-1-0.5-1.7-1.1-2.8
				c-0.6-1-1.8-2.1-3.2-2.7c-1.4-0.6-4.1-0.9-5.2-1.1c-1-0.2-2.6-0.6-2.6-0.6c1.1,0.9,4.5,1.4,5.4,1.7c1,0.3,2.5,0.8,3.8,1.8
				c1.2,1,1.9,3,2,3.5c0.2,0.5,0.5,1.9,0.8,3.5c1.2-1.1,2.4-2.1,2.8-2.4c0.5-0.3,2.2-1.6,3.8-1.8c1.6-0.1,3.3,0.2,4.2,0.6
				c0.9,0.3,4,1.7,5.5,1.6c0,0-1.6-0.5-2.5-0.9c-1-0.4-3.4-1.6-4.9-1.9c-1.5-0.3-3.2-0.1-4.3,0.5c-1.1,0.5-1.8,1-2.6,1.7
				c-0.2-1.2,0.5-2.3,0.9-2.8c0.5-0.7,1.7-1.4,2.8-1.9c0.8-0.3,2.3-0.6,3.5-0.5c1.3,0.1,2.6,0.8,3.5,1.4c0.9,0.6,3.1,2.3,4.6,3
				c1.5,0.7,3.5,0.4,3.5,0.4c-2.7,2.7-7.2,4.6-8.7,5.1c-1.4,0.4-3.8,1-6.6,0c-2.7-0.9-3.4-3-3.4-3s-2.1,2.6-2.4,2.4
				c-0.5-0.2-0.7-3.4-0.7-3.4S179.1,97.6,176.3,96.9z"/>
			<path fill="#FFFFFF" d="M178.4,81.8c-2.8-0.1-4.6-1.4-5.7-2.3c-1.2-0.9-4.3-4.1-5.5-7.4c0,0,1.6,1,3.2,0.9c1.6-0.1,4.1-0.8,5.2-1
				c1-0.2,2.5-0.3,3.6,0c1,0.3,2.3,1.1,2.8,1.6c0.8,0.8,1.5,1.8,1.7,2.6c0.1,0.6,0.3,1.8-0.3,2.8c-0.4-0.8-0.8-1.5-1.5-2.4
				c-0.8-0.8-2.1-1.6-3.5-1.9c-1.4-0.2-4,0-5,0c-1,0.1-2.6-0.1-2.6-0.1c1.2,0.6,4.4,0.4,5.4,0.5c0.9,0,2.5,0.3,3.9,0.9
				c1.3,0.7,2.3,2.4,2.6,2.8c0.2,0.4,0.8,1.7,1.5,3.1c0.9-1.2,1.8-2.4,2.1-2.8c0.4-0.4,1.7-1.9,3.2-2.4c1.5-0.4,3.1-0.4,4-0.3
				c0.9,0.1,4.1,0.8,5.4,0.4c0,0-1.6-0.1-2.5-0.3c-1-0.2-3.5-0.8-4.9-0.8c-1.5,0-3,0.6-3.9,1.3c-0.9,0.7-1.5,1.3-2.1,2.1
				c-0.4-1,0.1-2.2,0.3-2.8c0.3-0.7,1.3-1.7,2.2-2.3c0.6-0.4,2-1.1,3.1-1.2c1.2-0.1,2.6,0.2,3.6,0.6c1,0.4,3.3,1.5,4.8,1.8
				c1.5,0.3,3.3-0.4,3.3-0.4c-2,3.1-5.8,5.7-7.1,6.4c-1.2,0.7-3.3,1.7-6.1,1.3c-2.7-0.3-3.8-2.2-3.8-2.2s-1.4,2.8-1.8,2.8
				c-0.5-0.1-1.3-3-1.3-3S181.1,81.9,178.4,81.8z"/>
			<path fill="#FFFFFF" d="M177.7,67.4c-2.6,0.5-4.6-0.4-5.7-1c-1.3-0.7-4.8-3-6.6-5.8c0,0,1.7,0.6,3.1,0.2c1.4-0.4,3.7-1.6,4.6-2
				c0.9-0.4,2.2-0.8,3.4-0.7c1,0,2.3,0.6,2.9,1c0.9,0.6,1.7,1.4,2.1,2.1c0.2,0.5,0.7,1.6,0.2,2.6c-0.5-0.7-1-1.3-1.9-1.9
				c-0.9-0.6-2.3-1.1-3.7-1c-1.4,0.1-3.7,0.8-4.7,1c-0.9,0.3-2.4,0.4-2.4,0.4c1.2,0.3,4.2-0.5,5.1-0.6c0.9-0.1,2.4-0.2,3.8,0.1
				c1.4,0.4,2.6,1.8,3,2.1c0.3,0.3,1.1,1.4,2,2.6c0.6-1.3,1.2-2.6,1.4-3c0.3-0.4,1.2-2.1,2.5-2.8c1.3-0.7,2.8-1,3.7-1.1
				c0.9-0.1,3.9-0.1,5.1-0.7c0,0-1.5,0.2-2.4,0.2c-0.9,0-3.4-0.1-4.7,0.2c-1.3,0.3-2.7,1.1-3.4,2c-0.7,0.8-1.1,1.5-1.5,2.3
				c-0.6-0.9-0.4-2.1-0.2-2.6c0.2-0.7,0.9-1.8,1.6-2.6c0.5-0.5,1.7-1.4,2.7-1.7c1.1-0.3,2.4-0.3,3.4-0.2c1,0.1,3.4,0.7,4.9,0.8
				c1.5,0,3-1,3-1c-1.2,3.2-4.2,6.4-5.3,7.4c-1,0.9-2.8,2.2-5.4,2.4c-2.6,0.2-3.9-1.3-3.9-1.3s-0.8,2.9-1.1,2.9
				c-0.4,0-1.8-2.6-1.8-2.6S180.3,66.9,177.7,67.4z"/>
			<path fill="#FFFFFF" d="M174.6,54.3c-2.4,0.9-4.3,0.6-5.5,0.2c-1.3-0.4-5-1.8-7.3-4.1c0,0,1.7,0.2,3-0.5c1.3-0.7,3.1-2.2,3.9-2.8
				c0.8-0.5,1.9-1.2,3-1.3c1-0.2,2.3,0.1,2.9,0.3c0.9,0.4,1.9,1,2.3,1.5c0.3,0.4,0.9,1.4,0.8,2.4c-0.6-0.6-1.2-1-2.1-1.4
				c-0.9-0.4-2.4-0.6-3.6-0.2c-1.3,0.3-3.3,1.5-4.1,1.9c-0.8,0.4-2.1,0.9-2.1,0.9c1.2,0,3.8-1.3,4.6-1.6c0.8-0.3,2.2-0.7,3.5-0.6
				c1.3,0.1,2.8,1.1,3.2,1.4c0.3,0.2,1.3,1.1,2.3,2c0.3-1.4,0.6-2.6,0.7-3.1c0.2-0.5,0.7-2.2,1.8-3.1c1.1-0.9,2.4-1.5,3.2-1.7
				c0.8-0.3,3.6-0.9,4.6-1.7c0,0-1.3,0.5-2.2,0.6c-0.9,0.2-3.2,0.6-4.4,1.1c-1.2,0.5-2.3,1.6-2.8,2.5c-0.5,0.9-0.7,1.6-0.9,2.5
				c-0.7-0.7-0.8-1.8-0.7-2.4c0-0.7,0.5-1.8,1-2.7c0.4-0.6,1.3-1.6,2.1-2.1c0.9-0.5,2.2-0.7,3.1-0.8c0.9-0.1,3.3,0,4.7-0.3
				c1.4-0.3,2.6-1.5,2.6-1.5c-0.5,3.2-2.6,6.8-3.5,7.9c-0.8,1-2.1,2.6-4.5,3.3c-2.4,0.7-3.9-0.4-3.9-0.4s-0.1,2.8-0.5,2.9
				c-0.4,0.1-2.2-2-2.2-2S176.9,53.3,174.6,54.3z"/>
			<path fill="#FFFFFF" d="M169.5,42.9c-2,1.3-3.9,1.4-5.1,1.3c-1.3-0.1-5-0.7-7.6-2.4c0,0,1.6-0.2,2.7-1c1-0.8,2.4-2.7,3.1-3.3
				c0.6-0.7,1.6-1.5,2.5-1.8c0.9-0.3,2.1-0.4,2.8-0.3c0.9,0.2,2,0.5,2.5,1c0.4,0.3,1.1,1.1,1.2,2.1c-0.7-0.4-1.3-0.7-2.3-0.9
				c-1-0.2-2.3-0.1-3.4,0.5c-1.1,0.5-2.8,2-3.5,2.6c-0.7,0.5-1.8,1.2-1.8,1.2c1.1-0.2,3.3-1.9,4-2.4c0.7-0.4,1.9-1.1,3.2-1.3
				c1.3-0.2,2.8,0.5,3.2,0.7c0.4,0.2,1.4,0.8,2.6,1.4c0-1.3,0-2.6,0.1-3c0.1-0.5,0.2-2.2,1-3.3c0.8-1,1.9-1.8,2.6-2.2
				c0.7-0.4,3.2-1.5,3.9-2.5c0,0-1.1,0.7-1.9,1c-0.8,0.3-2.8,1.2-3.8,1.9c-1,0.7-1.8,1.9-2.1,2.9c-0.3,1-0.4,1.7-0.4,2.5
				c-0.8-0.5-1.1-1.6-1.2-2.1c-0.1-0.7,0.1-1.8,0.4-2.7c0.2-0.6,0.9-1.7,1.6-2.4c0.8-0.7,1.9-1.1,2.8-1.4c0.9-0.2,3.1-0.6,4.3-1.2
				c1.2-0.5,2.1-1.9,2.1-1.9c0.2,3.1-1.1,6.9-1.7,8.1c-0.5,1.1-1.5,2.8-3.6,4c-2.1,1.1-3.7,0.4-3.7,0.4s0.4,2.7,0.2,2.8
				c-0.4,0.2-2.4-1.5-2.4-1.5S171.4,41.5,169.5,42.9z"/>
			<path fill="#FFFFFF" d="M162.7,33.4c-1.6,1.6-3.4,2-4.5,2.2c-1.2,0.2-4.8,0.3-7.5-0.7c0,0,1.5-0.5,2.3-1.5c0.8-1,1.7-3,2.2-3.7
				c0.5-0.7,1.2-1.7,2-2.2c0.7-0.5,1.9-0.8,2.5-0.8c0.9,0,1.9,0.1,2.5,0.4c0.4,0.2,1.3,0.8,1.5,1.7c-0.7-0.2-1.3-0.4-2.3-0.4
				c-0.9,0-2.1,0.4-3.1,1.1c-0.9,0.7-2.2,2.4-2.7,3.1c-0.5,0.6-1.4,1.5-1.4,1.5c1-0.4,2.7-2.5,3.2-3c0.5-0.5,1.5-1.4,2.7-1.8
				c1.1-0.4,2.7-0.1,3.1,0c0.4,0.1,1.5,0.4,2.7,0.8c-0.2-1.2-0.5-2.4-0.5-2.8c0-0.4-0.2-2.1,0.3-3.2c0.5-1.1,1.4-2.1,2-2.6
				c0.6-0.5,2.7-2,3.2-3.1c0,0-0.9,0.9-1.6,1.3c-0.7,0.5-2.4,1.6-3.2,2.5c-0.8,0.9-1.3,2.1-1.4,3.1c-0.1,1,0,1.6,0.1,2.4
				c-0.8-0.3-1.3-1.2-1.5-1.7c-0.2-0.6-0.3-1.7-0.2-2.6c0.1-0.6,0.5-1.8,1-2.5c0.6-0.8,1.5-1.4,2.3-1.8c0.7-0.4,2.7-1.2,3.7-1.9
				c1-0.7,1.6-2.2,1.6-2.2c0.8,2.9,0.3,6.6,0,7.8c-0.3,1.1-0.8,2.9-2.5,4.4c-1.7,1.5-3.4,1.1-3.4,1.1s0.9,2.4,0.7,2.6
				c-0.3,0.2-2.5-0.9-2.5-0.9S164.2,31.7,162.7,33.4z"/>
			<path fill="#FFFFFF" d="M154.8,26c-1.2,1.8-2.7,2.6-3.7,2.9c-1.1,0.4-4.4,1.3-7.1,0.8c0,0,1.3-0.7,1.8-1.8c0.5-1.1,1-3.1,1.3-3.9
				c0.3-0.8,0.7-1.8,1.4-2.4c0.6-0.6,1.6-1.1,2.2-1.2c0.8-0.2,1.8-0.3,2.4-0.1c0.4,0.1,1.3,0.5,1.7,1.3c-0.7-0.1-1.3-0.1-2.2,0.1
				c-0.9,0.2-1.9,0.8-2.6,1.7c-0.7,0.9-1.6,2.7-1.9,3.4c-0.4,0.7-1,1.7-1,1.7c0.9-0.6,2-2.8,2.4-3.4c0.4-0.6,1.2-1.6,2.1-2.2
				c1-0.6,2.5-0.6,2.9-0.6c0.4,0,1.5,0.1,2.6,0.2c-0.5-1.1-0.9-2.1-1-2.5c-0.1-0.4-0.6-1.9-0.4-3.1c0.3-1.2,0.9-2.2,1.3-2.8
				c0.4-0.6,2.1-2.4,2.3-3.5c0,0-0.7,1-1.2,1.6c-0.5,0.6-1.9,2-2.5,3c-0.5,1-0.8,2.2-0.7,3.1c0.1,0.9,0.3,1.5,0.6,2.2
				c-0.8-0.1-1.5-0.9-1.7-1.3c-0.3-0.5-0.6-1.5-0.7-2.4c0-0.6,0.1-1.8,0.4-2.5c0.4-0.8,1.2-1.6,1.8-2.2c0.6-0.5,2.3-1.7,3.1-2.5
				c0.8-0.9,1.1-2.4,1.1-2.4c1.3,2.5,1.6,6.1,1.6,7.3c0,1.1-0.2,2.9-1.5,4.6c-1.3,1.7-2.9,1.7-2.9,1.7s1.3,2,1.2,2.3
				c-0.2,0.3-2.5-0.3-2.5-0.3S155.9,24.2,154.8,26z"/>
			<path fill="#FFFFFF" d="M146.2,20.8c-0.7,1.9-2,2.9-2.9,3.5c-0.9,0.6-3.9,2-6.5,2.1c0,0,1.1-0.9,1.3-2c0.3-1.1,0.4-3.1,0.5-3.9
				c0.1-0.8,0.3-1.8,0.8-2.5c0.4-0.7,1.3-1.3,1.8-1.6c0.7-0.4,1.6-0.6,2.2-0.6c0.4,0,1.3,0.2,1.9,0.8c-0.7,0.1-1.2,0.2-2,0.5
				c-0.8,0.3-1.6,1.1-2.1,2.1c-0.5,0.9-0.9,2.8-1.1,3.5c-0.2,0.7-0.6,1.8-0.6,1.8c0.7-0.7,1.3-3,1.6-3.7c0.2-0.6,0.8-1.7,1.5-2.5
				c0.8-0.8,2.2-1.1,2.6-1.2c0.3-0.1,1.4-0.2,2.5-0.3c-0.6-0.9-1.3-1.8-1.4-2.1c-0.2-0.3-1-1.6-0.9-2.8c0-1.1,0.4-2.2,0.7-2.9
				c0.3-0.6,1.5-2.7,1.5-3.7c0,0-0.4,1.1-0.8,1.7c-0.4,0.6-1.4,2.2-1.7,3.3c-0.3,1-0.3,2.2,0,3c0.3,0.8,0.6,1.3,1,1.9
				c-0.8,0-1.5-0.5-1.9-0.9c-0.4-0.4-0.9-1.3-1.1-2.1c-0.2-0.5-0.3-1.6-0.1-2.4c0.2-0.9,0.7-1.7,1.2-2.3c0.5-0.6,1.8-2,2.4-3
				c0.6-1,0.5-2.4,0.5-2.4c1.7,2.1,2.7,5.3,2.9,6.4c0.2,1,0.4,2.7-0.5,4.6c-0.9,1.8-2.4,2.1-2.4,2.1s1.6,1.6,1.5,1.9
				c-0.2,0.3-2.4,0.2-2.4,0.2S146.9,18.9,146.2,20.8z"/>
			<g>
				<path fill="#FFFFFF" d="M136.8,8.7c-0.4-0.4-1.2-0.9-2-1.2c-0.6-0.2-1.7-0.4-2.5-0.2c-0.9,0.2-1.9,0.7-2.6,1.1
					c-0.7,0.5-2.3,1.7-3.4,2.3c-1.1,0.5-2.6,0.4-2.6,0.4c2,1.8,5.2,2.9,6.4,3.2c1,0.2,2.8,0.5,4.8-0.3c2-0.8,2.5-2.3,2.5-2.3
					s1.6,1.6,1.8,1.6c0.2,0,0.3-0.5,0.1-0.6c-1-0.8-2.1-1.7-2.4-1.9c-0.3-0.2-1.6-1-2.8-1.1c-1.2,0-2.4,0.3-3.1,0.6
					c-0.7,0.3-3,1.4-4,1.4c0,0,1.2-0.4,1.9-0.7c0.7-0.3,2.5-1.3,3.6-1.6c1.1-0.3,2.3-0.2,3.2,0.1c0.8,0.3,1.3,0.6,1.9,1.1
					C137.6,9.8,137.1,9.1,136.8,8.7z"/>
				<path fill="#FFFFFF" d="M136.6,8.7c-0.4-0.4-1.1-0.8-1.9-1l0,0c-0.5-0.2-1.6-0.4-2.5-0.2l0,0c-0.1,0-0.2,0-0.4,0.1l0,0l0,0
					c-0.9,0.2-1.8,0.8-2.2,1l0,0c-0.2,0.1-0.5,0.4-0.9,0.6l0,0c-0.6,0.4-1.3,1-2,1.4l0,0l0,0l0.1,0.1c0.7-0.4,1.4-0.9,2-1.4l0,0
					c0.3-0.2,0.6-0.5,0.8-0.6l0,0c0.4-0.3,1.3-0.8,2.2-1l0,0l0,0c0.1,0,0.2-0.1,0.4-0.1l0,0c0.8-0.1,2,0,2.4,0.2l0,0
					C135.4,8,136.1,8.4,136.6,8.7L136.6,8.7L136.6,8.7L136.6,8.7z"/>
			</g>
			<path fill="#FFFFFF" d="M109.8,171.2c2.7-1.1,7.7-2,11.8-4.1c0.4-0.3,0.6-0.4,0.6-0.4s-2.7-1.2-3.7-4.8c-1.1-3.7-0.2-6.6,0.5-8.3
				c0.7-1.9,3.6-7.3,7.3-10.2c0,0-0.6,2.5,0.2,4.5c0.8,2,2.8,5,3.5,6.3c0.7,1.3,1.5,3.1,1.5,4.7c0.1,1.5-0.5,3.4-0.9,4.3
				c-0.7,1.3-1.8,2.7-2.7,3.2c-0.7,0.4-2.2,1.2-3.7,0.8c0.9-0.9,1.6-1.7,2.4-3c0.8-1.3,1.2-3.4,0.9-5.4c-0.3-1.9-1.7-5.2-2.2-6.5
				c-0.5-1.3-1-3.3-1-3.3c-0.3,1.8,1.3,5.9,1.7,7.2c0.3,1.2,0.7,3.4,0.4,5.4c-0.3,2-2.1,4-2.6,4.5c-0.4,0.5-1.9,1.8-3.4,3.2
				c2,0.7,3.9,1.3,4.5,1.6c0.7,0.3,3.2,1.4,4.4,3.1c1.2,1.7,1.8,3.8,2.1,5.1c0.3,1.3,0.7,5.6,1.8,7.1c0,0-0.5-2.1-0.6-3.4
				c-0.1-1.3-0.4-4.9-1-6.7c-0.6-1.9-2-3.6-3.3-4.5c-1.3-0.9-2.3-1.4-3.6-1.8c1.2-1,2.9-0.9,3.7-0.7c1.1,0.2,2.7,1,3.9,1.9
				c0.8,0.6,2.2,2.2,2.8,3.5c0.6,1.5,0.8,3.4,0.7,4.8c-0.1,1.4-0.5,4.9-0.3,7c0.2,2.1,1.9,4.2,1.9,4.2c-4.8-1.3-9.8-5-11.3-6.5
				c-1.4-1.3-3.5-3.6-4.3-7.3c-0.7-3.7,1.2-5.8,1.2-5.8s-1.4-0.3-2.4-0.3c-5-0.1-9.1,0.9-12.6,2.8c-5,2.7-8.4,10.4-12.5,12.4
				c-3.8,1.8-12.1,1.3-12.1,1.3C90.1,185.1,101.9,174.4,109.8,171.2z"/>
		</g>
	</g>
</g>
<g>
	<path fill="#FFFFFF" d="M83.8,54.7c1.8,1.2,3.3,3.4,4,5.3c0.1-0.1,0.2-0.2,0.3-0.3c0.3-0.3,0.7-0.6,1.1-0.8c-0.2-1.8-1.8-4.8-4-6.3
		c-0.8-0.6-1.9-1.1-3.1-0.9c-0.6,0.3-1.1,0.6-1.5,1c-0.3,0.3-0.5,0.6-0.7,1C81.2,53.5,82.5,53.8,83.8,54.7z"/>
	<path fill="#FFFFFF" d="M149.6,88.3l-33.8-33.8c-1.2-1.2-3.6-2.3-5.3-2.3l-24.8-1.3c-0.5,0-1,0-1.5,0.1c0.5,0.2,1,0.5,1.5,0.8
		c2.2,1.6,4.1,4.5,4.4,6.7c1.4-0.4,3,0,4.1,1.1c1.7,1.7,1.7,4.5,0,6.2c-1.7,1.7-4.5,1.7-6.2,0c-1.3-1.3-1.6-3.2-1-4.7
		c-0.4-1.8-2-4.2-3.9-5.6c-1-0.7-2.4-1.3-3.8-0.8c-0.4,1-0.6,2-0.5,2.9l1.3,24.7c0.1,1.7,1.1,4.1,2.4,5.3l33.8,33.8
		c1.2,1.2,3.2,1.2,4.4,0l28.8-28.8C150.8,91.5,150.8,89.5,149.6,88.3z M107.1,70.6c5-5,8.5-5.1,11.9-1.7c3.4,3.4,3.4,6.9-1.6,12
		c-5,5-8.6,5-12,1.6C102,79.2,102.1,75.6,107.1,70.6z M125.3,104.6c-5,5-8.5,5.1-11.9,1.6c-3.4-3.4-3.4-6.9,1.7-11.9
		c5-5,8.5-5.1,11.9-1.7C130.4,96,130.3,99.6,125.3,104.6z M102.4,94.9l-3-3l30.5-11.7l3,3L102.4,94.9z"/>
	<path fill="#FFFFFF" d="M117.8,97.2c-3.2,3.2-3.6,5-2,6.6c1.6,1.6,3.4,1.3,6.6-2c3.3-3.3,3.6-5,2-6.7C122.7,93.6,121,94,117.8,97.2
		z"/>
	<path fill="#FFFFFF" d="M114.4,78.1c3.3-3.3,3.7-4.9,2-6.6c-1.6-1.6-3.3-1.2-6.6,2c-3.2,3.2-3.7,4.9-2,6.6
		C109.5,81.8,111.2,81.4,114.4,78.1z"/>
	<path fill="#FFFFFF" d="M81.1,51.2c-0.4-0.9-0.2-2.1,0.3-4.2c0.8-3.1,1.9-7.3-2.9-10.3c-4.9-3.1-11.3-2.2-15.1,2
		C59,43.5,57.8,53,67.4,65.4c11.3,14.7,5.3,22.4-0.5,29.8c-2.4,3.1-4.7,6-5.5,9.2c-1.6,6-0.6,11.8,2.8,15.6
		c1.8,2.1,5.1,4.4,10.6,4.4c1,0,2.1-0.1,3.3-0.2c6.2-0.9,10.6-4.8,11.9-10.8c1.2-5.4-0.4-11.1-3.7-13.3c-0.4-0.3-1.1-0.2-1.4,0.3
		c-0.3,0.4-0.2,1.1,0.3,1.4c2.7,1.8,3.9,6.7,2.9,11.3c-1.2,5.2-4.9,8.6-10.3,9.3c-5.3,0.8-9.5-0.4-12.2-3.5
		c-2.9-3.3-3.8-8.5-2.3-13.8c0.8-2.9,2.9-5.6,5.2-8.6c5.7-7.3,12.7-16.3,0.5-32.2c-8.8-11.4-8-20-4.2-24.2c3.2-3.5,8.5-4.2,12.6-1.7
		c3.6,2.2,2.9,5.1,2.1,8.1c-0.5,2-1.1,4.3,0.1,6c0.1-0.2,0.3-0.4,0.4-0.5C80.3,51.7,80.7,51.4,81.1,51.2z"/>
</g>
</svg>
