<?xml version="1.0" encoding="utf-8"?>
<!-- Generator: Adobe Illustrator 19.1.0, SVG Export Plug-In . SVG Version: 6.00 Build 0)  -->
<svg version="1.2" baseProfile="tiny" id="Layer_1" xmlns="http://www.w3.org/2000/svg" xmlns:xlink="http://www.w3.org/1999/xlink"
	 x="0px" y="0px" viewBox="0 0 204.3 192.2" xml:space="preserve">
<g>
	<path fill="#FFFFFF" d="M83.8,54.7c1.8,1.2,3.3,3.4,4,5.3c0.1-0.1,0.2-0.2,0.3-0.3c0.3-0.3,0.7-0.6,1.1-0.8c-0.2-1.8-1.8-4.8-4-6.3
		c-0.8-0.6-1.9-1.1-3.1-0.9c-0.6,0.3-1.1,0.6-1.5,1c-0.3,0.3-0.5,0.6-0.7,1C81.2,53.5,82.5,53.8,83.8,54.7z"/>
	<path fill="#FFFFFF" d="M149.6,88.3l-33.8-33.8c-1.2-1.2-3.6-2.3-5.3-2.3l-24.8-1.3c-0.5,0-1,0-1.5,0.1c0.5,0.2,1,0.5,1.5,0.8
		c2.2,1.6,4.1,4.5,4.4,6.7c1.4-0.4,3,0,4.1,1.1c1.7,1.7,1.7,4.5,0,6.2c-1.7,1.7-4.5,1.7-6.2,0c-1.3-1.3-1.6-3.2-1-4.7
		c-0.4-1.8-2-4.2-3.9-5.6c-1-0.7-2.4-1.3-3.8-0.8c-0.4,1-0.6,2-0.5,2.9l1.3,24.7c0.1,1.7,1.1,4.1,2.4,5.3l33.8,33.8
		c1.2,1.2,3.2,1.2,4.4,0l28.8-28.8C150.8,91.5,150.8,89.5,149.6,88.3z M107.1,70.6c5-5,8.5-5.1,11.9-1.7c3.4,3.4,3.4,6.9-1.6,12
		c-5,5-8.6,5-12,1.6C102,79.2,102.1,75.6,107.1,70.6z M125.3,104.6c-5,5-8.5,5.1-11.9,1.6c-3.4-3.4-3.4-6.9,1.7-11.9
		c5-5,8.5-5.1,11.9-1.7C130.4,96,130.3,99.6,125.3,104.6z M102.4,94.9l-3-3l30.5-11.7l3,3L102.4,94.9z"/>
	<path fill="#FFFFFF" d="M117.8,97.2c-3.2,3.2-3.6,5-2,6.6c1.6,1.6,3.4,1.3,6.6-2c3.3-3.3,3.6-5,2-6.7C122.7,93.6,121,94,117.8,97.2
		z"/>
	<path fill="#FFFFFF" d="M114.4,78.1c3.3-3.3,3.7-4.9,2-6.6c-1.6-1.6-3.3-1.2-6.6,2c-3.2,3.2-3.7,4.9-2,6.6
		C109.5,81.8,111.2,81.4,114.4,78.1z"/>
	<path fill="#FFFFFF" d="M81.1,51.2c-0.4-0.9-0.2-2.1,0.3-4.2c0.8-3.1,1.9-7.3-2.9-10.3c-4.9-3.1-11.3-2.2-15.1,2
		C59,43.5,57.8,53,67.4,65.4c11.3,14.7,5.3,22.4-0.5,29.8c-2.4,3.1-4.7,6-5.5,9.2c-1.6,6-0.6,11.8,2.8,15.6
		c1.8,2.1,5.1,4.4,10.6,4.4c1,0,2.1-0.1,3.3-0.2c6.2-0.9,10.6-4.8,11.9-10.8c1.2-5.4-0.4-11.1-3.7-13.3c-0.4-0.3-1.1-0.2-1.4,0.3
		c-0.3,0.4-0.2,1.1,0.3,1.4c2.7,1.8,3.9,6.7,2.9,11.3c-1.2,5.2-4.9,8.6-10.3,9.3c-5.3,0.8-9.5-0.4-12.2-3.5
		c-2.9-3.3-3.8-8.5-2.3-13.8c0.8-2.9,2.9-5.6,5.2-8.6c5.7-7.3,12.7-16.3,0.5-32.2c-8.8-11.4-8-20-4.2-24.2c3.2-3.5,8.5-4.2,12.6-1.7
		c3.6,2.2,2.9,5.1,2.1,8.1c-0.5,2-1.1,4.3,0.1,6c0.1-0.2,0.3-0.4,0.4-0.5C80.3,51.7,80.7,51.4,81.1,51.2z"/>
</g>
</svg>
