<?xml version="1.0" encoding="utf-8"?>
<!-- Generator: Adobe Illustrator 19.1.0, SVG Export Plug-In . SVG Version: 6.00 Build 0)  -->
<svg version="1.2" baseProfile="tiny" id="Layer_1" xmlns="http://www.w3.org/2000/svg" xmlns:xlink="http://www.w3.org/1999/xlink"
	 x="0px" y="0px" viewBox="0 0 204.3 192.2" xml:space="preserve">
<g>
	<path fill="#FFFFFF" d="M192.5,67.5L192.5,67.5L192.5,67.5L192.5,67.5z M178,72.2l14.5-4.6c5.9,18.7,6.2,38.4,0.2,57l-14.3-4.5
		c-1.4,4.3-3.1,8.6-5.2,12.6l13.4,6.9c-9.1,17.4-23,31.4-40.4,40.4l-6.9-13.4c-4,2.1-8.2,3.8-12.7,5.2l4.5,14.1l0,0
		c-18.7,5.9-38.4,6-57,0.1l4.5-14.2c-4.3-1.4-8.6-3.1-12.6-5.2l-6.9,13.4c-17.4-9.1-31.4-23-40.4-40.4l13.4-6.9
		c-2.1-4-3.7-8.3-5.1-12.8L13,124.3v0c-6-18.7-6.3-38.3-0.4-56.9l14.1,4.6c1.4-4.3,3.1-8.6,5.2-12.6l-13.4-6.9
		c9-17.4,23-31.4,40.4-40.4l6.9,13.4c4-2.1,8.2-3.8,12.7-5.2L74,6l0.1,0l0-0.1c18.8-5.9,38.3-5.9,57-0.1L126.5,20
		c4.4,1.4,8.6,3.1,12.6,5.2l6.9-13.4c17.4,9,31.3,23,40.4,40.4l-13.4,7C175,63.3,176.9,67.6,178,72.2C178,72.2,178,72.2,178,72.2z
		 M171.5,74.1c-12-38.1-52.7-59.3-90.8-47.2c-38.1,12-59.3,52.7-47.2,90.8c12,38.1,52.7,59.3,90.8,47.2
		C162.4,152.9,183.6,112.3,171.5,74.1z M38,115h11V72h4v43h3v-5h6l0.9-31H62v-6h1l0.4-14H62v-5h1.5l0.1-4h6.5l0.1,4H71v5h-0.7
		l0.4,14H72v6h-1.2l0.9,31h3.6l0.9-31H75v-6h1.4l0.4-14H75v-5h1.9l0.1-4h6.5l0.1,4H85v5h-1.4L84,73h2v6h-1.8l0.3,10H92v-1.6
		c0-3,2.1-5.4,5.1-5.4c1.2,0,1.9,0.4,2.9,1.1v-5c0-3.8,3.2-7,7-7c3.5,0,6.5,2.9,6.9,5.9h7.8c0.4-4,0.7-10,0.7-16c2.3,0,4,0,5.3,0
		c0,0,0,0,0,0c2.8,0,3.3,0,3.4,0c0,0,0,0,0,0c1.3,0,3,0,5.3,0c0,6,0.3,12,0.7,16h14.7h1.3h2.9v38h11c-8,28-33.9,48.6-64.5,48.6
		C71.9,163.6,46,143,38,115z M151,92h-11.7c1.4,8,2.9,14,3.9,18h5.8v5h2V92z M137.5,80c0.3,4,0.7,7,1.2,9H151v-9H137.5z M114,89h6.2
		c0.4-2,0.8-5,1.2-9H114V89z M114,110h1.8c1-4,2.5-10,3.9-18H114V110z M84.6,92l0.5,18h7V92H84.6z"/>
</g>
</svg>
