<?xml version="1.0" encoding="utf-8"?>
<!-- Generator: Adobe Illustrator 19.1.0, SVG Export Plug-In . SVG Version: 6.00 Build 0)  -->
<svg version="1.2" baseProfile="tiny" id="Layer_1" xmlns="http://www.w3.org/2000/svg" xmlns:xlink="http://www.w3.org/1999/xlink"
	 x="0px" y="0px" viewBox="0 0 204.3 192.2" xml:space="preserve">
<path fill="#FFFFFF" d="M192.5,67.5L192.5,67.5L192.5,67.5L192.5,67.5z M178,72.2l14.5-4.6c5.9,18.7,6.2,38.4,0.2,57l-14.3-4.5
	c-1.4,4.3-3.1,8.6-5.2,12.6l13.4,6.9c-9.1,17.4-23,31.4-40.4,40.4l-6.9-13.4c-4,2.1-8.2,3.8-12.7,5.2l4.5,14.1l0,0
	c-18.7,5.9-38.4,6-57,0.1l4.5-14.2c-4.3-1.4-8.6-3.1-12.6-5.2l-6.9,13.4c-17.4-9.1-31.4-23-40.4-40.4l13.4-6.9
	c-2.1-4-3.7-8.3-5.1-12.8L13,124.3v0c-6-18.7-6.3-38.3-0.4-56.9l14.1,4.6c1.4-4.3,3.1-8.6,5.2-12.6l-13.4-6.9
	c9-17.4,23-31.4,40.4-40.4l6.9,13.4c4-2.1,8.2-3.8,12.7-5.2L74,6l0.1,0l0-0.1c18.8-5.9,38.3-5.9,57-0.1L126.5,20
	c4.4,1.4,8.6,3.1,12.6,5.2l6.9-13.4c17.4,9,31.3,23,40.4,40.4l-13.4,7C175,63.3,176.9,67.6,178,72.2C178,72.2,178,72.2,178,72.2z
	 M171.5,74.1c-12-38.1-52.7-59.3-90.8-47.2c-38.1,12-59.3,52.7-47.2,90.8c12,38.1,52.7,59.3,90.8,47.2
	C162.4,152.9,183.6,112.3,171.5,74.1z"/>
</svg>
