<?xml version="1.0" encoding="utf-8"?>
<!-- Generator: Adobe Illustrator 19.1.0, SVG Export Plug-In . SVG Version: 6.00 Build 0)  -->
<svg version="1.2" baseProfile="tiny" id="Layer_1" xmlns="http://www.w3.org/2000/svg" xmlns:xlink="http://www.w3.org/1999/xlink"
	 x="0px" y="0px" viewBox="0 0 204.3 192.2" xml:space="preserve">
<g>
	<polygon fill="#FFFFFF" points="201.3,117.7 3.5,117.7 18.8,96.7 3.5,75.7 201.3,75.7 186,96.7 	"/>
	<polygon fill="#F1F1F2" points="172.4,102.8 179.3,96.7 172.4,90.6 178.1,83.3 170.3,78.5 174.6,70.4 166.1,67 169,58.3 160,56.4 
		161.3,47.3 152.1,47 151.8,37.8 142.7,39.1 140.8,30.1 132.1,33 128.7,24.5 120.6,28.8 115.7,21 108.5,26.7 102.4,19.8 96.3,26.7 
		89.1,21 84.2,28.8 76.1,24.5 72.7,33 64,30.1 62.1,39.1 53,37.8 52.7,47 43.5,47.3 44.8,56.4 35.8,58.3 38.7,67 30.2,70.4 
		34.5,78.5 26.7,83.3 32.4,90.6 25.5,96.7 32.4,102.8 26.7,110 34.5,114.9 30.2,123 38.7,126.4 35.8,135.1 44.8,137 43.5,146.1 
		52.7,146.4 53,155.6 62.1,154.3 64,163.2 72.7,160.4 76.1,168.9 84.2,164.6 89.1,172.4 96.3,166.7 102.4,173.5 108.5,166.7 
		115.7,172.4 120.6,164.6 128.7,168.9 132.1,160.4 140.8,163.2 142.7,154.3 151.8,155.6 152.1,146.4 161.3,146.1 160,137 169,135.1 
		166.1,126.4 174.6,123 170.3,114.9 178.1,110 	"/>
	<polygon fill="#FFFFFF" points="42,57 35.8,58.3 38.7,67 30.2,70.4 34.5,78.5 26.7,83.3 32.4,90.6 25.5,96.7 32.4,102.8 26.7,110 
		34.5,114.9 30.2,123 38.7,126.4 35.8,135.1 44.8,137 43.5,146.1 52.7,146.4 53,155.6 62.1,154.3 64,163.2 72.7,160.4 76.1,168.9 
		84.2,164.6 89.1,172.4 96.3,166.7 102.4,173.5 108.5,166.7 115.7,172.4 120.6,164.6 128.7,168.9 132.1,160.4 140.8,163.2 
		142.1,157 	"/>
	<circle fill="#D0D1D3" cx="102.4" cy="96.7" r="53.9"/>
	<g>
		<path fill="#FFFFFF" d="M85.4,69.4c0,0,0.4-1.7-1-3.1c-1.4-1.5-3.1-1.5-3.1-1.5s-0.4,2,0.9,3.4C83.5,69.6,85.4,69.4,85.4,69.4
			L85.4,69.4z M85.4,69.4"/>
		<path fill="#FFFFFF" d="M88.4,69.1c0,0,1.6-0.9,1.9-2.8c0.3-1.9-1.2-3.3-1.2-3.3s-1.4,1-1.7,3C87.1,68,88.4,69.1,88.4,69.1
			L88.4,69.1z M88.4,69.1"/>
		<path fill="#FFFFFF" d="M90.9,74c0,0,1.5-1.1,1.5-3.1c0-2-1.6-3.1-1.6-3.1S89.5,69,89.5,71C89.5,73,90.9,74,90.9,74L90.9,74z
			 M90.9,74"/>
		<path fill="#FFFFFF" d="M95.8,73.6c-0.1-2-1.9-2.9-1.9-2.9s-1.2,1.3-1,3.3c0.1,2,1.7,2.8,1.7,2.8S95.9,75.6,95.8,73.6L95.8,73.6z
			 M95.8,73.6"/>
		<path fill="#FFFFFF" d="M99.2,79.2c0,0,1-1.6,0.3-3.4c-0.7-1.8-2.7-2.3-2.7-2.3s-0.7,1.6,0,3.5C97.5,78.9,99.2,79.2,99.2,79.2
			L99.2,79.2z M99.2,79.2"/>
		<path fill="#FFFFFF" d="M86,65.1c0,0,1.3-1.2,0.9-3.1c-0.4-2-1.8-3-1.8-3s-1.5,1.4-1.1,3.3C84.4,64.3,86,65.1,86,65.1L86,65.1z
			 M86,65.1"/>
		<path fill="#FFFFFF" d="M87,73.2c0,0-0.1-1.7-1.9-2.7c-1.8-1-3.4-0.5-3.4-0.5s0.2,2,1.9,3C85.4,73.9,87,73.2,87,73.2L87,73.2z
			 M87,73.2"/>
		<path fill="#FFFFFF" d="M90,76.5c0,0-0.5-1.7-2.4-2.2c-1.9-0.6-3.4,0.3-3.4,0.3s0.6,1.9,2.5,2.5C88.5,77.6,90,76.5,90,76.5
			L90,76.5z M90,76.5"/>
		<path fill="#FFFFFF" d="M93.3,78.9c0,0-1-1.4-3-1.4c-2,0.1-3.2,1.3-3.2,1.3s1.2,1.6,3.1,1.6C92.2,80.4,93.3,78.9,93.3,78.9
			L93.3,78.9z M93.3,78.9"/>
		<path fill="#FFFFFF" d="M94.7,79.9c-2,0.3-3,1.7-3,1.7s1.3,1.5,3.3,1.2c1.9-0.3,2.8-1.9,2.8-1.9S96.7,79.6,94.7,79.9L94.7,79.9z
			 M94.7,79.9"/>
		<path fill="#FFFFFF" d="M86.7,66.1l-1,0c0,0.1-0.2,10.5,15.4,15.2l0.3-0.9C86.5,75.9,86.7,66.5,86.7,66.1L86.7,66.1z M86.7,66.1"
			/>
		<path fill="#FFFFFF" d="M119.4,69.4c0,0,1.8,0.2,3.2-1.2c1.4-1.4,0.9-3.4,0.9-3.4s-1.8,0-3.1,1.5C119,67.8,119.4,69.4,119.4,69.4
			L119.4,69.4z M119.4,69.4"/>
		<path fill="#FFFFFF" d="M114.4,66.3c0.3,1.9,1.9,2.8,1.9,2.8s1.3-1.1,1-3.1c-0.3-2-1.7-3-1.7-3S114.1,64.4,114.4,66.3L114.4,66.3z
			 M114.4,66.3"/>
		<path fill="#FFFFFF" d="M114,67.8c0,0-1.7,1.2-1.6,3.1c0,2,1.5,3,1.5,3s1.4-1,1.4-3C115.3,69,114,67.8,114,67.8L114,67.8z
			 M114,67.8"/>
		<path fill="#FFFFFF" d="M109,73.7c-0.1,2,1.2,3.2,1.2,3.2s1.5-0.8,1.7-2.8c0.1-2-1-3.3-1-3.3S109.1,71.7,109,73.7L109,73.7z
			 M109,73.7"/>
		<path fill="#FFFFFF" d="M105.4,75.9c-0.7,1.8,0.3,3.4,0.3,3.4s1.7-0.3,2.4-2.2c0.7-1.9,0-3.5,0-3.5S106.1,74,105.4,75.9
			L105.4,75.9z M105.4,75.9"/>
		<path fill="#FFFFFF" d="M118.7,65.1c0,0,1.6-0.8,2-2.8c0.3-1.9-1.1-3.3-1.1-3.3s-1.4,1-1.8,3C117.5,64,118.7,65.1,118.7,65.1
			L118.7,65.1z M118.7,65.1"/>
		<path fill="#FFFFFF" d="M119.6,70.5c-1.8,1-1.8,2.7-1.8,2.7s1.7,0.7,3.4-0.2c1.7-0.9,1.9-3,1.9-3S121.4,69.6,119.6,70.5
			L119.6,70.5z M119.6,70.5"/>
		<path fill="#FFFFFF" d="M117.2,74.4c-1.9,0.6-2.4,2.2-2.4,2.2s1.5,1.1,3.4,0.6c1.9-0.5,2.5-2.5,2.5-2.5S119.1,73.8,117.2,74.4
			L117.2,74.4z M117.2,74.4"/>
		<path fill="#FFFFFF" d="M114.4,77.6c-2-0.1-3,1.4-3,1.4s1.1,1.5,3,1.5c2,0.1,3.1-1.6,3.1-1.6S116.4,77.6,114.4,77.6L114.4,77.6z
			 M114.4,77.6"/>
		<path fill="#FFFFFF" d="M110.1,79.9c-2-0.3-3.1,1-3.1,1s0.9,1.6,2.8,1.9c1.9,0.3,3.3-1.2,3.3-1.2S112,80.2,110.1,79.9L110.1,79.9z
			 M110.1,79.9"/>
		<path fill="#FFFFFF" d="M119.1,66.1l-1,0c0,0.4,0.2,9.8-14.8,14.2l0.3,0.9C119.3,76.6,119.1,66.2,119.1,66.1L119.1,66.1z
			 M119.1,66.1"/>
		<path fill="#FFFFFF" d="M109.9,70.3l-1.1-8.9l5.9-6l-8.5-1.1l-3.9-7.5v0l-3.9,7.5L90,55.3l5.9,6l-1.1,8.9l7.5-4.1v0L109.9,70.3z
			 M109.9,70.3"/>
	</g>
	<path fill="#E6E6E7" d="M55.4,70.3c-4.4,7.8-6.9,16.8-6.9,26.4c0,29.8,24.1,53.9,53.9,53.9c9.6,0,18.6-2.5,26.4-6.9L55.4,70.3z"/>
</g>
</svg>
