<?xml version="1.0" encoding="utf-8"?>
<!-- Generator: Adobe Illustrator 19.1.0, SVG Export Plug-In . SVG Version: 6.00 Build 0)  -->
<svg version="1.2" baseProfile="tiny" id="Layer_1" xmlns="http://www.w3.org/2000/svg" xmlns:xlink="http://www.w3.org/1999/xlink"
	 x="0px" y="0px" viewBox="0 0 664 133.3" xml:space="preserve">
<g>
	<path fill="none" d="M224.1,138.6c0-59.7,48.4-108.1,108.1-108.1s108.1,48.4,108.1,108.1"/>
	<text transform="matrix(0.9903 -0.1386 0.1386 0.9903 310.9059 32.3831)" fill="#FFFFFF" font-family="'Impact'" font-size="30px">Е</text>
	
		<text transform="matrix(0.9999 -1.620543e-02 1.620543e-02 0.9999 322.6027 30.6126)" fill="#FFFFFF" font-family="'Impact'" font-size="30px">В</text>
	<text transform="matrix(0.992 0.1261 -0.1261 0.992 338.4069 30.3787)" fill="#FFFFFF" font-family="'Impact'" font-size="30px">А</text>
	<g>
		
			<rect x="327.2" y="44.6" transform="matrix(0.7071 0.7071 -0.7071 0.7071 132.2982 -220.3627)" fill="#FFFFFF" width="9.9" height="9.9"/>
		<g>
			<polygon fill="#FFFFFF" points="346.2,47 448,49.5 346.2,52 			"/>
			<polygon fill="#FFFFFF" points="318.1,52 216.3,49.5 318.1,47 			"/>
		</g>
	</g>
	<g>
		<text transform="matrix(1 0 0 1 199.3934 119.4535)" fill="#FFFFFF" font-family="'Impact'" font-size="15.5187px">САМЫЕ ГОРЯЧИЕ ВОПРОСЫ ЭТОГО СЕЗОНА</text>
		<g>
			<g>
				<g>
					<path fill="#FFFFFF" d="M174.9,126.5l-13.2-13.2l13.2-13.2l13.2,13.2L174.9,126.5z M164.5,113.3l10.4,10.5l10.4-10.5
						l-10.4-10.5L164.5,113.3z"/>
				</g>
				<text transform="matrix(0.9965 0 0 1 169.791 117.0714)" fill="#FFFFFF" font-family="'Impact'" font-size="9.9013px">20</text>
			</g>
			<g>
				<g>
					<path fill="#FFFFFF" d="M488.4,126.4l-13.2-13.2l13.2-13.2l13.2,13.2L488.4,126.4z M478,113.1l10.4,10.5l10.4-10.5l-10.4-10.5
						L478,113.1z"/>
				</g>
				<text transform="matrix(0.9965 0 0 1 483.8548 116.8854)" fill="#FFFFFF" font-family="'Impact'" font-size="9.9013px">15</text>
			</g>
		</g>
	</g>
</g>
</svg>
