<?xml version="1.0" encoding="utf-8"?>
<!-- Generator: Adobe Illustrator 19.1.0, SVG Export Plug-In . SVG Version: 6.00 Build 0)  -->
<svg version="1.2" baseProfile="tiny" id="Layer_1" xmlns="http://www.w3.org/2000/svg" xmlns:xlink="http://www.w3.org/1999/xlink"
	 x="0px" y="0px" viewBox="0 0 204.3 192.2" xml:space="preserve">
<g>
	<g>
		<g>
			<polygon fill="#FFFFFF" points="159.2,158.1 159.4,190.6 176.2,190.2 169.9,174.2 176,157.7 			"/>
		</g>
		<g>
			<polygon fill="#FFFFFF" points="47.2,156.4 47.4,190.3 30.6,190.8 37,174.6 30.4,156.8 			"/>
		</g>
		<polygon fill="#FFFFFF" points="47.3,181.2 47.4,190.3 41.6,181.9 		"/>
		<polygon fill="#FFFFFF" points="159.3,181.4 159.4,190.6 165,181.9 		"/>
		<g>
			<path fill="#FFFFFF" d="M41.9,182.1l-0.2-41.6l123.2-0.1l0.1,33l0.1,8.6L41.9,182.1z"/>
		</g>
	</g>
	<text transform="matrix(1 0 0 1 110.6377 161.4385)" font-family="'MyriadPro-Cond'" font-size="15px">N</text>
	<text transform="matrix(1 0 0 1 118.3628 161.4385)" font-family="'MyriadPro-Cond'" font-size="15px">A</text>
	<text transform="matrix(1 0 0 1 124.7378 161.4385)" font-family="'MyriadPro-Cond'" font-size="15px">T</text>
	<text transform="matrix(1 0 0 1 130.7974 161.4385)" font-family="'MyriadPro-Cond'" font-size="15px">U</text>
	<text transform="matrix(1 0 0 1 138.4024 161.4385)" font-family="'MyriadPro-Cond'" font-size="15px">R</text>
	<text transform="matrix(1 0 0 1 145.377 161.4385)" font-family="'MyriadPro-Cond'" font-size="15px">A</text>
	<text transform="matrix(1 0 0 1 152.6524 161.4385)" font-family="'MyriadPro-Cond'" font-size="15px">L</text>
	<text transform="matrix(1 0 0 1 110.2857 172.7529)" font-family="'MyriadPro-Cond'" font-size="15px">P</text>
	<text transform="matrix(1 0 0 1 117.0205 172.7529)" font-family="'MyriadPro-Cond'" font-size="15px">R</text>
	<text transform="matrix(1 0 0 1 123.9053 172.7529)" font-family="'MyriadPro-Cond'" font-size="15px">O</text>
	<text transform="matrix(1 0 0 1 131.3452 172.7529)" font-family="'MyriadPro-Cond'" font-size="15px">D</text>
	<text transform="matrix(1 0 0 1 138.7705 172.7529)" font-family="'MyriadPro-Cond'" font-size="15px">U</text>
	<text transform="matrix(1 0 0 1 146.375 172.7529)" font-family="'MyriadPro-Cond'" font-size="15px">C</text>
	<text transform="matrix(1 0 0 1 152.8545 172.7529)" font-family="'MyriadPro-Cond'" font-size="15px">T</text>
	<text transform="matrix(1 0 0 1 48.4429 171.1543)" font-family="'BernardMT-Condensed'" font-size="23.0338px">1</text>
	<text transform="matrix(1 0 0 1 56.5049 171.1543)" font-family="'BernardMT-Condensed'" font-size="23.0338px">0</text>
	<text transform="matrix(1 0 0 1 67.2095 171.1543)" font-family="'BernardMT-Condensed'" font-size="23.0338px">0</text>
	<text transform="matrix(1 0 0 1 77.9146 171.1543)" font-family="'BernardMT-Condensed'" font-size="23.0338px">%</text>
</g>
</svg>
