<?xml version="1.0" encoding="utf-8"?>
<!-- Generator: Adobe Illustrator 19.1.0, SVG Export Plug-In . SVG Version: 6.00 Build 0)  -->
<svg version="1.1" id="Layer_1" xmlns="http://www.w3.org/2000/svg" xmlns:xlink="http://www.w3.org/1999/xlink" x="0px" y="0px"
	 viewBox="96 102.8 1191.2 797.2" style="enable-background:new 96 102.8 1191.2 797.2;" xml:space="preserve">
<style type="text/css">
	.st0{fill:#8E8E8E;}
	.st1{fill:#E6E6E7;}
</style>
<path class="st0" d="M804.7,566.6h-226c-10.9,0-19.7,8.8-19.7,19.7v230.9c0,10.9,8.8,19.7,19.7,19.7h226c10.9,0,19.7-8.8,19.7-19.7
	V586.4C824.4,575.5,815.6,566.6,804.7,566.6z M695.2,664.1l-57.8,75.2c-0.6,0.8-1.5,1.2-2.4,1.2c-1,0-1.9-0.4-2.4-1.2l-57.8-75.2
	c-0.4-0.6-0.6-1.2-0.6-1.9c0-0.6,0.2-1.3,0.6-1.8c0.8-1.1,2.3-1.5,3.6-1l38.3,15.1v-88.6c0-1.7,1.4-3.1,3.1-3.1h30.7
	c1.7,0,3.1,1.4,3.1,3.1v88.6l38.3-15.1c1.3-0.5,2.7-0.1,3.6,1C696.1,661.5,696.1,663,695.2,664.1z M841.7,513.1h-300
	c-19.6,0-35.4,15.9-35.4,35.4V855c0,19.6,15.9,35.4,35.4,35.4h300c19.6,0,35.4-15.9,35.4-35.4V548.6
	C877.1,529,861.2,513.1,841.7,513.1z M838.4,817.3c0,18.6-15.1,33.7-33.7,33.7h-226c-18.6,0-33.7-15.1-33.7-33.7V586.4
	c0-18.6,15.1-33.7,33.7-33.7h226c18.6,0,33.7,15.1,33.7,33.7V817.3z"/>
<path class="st1" d="M1194.8,566.4H969.3c-10.9,0-19.7,8.8-19.7,19.7v230.4c0,10.9,8.8,19.7,19.7,19.7h225.6
	c10.8,0,19.7-8.8,19.7-19.7V586.1C1214.5,575.2,1205.7,566.4,1194.8,566.4z M1129.4,655.3l-75,57.7c-0.6,0.4-1.2,0.6-1.9,0.6
	c-0.6,0-1.3-0.2-1.8-0.6c-1.1-0.8-1.5-2.3-1-3.6l15.1-38.2h-88.4c-1.7,0-3.1-1.4-3.1-3.1v-30.6c0-1.7,1.4-3.1,3.1-3.1h88.4
	l-15.1-38.2c-0.5-1.3-0.1-2.7,1-3.6c1.1-0.8,2.6-0.8,3.7,0l75,57.7c0.8,0.6,1.2,1.5,1.2,2.4C1130.6,653.8,1130.2,654.7,1129.4,655.3
	z M1231.7,513H932.3c-19.5,0-35.4,15.8-35.4,35.4v305.8c0,19.5,15.8,35.4,35.4,35.4h299.4c19.5,0,35.4-15.8,35.4-35.4V548.4
	C1267.1,528.8,1251.2,513,1231.7,513z M1228.4,816.5c0,18.5-15.1,33.6-33.6,33.6H969.3c-18.5,0-33.6-15.1-33.6-33.6V586.1
	c0-18.5,15.1-33.6,33.6-33.6h225.6c18.5,0,33.6,15.1,33.6,33.6L1228.4,816.5L1228.4,816.5z"/>
<g>
	<path class="st0" d="M806.8,169.1h-226c-10.9,0-19.7,8.8-19.7,19.7v231c0,10.9,8.8,19.7,19.7,19.7h226c10.9,0,19.7-8.8,19.7-19.7
		v-231C826.5,178,817.7,169.1,806.8,169.1z M704.3,264c-0.8,1.1-2.3,1.5-3.6,1l-38.3-15.1v88.6c0,1.7-1.4,3.1-3.1,3.1h-30.7
		c-1.7,0-3.1-1.4-3.1-3.1v-88.6L587.2,265c-1.3,0.5-2.7,0.1-3.6-1c-0.8-1.1-0.8-2.6,0-3.7l57.8-75.2c0.6-0.8,1.5-1.2,2.4-1.2
		c1,0,1.9,0.4,2.4,1.2l57.8,75.2c0.4,0.6,0.6,1.2,0.6,1.9C704.9,262.8,704.7,263.5,704.3,264z M843.8,115.6h-300
		c-19.6,0-35.4,15.9-35.4,35.4v306.5c0,19.6,15.9,35.4,35.4,35.4h300c19.6,0,35.4-15.9,35.4-35.4V151.1
		C879.2,131.5,863.4,115.6,843.8,115.6z M840.5,419.8c0,18.6-15.1,33.7-33.7,33.7h-226c-18.6,0-33.7-15.1-33.7-33.7v-231
		c0-18.6,15.1-33.7,33.7-33.7h226c18.6,0,33.7,15.1,33.7,33.7V419.8z"/>
</g>
<path class="st0" d="M413.7,566.5h-226c-10.9,0-19.7,8.8-19.7,19.7v230.9c0,10.9,8.8,19.7,19.7,19.7h226c10.9,0,19.7-8.8,19.7-19.7
	V586.2C433.5,575.3,424.6,566.5,413.7,566.5z M190.6,647.6l75.2-57.8c0.6-0.4,1.2-0.6,1.9-0.6c0.6,0,1.3,0.2,1.8,0.6
	c1.1,0.8,1.5,2.3,1,3.6l-15.1,38.3H344c1.7,0,3.1,1.4,3.1,3.1v30.7c0,1.7-1.4,3.1-3.1,3.1h-88.6l15.1,38.3c0.5,1.3,0.1,2.7-1,3.6
	c-1.1,0.8-2.6,0.8-3.7,0l-75.2-57.8c-0.8-0.6-1.2-1.5-1.2-2.4C189.4,649,189.9,648.1,190.6,647.6z M450.7,513h-300
	c-19.6,0-35.4,15.9-35.4,35.4v306.5c0,19.6,15.9,35.4,35.4,35.4h300c19.6,0,35.4-15.9,35.4-35.4V548.4
	C486.2,528.8,470.3,513,450.7,513z M447.4,817.1c0,18.6-15.1,33.7-33.7,33.7h-226c-18.6,0-33.7-15.1-33.7-33.7V586.2
	c0-18.6,15.1-33.7,33.7-33.7h226c18.6,0,33.7,15.1,33.7,33.7L447.4,817.1L447.4,817.1z"/>
</svg>
