<?xml version="1.0" encoding="utf-8"?>
<!-- Generator: Adobe Illustrator 19.1.0, SVG Export Plug-In . SVG Version: 6.00 Build 0)  -->
<svg version="1.2" baseProfile="tiny" id="Layer_1" xmlns="http://www.w3.org/2000/svg" xmlns:xlink="http://www.w3.org/1999/xlink"
	 x="0px" y="0px" viewBox="0 0 500 500" xml:space="preserve">
<path fill="#FFFFFF" d="M14.7,261.5c31.6,39.9,69.1,75.8,102.7,114.2c33.7,38.5,65.6,78.5,100.1,116.2c0.9,1,2.1,1.1,3.2,0.8
	c1.9,2.2,6.1,2.3,6.8-1.3c6.7-30.8,5.8-66.2,0.8-97.4c82.8-0.4,167.6,3.3,250-4.2c0.9-0.1,1.6-0.5,2.1-0.9c1.5-0.1,2.8-1.1,3-3.2
	c5.7-85.4-0.9-173.2-2.3-258.7c0-2.5-1.6-3.9-3.5-4.4c0.2-2-1-4.1-3.7-4.3c-78.7-4.2-158.3-1.1-237.1-0.8c1.7-34.8,1.4-74-5-107.7
	c-0.7-3.9-5.4-3.3-7-0.6c-1.3-2-4.2-3-6.1-0.9c-34.8,39.2-66.4,81.4-100.1,121.5c-33.7,40.3-69.4,79-103,119.4c-1.7,2-1.4,4.3-0.3,6
	C13.5,256.7,12.9,259.3,14.7,261.5z M40.2,273.9c61-81.7,124.5-162.1,182.9-245.8c-0.2,6.4-0.3,13-0.2,19.6
	C161,122.5,105.7,203.8,48.2,282C45.6,279.3,42.9,276.6,40.2,273.9z M62.8,297.5c-3.6-3.9-7.2-7.8-10.9-11.7
	c0.1-0.1,0.1-0.1,0.2-0.2c57.2-76.8,118.1-152.6,171-232.6c0.2,7.8,0.6,15.6,1.2,23.4c-54.9,72.4-106,147.6-161.1,219.8
	C63,296.8,62.9,297.1,62.8,297.5z M65.6,300.5c0.7,0.1,1.4-0.1,2-0.8c55.4-69.2,111.5-141.8,157.2-218.1c0.7,7.8,1.5,15.5,2.4,23.1
	C177.7,174.6,126,243.1,76.8,313.1C73.1,308.9,69.3,304.7,65.6,300.5z M209.3,469.9c4.1-5.3,7.6-10.8,10.3-16.9
	c-0.2,10.2-0.3,20.4,0,30.5C216.1,478.9,212.7,474.4,209.3,469.9z M219.7,444.6c-3.7,7.7-8,14.9-13.4,21.4c-1.6-2.1-3.2-4.1-4.8-6.2
	c7.5-10.7,13.6-22.9,18.8-34.9C220.1,431.5,219.9,438.1,219.7,444.6z M220.7,417.3C220.7,417.3,220.7,417.3,220.7,417.3
	c-7.3,12.9-15.3,25.6-22.4,38.6c-2.7-3.4-5.3-6.8-8-10.2c0.8,0,1.6-0.3,2.1-1.1c9.7-14,19.3-28,28.9-42.1
	C221.1,407.4,220.9,412.3,220.7,417.3z M337.5,381.4c45.1-66.7,91.9-132.7,134.2-201.2c0,8.9,0,17.8-0.1,26.7
	c-20.4,25-37.4,53.3-55.3,80.1c-20.9,31.3-42.2,62.3-62.4,94C348.4,381.1,342.9,381.2,337.5,381.4z M360.1,380.9
	c38.1-55,79-111.1,111.5-169.6c0,9.9-0.1,19.7-0.1,29.6c-30.4,46.7-61.2,93.2-92,139.7C373,380.6,366.5,380.8,360.1,380.9z
	 M476.4,382.7c-5.5-0.4-11.1-0.6-16.6-0.8c5.3-7,10.2-14.3,14.8-21.8C475.1,367.6,475.7,375.2,476.4,382.7z M474.2,354.7
	c-6.3,9.2-12.8,18.1-19.6,26.9c-3.5-0.2-7-0.2-10.5-0.3c11.3-13.1,21.2-27.9,29.2-43.3C473.7,343.6,473.9,349.1,474.2,354.7z
	 M473.1,331.7c-10.5,17.4-22,33.5-34.7,49.3c-3.9-0.1-7.8-0.2-11.7-0.2c17.7-20.7,33-45.4,45.7-69.6
	C472.6,318.1,472.8,324.9,473.1,331.7z M472.2,305.3c-16.6,25.4-34.5,50-50.9,75.4c-5.1-0.1-10.3-0.1-15.4-0.1
	c23.1-32,45.4-64.9,65.9-98.6C471.8,289.7,471.9,297.5,472.2,305.3z M399.5,380.5c-4.6,0-9.1,0-13.7,0c30.2-43.3,58.8-88,85.7-133.4
	c0,9.7,0,19.3,0.1,29C447.2,310.6,423.5,345.7,399.5,380.5z M330.4,381.5c-4.8,0.1-9.6,0.3-14.4,0.4
	c52.8-77.4,107.2-154.8,155.6-235c0,9.2,0.1,18.3,0.1,27.5C422.1,241.6,377,312.3,330.4,381.5z M471.6,126.4c0,0.2-0.1,0.4-0.1,0.7
	c0.1,4.5,0,9.1,0,13.6C414.7,219.1,362.5,301.5,308.7,382c0,0,0,0,0,0.1c-5.4,0.1-10.9,0.3-16.3,0.4
	c57.2-84.8,118-168.3,171.1-255.8C466.1,126.6,468.9,126.5,471.6,126.4z M459,126.9c-61.3,82.5-116.1,170.6-173.5,255.8
	c-7.3,0.2-14.6,0.4-21.9,0.6c58.9-84.8,120.5-168.5,175.8-255.7C445.9,127.4,452.4,127.2,459,126.9z M435.5,127.8
	C373,210.7,316,298.2,256.8,383.5c-7.7,0.2-15.3,0.3-23,0.5c22.3-33,44.6-66.2,67.3-99c36.1-52.3,74.4-103.4,109-156.6
	C418.6,128.2,427,128,435.5,127.8z M405.8,128.4c-37.8,48.2-72,99.7-106.9,150c-24.4,35.1-48.9,70.3-72.8,105.7c-0.1,0-0.2,0-0.3,0
	c-4,0.1-5.4,4-4.3,6.9c-11.4,16.9-22.6,33.8-33.6,50.9c-0.1,0.2-0.1,0.3-0.2,0.5c-2.9-3.6-5.9-7.1-8.8-10.7c0.2-0.2,0.4-0.4,0.6-0.6
	c66.3-103.6,140.1-201.4,209.8-302.6C394.8,128.5,400.3,128.5,405.8,128.4z M385.4,128.5C308,221.9,240.8,325.8,175.5,427.7
	c-2.2-2.6-4.5-5.2-6.7-7.8C234,323.9,298.9,227.2,360,128.5C368.4,128.5,376.9,128.6,385.4,128.5z M355.8,128.5
	c-65.2,94.4-127.8,190.9-190.6,287c-4-4.7-8.1-9.4-12.2-14.1c60.8-90.7,123.5-180.5,181.6-273C341.6,128.4,348.7,128.5,355.8,128.5z
	 M330.5,128.3c-62.7,87.9-121.2,179-181.3,268.7c-3.9-4.5-7.8-9-11.6-13.5c31.8-41.3,59.7-86.2,89.5-129
	c29.3-42.1,59.8-83.5,88-126.4C320.2,128.3,325.3,128.3,330.5,128.3z M310,128.2c-30.5,40.2-58.9,82.2-87.7,123.6
	c-29.5,42.3-61.2,84-87.8,128.1c-2.3-2.7-4.6-5.3-6.9-8c-1.4-1.6-2.8-3.2-4.2-4.8c54.8-80.6,113.6-158.4,168.1-239
	C297.7,128.1,303.8,128.1,310,128.2z M265.7,127.9c-27,33-50.9,69-75.9,103.6c-27.4,38-56.4,75.3-81.8,114.6c-1.4,2.2,2,5.1,3.8,2.9
	c27.3-34.4,51.7-71.4,77.2-107.1c26.9-37.6,55.6-74.7,79.9-113.9c6.3,0,12.6,0,19,0.1c-61.5,73.4-115.9,154.9-168.1,235
	c-9.3-10.8-18.6-21.7-28-32.6c0.7,0.6,1.8,0.7,2.5-0.2c26.7-30.8,49.6-65.5,73.8-98.3c25.5-34.5,51.7-68.7,75.9-104.1
	C251.3,127.8,258.5,127.9,265.7,127.9z M229,119c-2.7,2.8-1.6,8.7,3.4,8.7c2.5,0,5,0,7.5,0c-24.4,30.6-47.4,62.4-70.8,93.8
	c-26,35-54.7,69.2-77.9,106.1c-0.4,0.7-0.3,1.3,0,1.9c-3.7-4.3-7.4-8.6-11.2-12.8c54.4-64,103.6-136.3,147.6-207.8
	C228.1,112.4,228.6,115.7,229,119z M22.3,256.1c37.7-38.6,72.3-80.6,106.8-121.9c32.5-38.9,66.1-78,94.7-120
	c-0.2,2.8-0.3,5.7-0.5,8.6C158.6,103.3,98.6,187.8,36.6,270.3c-4.8-4.7-9.7-9.4-14.7-13.9C22,256.3,22.1,256.3,22.3,256.1z"/>
</svg>
