<?xml version="1.0" encoding="utf-8"?>
<!-- Generator: Adobe Illustrator 19.1.0, SVG Export Plug-In . SVG Version: 6.00 Build 0)  -->
<svg version="1.2" baseProfile="tiny" id="Layer_1" xmlns="http://www.w3.org/2000/svg" xmlns:xlink="http://www.w3.org/1999/xlink"
	 x="0px" y="0px" viewBox="0 0 500 500" xml:space="preserve">
<path fill="#FFFFFF" d="M484.6,239.6c-31.7-39.8-69.2-75.7-102.8-114.1C348.1,87.1,316.1,47.1,281.6,9.4c-0.9-1-2.1-1.1-3.2-0.8
	c-1.9-2.2-6.1-2.3-6.8,1.3c-6.7,30.8-5.7,66.2-0.7,97.4c-82.8,0.4-167.6-3.2-250,4.4c-0.9,0.1-1.6,0.5-2.1,0.9
	c-1.5,0.1-2.8,1.1-3,3.2c-5.6,85.4,1.1,173.2,2.6,258.7c0,2.5,1.6,3.9,3.5,4.4c-0.2,2,1.1,4.1,3.7,4.3c78.7,4.1,158.3,1,237.1,0.6
	c-1.7,34.8-1.3,74,5.1,107.7c0.7,3.9,5.4,3.3,7,0.6c1.3,2,4.2,3,6.1,0.9c34.7-39.3,66.4-81.4,100-121.7
	c33.7-40.3,69.3-79.1,102.9-119.5c1.7-2,1.4-4.3,0.3-6C485.8,244.4,486.4,241.8,484.6,239.6z M459.1,227.2
	c-60.9,81.8-124.4,162.3-182.7,246c0.2-6.4,0.3-13,0.1-19.6c61.8-74.8,117.1-156.2,174.4-234.5C453.7,221.8,456.4,224.5,459.1,227.2
	z M436.4,203.6c3.6,3.9,7.2,7.8,10.9,11.6c-0.1,0.1-0.1,0.1-0.2,0.2C390,292.3,329.3,368.2,276.4,448.2c-0.3-7.8-0.6-15.6-1.3-23.4
	c54.8-72.4,105.8-147.7,160.8-220C436.3,204.4,436.4,204,436.4,203.6z M433.7,200.6c-0.7-0.1-1.4,0.1-2,0.8
	c-55.3,69.2-111.4,142-156.9,218.2c-0.7-7.8-1.5-15.5-2.4-23.1c49.4-69.9,101-138.5,150.1-208.5
	C426.1,192.3,429.9,196.5,433.7,200.6z M289.8,31.5c-4.1,5.3-7.6,10.8-10.3,16.9c0.2-10.2,0.2-20.4,0-30.5
	C282.9,22.4,286.3,26.9,289.8,31.5z M279.4,56.7c3.7-7.7,8-14.9,13.4-21.5c1.6,2.1,3.2,4.1,4.8,6.2c-7.4,10.7-13.6,22.9-18.8,35
	C279,69.8,279.2,63.3,279.4,56.7z M278.4,84C278.4,84,278.5,84,278.4,84c7.3-12.9,15.2-25.6,22.3-38.6c2.7,3.4,5.3,6.8,8,10.1
	c-0.8,0-1.6,0.3-2.1,1.1c-9.7,14-19.3,28-28.8,42.1C278,93.9,278.2,89,278.4,84z M161.7,120.1c-45,66.8-91.7,132.8-134,201.4
	c0-8.9,0-17.8,0.1-26.7c20.4-25,37.3-53.4,55.2-80.2c20.8-31.3,42.1-62.4,62.3-94.1C150.8,120.4,156.2,120.2,161.7,120.1z
	 M139.1,120.6C101,175.6,60.3,231.8,27.8,290.3c0-9.9,0-19.7,0-29.6c30.4-46.8,61.1-93.3,91.8-139.8
	C126.1,120.9,132.6,120.7,139.1,120.6z M22.8,118.9c5.5,0.4,11.1,0.6,16.6,0.8c-5.3,7-10.2,14.3-14.8,21.8
	C24.1,134,23.5,126.4,22.8,118.9z M24.9,146.9c6.3-9.2,12.8-18.1,19.6-26.9c3.5,0.2,7,0.2,10.5,0.3c-11.3,13.1-21.2,27.9-29.1,43.3
	C25.5,158.1,25.3,152.5,24.9,146.9z M26.2,169.9c10.5-17.4,22-33.5,34.7-49.4c3.9,0.1,7.8,0.1,11.7,0.2
	c-17.7,20.7-32.9,45.4-45.6,69.6C26.7,183.5,26.5,176.7,26.2,169.9z M27.1,196.4c16.6-25.4,34.5-50,50.8-75.5
	c5.1,0.1,10.3,0.1,15.4,0.1c-23,32-45.3,64.9-65.8,98.7C27.5,211.9,27.3,204.1,27.1,196.4z M99.6,121c4.6,0,9.1,0,13.7-0.1
	c-30.2,43.3-58.7,88-85.5,133.5c0-9.7-0.1-19.3-0.2-29C52.1,190.9,75.7,155.9,99.6,121z M168.8,119.9c4.8-0.1,9.6-0.3,14.4-0.4
	c-52.7,77.4-107,154.9-155.3,235.2c0-9.2-0.1-18.3-0.1-27.5C77.2,259.9,122.2,189.2,168.8,119.9z M27.8,375.2c0-0.2,0.1-0.4,0.1-0.7
	c-0.1-4.5,0-9.1-0.1-13.6C84.7,282.5,136.8,200,190.5,119.4c0,0,0,0,0-0.1c5.4-0.2,10.9-0.3,16.3-0.5
	C149.7,203.7,89,287.3,36.1,374.9C33.3,375,30.6,375.1,27.8,375.2z M40.5,374.7c61.2-82.6,115.9-170.7,173.2-256
	c7.3-0.2,14.6-0.4,21.9-0.6c-58.8,84.9-120.3,168.6-175.5,255.9C53.5,374.2,47,374.4,40.5,374.7z M63.9,373.8
	c62.4-83,119.4-170.5,178.4-255.9c7.7-0.2,15.3-0.4,23-0.5c-22.3,33.1-44.5,66.2-67.1,99c-36.1,52.3-74.3,103.4-108.8,156.8
	C80.9,373.3,72.4,373.5,63.9,373.8z M93.6,373.1c37.8-48.3,71.9-99.8,106.8-150.1c24.3-35.1,48.8-70.3,72.7-105.8c0.1,0,0.2,0,0.3,0
	c4-0.1,5.4-4,4.3-6.9c11.3-16.9,22.6-33.8,33.5-50.9c0.1-0.2,0.1-0.3,0.2-0.5c2.9,3.6,5.9,7.1,8.8,10.7c-0.2,0.2-0.4,0.4-0.6,0.6
	C253.5,173.9,179.8,271.8,110.2,373C104.7,373.1,99.1,373.1,93.6,373.1z M114.1,373c77.3-93.5,144.3-197.4,209.6-299.4
	c2.2,2.6,4.5,5.2,6.7,7.8c-65.1,96-129.9,192.8-190.8,291.5C131,373,122.5,372.9,114.1,373z M143.7,373
	C208.7,278.5,271.3,181.9,334,85.7c4,4.7,8.1,9.4,12.2,14.1c-60.7,90.8-123.3,180.7-181.2,273.2C157.8,373.1,150.8,373,143.7,373z
	 M169,373.1c62.6-88,121-179.1,181-268.9c3.9,4.5,7.8,9,11.6,13.5c-31.8,41.3-59.6,86.2-89.3,129.1c-29.2,42.1-59.7,83.6-87.9,126.5
	C179.3,373.2,174.1,373.1,169,373.1z M189.5,373.3C220,333.1,248.3,291,277,249.6c29.4-42.3,61.1-84,87.7-128.2
	c2.3,2.7,4.6,5.3,6.9,8c1.4,1.6,2.8,3.2,4.2,4.8c-54.7,80.6-113.4,158.5-167.9,239.2C201.8,373.3,195.6,373.3,189.5,373.3z
	 M233.7,373.5c27-33.1,50.8-69.1,75.7-103.7c27.3-38,56.3-75.3,81.6-114.7c1.4-2.2-2.1-5.1-3.8-2.9c-27.3,34.4-51.6,71.5-77.1,107.2
	c-26.8,37.7-55.5,74.7-79.8,114c-6.3,0-12.6,0-19-0.1c61.4-73.5,115.7-155,167.9-235.2c9.3,10.8,18.6,21.7,28,32.6
	c-0.7-0.6-1.8-0.7-2.5,0.2c-26.7,30.8-49.5,65.6-73.7,98.4c-25.5,34.5-51.6,68.7-75.8,104.2C248.1,373.5,240.9,373.5,233.7,373.5z
	 M270.4,382.3c2.7-2.8,1.6-8.7-3.4-8.7c-2.5,0-5,0-7.5,0c24.4-30.6,47.4-62.4,70.7-93.9c26-35,54.6-69.3,77.8-106.2
	c0.4-0.7,0.3-1.3,0-1.9c3.7,4.3,7.4,8.6,11.2,12.8c-54.3,64.1-103.4,136.4-147.4,207.9C271.3,389,270.9,385.6,270.4,382.3z M477,245
	c-37.6,38.6-72.2,80.6-106.7,122c-32.5,38.9-66,78.1-94.6,120.1c0.2-2.8,0.3-5.7,0.4-8.6c64.7-80.4,124.6-165,186.6-247.6
	c4.8,4.7,9.7,9.4,14.7,13.9C477.3,244.8,477.2,244.9,477,245z"/>
</svg>
