<?xml version="1.0" encoding="utf-8"?>
<!-- Generator: Adobe Illustrator 19.1.0, SVG Export Plug-In . SVG Version: 6.00 Build 0)  -->
<svg version="1.2" baseProfile="tiny" id="Layer_1" xmlns="http://www.w3.org/2000/svg" xmlns:xlink="http://www.w3.org/1999/xlink"
	 x="0px" y="0px" viewBox="0 0 1000 1000" xml:space="preserve">
<path fill="#3D3D3C" d="M339.7,245.5c12.6,2.6,22.1,11.4,33.3,16.8c6.5,3.1,13.5,5.4,20.7,6.5c-6,0.6-11.9,1.4-17.6,2.3
	c-8.1,1.3-16.1,3-24.1,5.1c-22.2-19-57.1-31.9-81.2-8.6c-1.1,1.1-0.2,3.2,1.4,2.8c13.9-3.9,27.2,4.1,40.6,7
	c9.8,2.2,19.9,2.6,29.9,1.5c-13.2,4-26.1,9.2-38.1,15.7c0,0-0.1,0.1-0.1,0.1c-9-2.3-20.6,5.8-27.1,10.8c-10.9,8.4-19.5,19.4-30.3,28
	c-1.5,1.2,0.5,3.4,2,2.2c6.6-4.9,15.8-4.9,23.5-7.2c6.4-1.8,12.7-4.4,18.3-8.2c8.4-5.7,14.7-13.8,16.6-23.8
	c14.4-6.8,29.1-12.5,44.2-16.7c-18,11.4-27.4,30.8-35.8,49.8c-0.6,1.4,1.5,2.8,2.6,1.7c9.3-10.1,23.3-14.6,32-25.4
	c5.6-7,7.7-16.6,4.2-24.8c0.4-0.7,0.1-1.5-0.4-2c7-1.9,14.1-3.5,21.4-4.7c7.4-1.2,14.9-2.1,22.4-2.7c-5.5,2-10.6,4.9-15.2,8.6
	c-8.1,6.5-12.5,17.3-21.4,22.6c-1.2,0.7-1.1,3.1,0.6,3c11.8-0.8,23-5,32.2-12.5c4.6-3.7,8.7-8.2,11.8-13.2c1.3-2.1,4.3-6,4.1-9.1
	c1,0,2-0.1,3-0.1c12-0.1,23.8,1.4,35.8,1.9c1,0,1.3-1.5,0.3-1.7c-12.9-3.1-26.9-3.9-40.7-3.4c0-0.3-0.2-0.6-0.4-0.9
	c-8.9-11.5-18.5-22.8-32.8-27.3c-11.9-3.7-24.6-2.8-35.9,2.5C338.1,242.8,338.1,245.2,339.7,245.5z M305.8,272.2
	c-9.3-3-18.7-6.9-28.4-6c21.3-16.3,49.2-4.6,69,10.1C332.6,277.7,319.1,276.5,305.8,272.2z M280.7,322.4c-7.3,3.2-15.8,3.9-23.6,6.2
	c5.1-4.8,9.9-9.9,15.1-14.7c4.2-3.9,8.7-7.7,13.7-10.6c5-2.9,12.8-7.2,18.7-5.4C300.6,309.3,291.9,317.5,280.7,322.4z M341.7,309.9
	c-6.3,5-13.5,8.8-19.7,13.8c7.3-15.8,16-31,30.7-41.1C355,293.4,351.1,302.5,341.7,309.9z M406.9,272.5c-1.8,2.9-5.5,9.1-6.3,10
	c-2.9,3.7-6.4,6.9-10.2,9.7c-6.8,5.1-14.7,8.4-23,9.8c4.7-4.5,8-10.2,12.6-14.9C387.5,279.5,396.7,274.9,406.9,272.5z M376,243.7
	c12.1,4.4,19.4,14.1,27.5,23.4c-12.1-1.2-23.4-4-34-10.3c-7.8-4.7-15.1-10.2-23.6-13.2C355.6,240.1,366.2,240.1,376,243.7z"/>
<path fill="#3D3D3C" d="M563.5,147.9c10.3,7.7,15.1,19.7,22.9,29.5c4.5,5.6,9.9,10.7,15.9,14.8c-5.7-2-11.4-3.8-17-5.4
	c-7.8-2.3-15.9-4.2-24-5.7c-11.9-26.6-37.9-53.3-69.6-42.6c-1.4,0.5-1.5,2.8,0.1,3.1c14.2,2.4,22.9,15.3,33.6,23.7
	c7.9,6.2,16.9,10.9,26.4,14.2c-13.7-2-27.5-2.8-41.1-2.2c-0.1,0-0.1,0-0.1,0c-7.1-5.9-21.1-3.6-29.1-1.9c-13.5,3-25.9,9.2-39.4,12.3
	c-1.9,0.4-1,3.3,0.9,2.9c8-1.6,16.4,2.3,24.3,3.6c6.6,1.1,13.4,1.5,20,0.5c10-1.5,19.2-6.2,25.2-14.4c15.9,0.1,31.6,1.2,47.1,3.8
	c-21.2,2.6-38,16.1-53.6,29.7c-1.2,1,0.2,3.2,1.6,2.6c12.8-5.1,27.3-3.2,39.8-9.3c8.1-3.9,14.1-11.7,14.4-20.6
	c0.6-0.5,0.8-1.3,0.4-2c7.1,1.3,14.2,2.9,21.3,4.9c7.2,2.1,14.4,4.4,21.4,7.2c-5.8-0.5-11.7-0.1-17.4,1.2
	c-10.1,2.4-18.7,10.3-29,11.3c-1.4,0.1-2.3,2.3-0.7,2.9c11,4.3,22.9,5.3,34.4,2.5c5.7-1.4,11.3-3.7,16.3-6.9
	c2.1-1.4,6.4-3.6,7.6-6.4c0.9,0.4,1.8,0.8,2.8,1.2c10.9,5,20.9,11.5,31.5,17c0.9,0.5,1.8-0.8,1-1.4c-10.3-8.4-22.6-15.1-35.4-20.5
	c0.1-0.3,0.1-0.6,0-1c-3.1-14.2-7-28.5-18-38.7c-9.2-8.5-21.1-13-33.5-13.1C563.2,144.8,562.2,147,563.5,147.9z"/>
<path fill="#3D3D3C" d="M264.9,734.8c-2.5,0.6-4.2,2.8-3.9,5.4c0.2,2.2,2,4,4.3,3.9c1,0.3,2,0.3,3,0c16.3,9.5,33.9,25.1,29.5,45.5
	c-2.5-15.4-13-31.2-27.9-36c-0.2-0.1-0.5-0.1-0.7,0c0-0.1,0-0.2,0-0.2c-0.1-0.6-0.4-1.1-0.9-1.5c-0.7-1.3-1.9-2.2-3.4-2.3
	c-3.7-0.2-5.9,4.9-3.5,7.6c2.1,2.4,6,1.2,7.4-1.3c0,0,0,0,0,0c7.4,4.7,14,9.1,19.1,16.5c4.7,6.8,7.3,14.5,8.3,22.6
	c-0.1,0.3-0.2,0.6-0.4,0.8c-5.9-13-19.9-22.3-33.4-26.6c0.2-1.3-0.1-2.6-0.9-3.7c-1.7-2.3-4.9-2.2-6.7-0.2c-1.7,1.9-1.7,5.2,0.7,6.7
	c0.2,0.1,0.4,0.2,0.6,0.3c1.2,0.6,2.8,0.6,3.9,0.1c0.4-0.2,0.8-0.5,1.1-0.8c6.3,3.2,12.9,5.5,18.8,9.5c5.1,3.5,9.4,7.7,12.7,12.7
	c-4.3-2.6-9.5-4.1-14-5.6c-7.6-2.6-15.8-5.5-23.9-6.3c0.2-1.8-0.4-3.6-2.2-4.6c-1.6-0.9-3.6-0.9-5.1,0.2c-1.4,1.1-2,3-1.5,4.7
	c0.2,0.6,0.5,1.2,0.9,1.7c0.2,0.5,0.6,0.9,1,1.3c1.3,1,3.1,1.1,4.5,0.3c0.7-0.4,1.3-0.9,1.7-1.5c13.1,4.1,28.7,5.1,40.5,12.7
	c0.2,0.3,0.3,0.6,0.5,1c0,0,0,0.1,0,0.1c-8.1,0.7-16.1,0.2-24.1-1.4c-5.7-1.2-11.3-3.2-17.1-4.2c-0.2-1.3-1-2.6-2.4-3.3
	c-2.5-1.2-5.1,0.2-5.8,2.5c-0.5,0-1,0.3-1,0.9c0,1.7,0.5,3.3,2,4.2c1.4,0.9,3.1,1.1,4.6,0.4c1.1-0.5,1.9-1.4,2.3-2.4
	c10.3,4.4,23.4,6.7,35.1,6c-12.6,4.3-24.6,4.4-38.1,2.8c-0.1-0.4-0.3-0.8-0.6-1.1c-1.2-1.6-3.4-2.5-5.4-2.1
	c-3.7,0.7-4.4,4.7-2.8,7.3c0.3,0.6,0.7,1.2,1.3,1.6c0.4,0.2,0.7,0.4,1.1,0.5c0.2,0.1,0.4,0.2,0.6,0.2c1.8,0.4,3.5-0.3,4.6-1.6
	c0.8-0.8,1.2-1.7,1.3-2.7c13.4,4.5,29.8,1.8,42.2-4.5c-5.1,6.3-13,9.9-20.7,12.6c-10.8,3.9-21.6,5.4-32.7,2.4c0-0.8-0.1-1.6-0.6-2.4
	c-1-1.8-3.3-2.7-5.4-2.3c-2.1,0.4-3.6,2.3-3.7,4.4c-0.1,1.8,0.9,3.5,2.5,4.1c0.1,0.1,0.2,0.1,0.3,0.2c1.8,1,4,0.8,5.4-0.7
	c0.5-0.5,0.8-1.1,1.1-1.7c10.8,4.6,23.1,2.5,34-1.3c4.5-1.6,9-3.4,13-5.8c-4.4,3.7-9.1,7.1-14.4,9.8c-8.6,4.4-17.3,6-26.6,7.4
	c-0.3-1.2-1-2.2-2.1-2.9c-2.1-1.4-5-1.1-6.7,0.8c-1.3,1.4-1.7,3.5-0.9,5.1c0.1,0.8,0.5,1.6,1.2,2.4c1.3,1.5,3.3,2.2,5.2,1.7
	c2.2-0.6,3.4-2.7,3.5-4.8c19.1,0.3,40.7-11.1,50.9-27c25.4,11.1,51.6,20.5,78.1,28.7c25.9,8,52.7,15.4,79.7,19.1
	c0.9,0.1,1.1-1.3,0.3-1.5c-26.9-6.7-53.8-12.4-80.3-20.5c-26.3-8-51.8-17.6-77.1-28.1c0.3-0.4,0.5-0.9,0.8-1.4c0,0,0.1,0.1,0.1,0.1
	c0.4,0.3,0.9-0.3,0.6-0.6c-0.1-0.1-0.2-0.2-0.2-0.3c0.3-0.5,0.5-1.1,0.8-1.7c9.6-22.8-8.5-44.5-27.9-54.4c0.9-1.3,1.1-3.1,0.3-4.6
	C270,735.4,267.3,734.3,264.9,734.8z"/>
<path fill="#3D3D3C" d="M686.6,789.8c2.3,2.2,7,5.3,10.3,3.3c3.9-2.4,2-8.7,0.2-11.8c-2.8-4.8-8.5-9.3-14-11.3
	c5.3-4.5,10.5-9.3,15.4-14.2c1.4,6.1,3.9,13.4,8.5,17.6c3.1,2.8,7.6,3.2,10.1-0.6c5.7-8.4-6-19.4-14.8-20.8c3.9-3.9,7.7-8,11.4-12.1
	c1.6,6.2,5,12.4,9.9,16.5c3.2,2.6,8.8,4.3,11.4-0.2c2.4-4.2-1.9-9.1-4.6-11.9c-3.5-3.5-8.5-6.9-13.6-8c0.2-0.3,0.4-0.5,0.7-0.7
	c2.4-2.8,4.9-5.8,7.3-8.7c4,5.4,10.3,10.9,17,12.2c4.5,0.9,10.3-1.5,8.5-7c-1.6-5-8.4-7.4-12.9-8.5c-1.3-0.3-6.5-1.6-9.4-0.8
	c2.8-3.5,5.5-7.1,8.1-10.8c0,0.2,0.1,0.4,0.2,0.5c2.8,4.4,8.7,8.5,13.8,9.7c3.5,0.8,8.1-0.6,8.5-4.7c0.5-4.4-4.5-7-8-8.1
	c-3.9-1.3-8.6-1.7-12.5-0.2c2.3-3.4,4.6-6.8,6.7-10.2c0.1,0.3,0.3,0.5,0.7,0.7c4.8,2.8,20,11.1,22,0.6c1.8-9.1-15.6-7.1-20.7-4.6
	c1.4-2.4,2.8-4.9,4.1-7.3c0.6,0.2,1.2,0.1,1.6-0.5c1.4-2.3,2.7-4.6,4-7c1.1-1.9,2.5-3.9,3.3-6c0.9-2.5-0.1-6.4-3.4-6.2
	c-3,0.2-4.9,5-5.9,7.4c-1.1,2.7-1.5,5.8,0,8.4c-1.5,2.3-2.9,4.6-4.3,6.8c0.2-7.1-0.5-18.5-6.8-15.9c-3.4,1.4-2.3,6.3-1.7,9
	c0.9,3.8,2.7,7.5,5.2,10.5c0,0.3,0,0.6,0,0.8c0,0.2,0,0.4,0.1,0.6c-1.8,2.8-3.7,5.7-5.5,8.5c-1-6.9-5.2-17.9-12.1-13.9
	c-7.4,4.3,3.5,13.9,9.5,17.8c-2.9,4.4-6,8.6-9.1,12.9c-1.2-5.5-3.8-10.4-8-14.3c-2.6-2.4-6.8-4.7-9.2-0.7c-2.5,4,0.9,9,3.6,11.9
	c2.9,3.2,6.7,5.6,10.9,6.6c-1.9,2.5-3.9,4.9-5.9,7.3c-0.9,1-1.8,2.1-2.7,3.1c-1.7-5.2-4.6-9.8-8.7-13.4c-2.4-2.1-8-6.3-10.9-2.5
	c-2.5,3.2,1.5,7.3,3.4,9.5c3.8,4.2,8.5,7.3,13.7,9.4c-4,4.4-8.2,8.7-12.4,12.9c-0.4-5.3-2.4-10.4-6.4-14c-2.8-2.5-7.6-4.6-10.7-1.4
	c-3.4,3.4-1.1,9,1.6,12c3.2,3.6,8.1,5.5,12.9,6.1c-5,4.7-10.1,9.2-15.4,13.6c-0.2-5.5-0.9-11.3-4.3-15.8c-2-2.6-6.4-6.5-9.8-3.8
	c-3.6,2.9-1.6,8.9,0.3,12.1c2.4,4.2,6.4,7.6,10.6,10.1c-2.1,1.7-4.1,3.3-6.2,4.9c-3.8,2.9-7.6,5.7-11.5,8.4
	c0.5-6.1,0.1-13.5-2.9-18.6c-1.9-3.4-6.3-6.8-10.3-4.4c-4,2.4-3.1,8.3-1.8,11.9c1.8,5.3,5.3,11.1,10.1,14.4
	c-5.7,3.8-11.5,7.4-17.5,10.8c1-8.2-1.1-25.5-12.1-22.5c-12,3.3,2.3,20.9,8,24.8c-6.3,3.4-12.7,6.6-19.3,9.5
	c1.6-5.5,2.2-11.5,0.6-17c-1.2-4.1-5.2-8.7-10-6.3c-4.8,2.3-4,9.4-2.7,13.5c1.4,4.7,4.4,8.7,8.5,11.4c-6.4,2.7-13,5-19.7,7
	c0-0.1,0-0.1,0-0.2c-0.1-0.6-0.7-0.9-1.2-0.7c0-0.1-0.1-0.1-0.1-0.2c2.4-3.7,3.2-10,2.2-14.2c-0.9-3.6-4-8-8.3-7.1
	c-4.2,1-4.3,5.8-3.5,9.2c1.2,5.1,4.2,10.4,8.1,14c-7.7,2.2-15.6,4-23.6,5.2c-1.2,0.2-0.9,2,0.3,1.9c8.1-0.6,16.2-1.9,24.1-3.9
	c0,0,0,0,0,0c0,4.3,0.5,8.7,2.5,12.5c1.6,3,5.3,7.6,9.3,5.9c3.9-1.7,2.1-6.7,0.9-9.6c-1.7-3.8-4.6-7.7-8.2-10c6-1.7,11.8-3.7,17.6-6
	c-0.3,5.5,0.9,11.4,4,16c2.2,3.2,6.2,6.3,10.1,4.1c4-2.2,4.1-7.2,2.2-10.8c-2.6-4.9-7.6-8.5-12.6-10.9c6.8-2.9,13.5-6.2,20-9.8
	c0.4,5.5,1.9,11.2,4.9,15.7c2.2,3.3,7.4,8.1,11.9,5.9c4.7-2.3,2.5-10.1,0.5-13.5c-2.9-5.1-7.9-8.2-13.2-10.4c6.5-3.8,12.9-7.8,19-12
	c0.9,5.6,2.6,11.7,6.1,16.1c2.7,3.3,7.6,6.3,11.9,4c4.4-2.3,3-8,1-11.4c-3.3-5.6-9.7-8.8-15.6-11.1c3.8-2.7,7.6-5.5,11.2-8.3
	c2.2-1.7,4.3-3.4,6.4-5.1C679.8,779.5,682.2,785.6,686.6,789.8z M708.2,758.3c2.7,1.8,8.7,8,6.5,11.9c-4.4,7.7-11.5-8.8-13.8-14.9
	C703.5,756.1,705.9,756.7,708.2,758.3z M730.8,750.4c0.4,0.9,0.8,1.8,1.2,2.7c-2.6,2.4-4.8,2.6-6.6,0.7c-1.7-1.1-3.3-3.3-4.5-4.8
	c-2.2-2.8-3.8-5.8-5.2-9C721.7,742.3,727.2,744.6,730.8,750.4z M738.2,727c1.4,0.5,2.8,1,4.1,1.7c1,0.5,1.9,1,2.8,1.7
	c1.8,0.9,1.8,2.1-0.1,3.5c-0.4,2.3-1.6,2.9-3.6,1.8c-0.8-0.3-1.7-0.6-2.4-1.1c-1.6-0.8-3-1.7-4.5-2.7c-2.6-1.9-4.7-4-6.6-6.4
	c0-0.1,0.1-0.1,0.1-0.2C728.2,724.3,737.8,726.9,738.2,727z M745.8,711.1c2.2,0.4,6.8,1.4,8.3,3.4c3.5,4.6-1.2,5.1-3.8,4.3
	c-1.8-0.6-3.5-1.6-5-2.7c-2.2-1.5-4-3.3-5.9-5.1C741.5,710.9,743.7,710.8,745.8,711.1z M753.8,696.7c2.6-0.2,9.4-0.7,10.2,2.3
	c1.2,4.2-4.9,3.2-7.2,2.4c-3-1.1-5.8-2.5-8.6-4.1C750.1,697.1,752,696.8,753.8,696.7z M752.8,678.2c0.3-0.7,1.9-5.1,2.8-5.2
	c2.5-0.5,0.4,2.4,0.1,3c-0.7,1.4-1.5,2.7-2.2,4c-0.4,0.7-0.8,1.4-1.1,2C752.2,680.8,752.3,679.6,752.8,678.2z M741.8,688.2
	c-0.4-1-2.8-7.6-1.7-8.7c2.1-2.3,2.6,5.9,2.7,6.8c0.1,1.4,0.1,2.9,0.2,4.3C742.5,689.8,742.1,689,741.8,688.2z M730.4,702.5
	c-0.9-1.1-1.7-2.3-2.5-3.5c-1.1-1.8-2.6-3.1-0.1-4.2c2.1-0.9,2.3-0.1,3.4,1.5c0.9,1.2,1.6,2.7,2.1,4.2c0.8,2.1,1.1,4.2,1.3,6.3
	C733.1,705.4,731.7,704,730.4,702.5z M711.8,712.7c-1.4-3,0.7-4.7,3.6-3.1c1.2,0.7,2.2,2.1,3,3.2c2.2,2.9,3.6,6.1,4.4,9.7
	C718.2,720.5,714,717.4,711.8,712.7z M705.1,731.5c-0.9-0.8-7.9-6.6-7.5-8.3c0.4-1.5,4.8,0.8,5.4,1.3c1.3,1.1,2.6,2.3,3.7,3.6
	c1.8,2.3,3.2,4.7,4.2,7.4C708.9,734.3,706.9,733,705.1,731.5z M684.7,743.8c-1.1-1.3-0.6-2.4,1.3-3.4c0.8-2.6,2-3,3.7-1.4
	c1.2,0.8,2.3,2.1,3.1,3.3c2,2.7,3,5.8,3.3,9.1C691.5,750,686.1,748.2,684.7,743.8z M673.6,763.5c-2.2-2.3-5.7-6.3-5.2-9.7
	c0.8-1,1.5-2.1,2.3-3.1c1.5,0.8,2.8,1.9,3.7,3.3c1.4,1.9,2.3,4.3,2.9,6.5c0.5,2.3,0.7,4.7,0.9,7.1
	C676.6,766.2,675,764.9,673.6,763.5z M647.8,766.8c-0.4-3.2,1.6-3.6,5.9-1.3c0.5,0.8,0.9,1.6,1.4,2.4c0.8,1.9,1.2,4.1,1.5,6.2
	c0.5,3.5,0.5,7.1,0.4,10.6C652.4,779.7,646.3,773.5,647.8,766.8z M627.7,789.4c-0.7-1.2-1.2-2.4-1.7-3.7c-0.4-1-0.8-2.1-1-3.2
	c3.5-3.5,5.9-3.9,7.2-1.1c3.5,4.2,2.7,11,2.6,16.4C632,795.3,629.5,792.7,627.7,789.4z M604.8,794c-0.4-2.6,1.3-4.1,5-4.4
	c0.7,0.9,1.3,1.9,2,2.8c0.7,1.6,1,3.9,1.1,5.7c0.3,3.4-0.2,6.8-1.2,10.1C607.6,804.6,604,799.5,604.8,794z M585.8,810.7
	c-0.7-1.3-1.2-2.6-1.7-4c-0.4-1.2-0.8-2.3-1-3.5c-0.7-1.7-0.1-2.6,1.7-2.8c6.2-2.8,3.9,8.5,3,13.8
	C587.1,813.1,586.4,811.9,585.8,810.7z M596.5,828.4c1.4,1.8,5.9,10.2,0.3,7.8c-2.7-1.2-3.9-6.9-4.4-9.3c-0.2-0.9-0.3-1.8-0.4-2.8
	C593.6,825.4,595.2,826.7,596.5,828.4z M621.8,822.1c1.1,1.2,2.4,2.6,3.1,4.1c1.3,2.9-0.6,7.5-4.3,5.5c-4.7-2.5-6.2-9.9-6.9-15.2
	C616.7,817.9,619.4,819.7,621.8,822.1z M645.6,808.8c2.3,1.9,10.1,13.8,2,13.1c-5.9-0.5-8.8-11-10.4-17.7
	C640.3,805.4,643.2,806.7,645.6,808.8z M669.6,794.9c2.1,1.6,4.2,3.5,5.4,6c1.6,3.5-1.8,6.8-5.5,4.8c-4.8-2.6-7.1-9.7-8.6-15.4
	C663.8,791.6,666.9,792.9,669.6,794.9z M685.2,783.4c-2.1-3.3-3.4-6.8-4.1-10.6c5.3,3,17.7,9.2,13.9,15.8c-0.1,2.1-1.1,2.5-3.1,1.2
	c-1.2-0.5-2.2-1.2-3.1-2.1C687.3,786.5,686.2,785,685.2,783.4z"/>
<path fill="#3D3D3C" d="M651.3,886.2c-12.1,3.7-24.1,7.5-36.1,11.2c0-0.3-0.2-0.6-0.4-0.8c-11.5-13.9-34.3-12.9-50.4-12.2
	c-1.7,0.1-2.4,1.9-1.1,3c10.6,8.7,24.5,14.1,38.3,14.1c-9.7,2.9-19.4,5.6-29.2,8.1c-0.1-0.1-0.3-0.2-0.6-0.2
	c-1.8,0.1-3.7,0.1-5.5,0.1c-0.1-0.1-0.2-0.2-0.3-0.3c-14.6-11.3-32.9-16.6-51.3-15.6c-1.5,0.1-2.4,1.9-1,2.9
	c14.1,9.9,31.2,15.8,48.5,15.6c-9.8,2.2-19.7,4.2-29.7,5.7c0.3-0.5,0.3-1.2-0.1-1.9c-5.2-7.5-17.8-11.3-26-14.1
	c-10.7-3.5-21.9-5.4-33.2-5.7c-1.2,0-2.3,1.6-1.3,2.5c14,13,33.5,21.5,52.9,20.2c-0.6,0.1-1.3,0.2-1.9,0.3
	c-13.9,1.6-27.8,2.4-41.8,2.1c0.1-0.3,0-0.7-0.1-1c-10-21.5-33.1-29.7-54.1-36.4c-1.4-0.5-2.7,1.3-1.7,2.5
	c12.6,14.4,27.7,28.4,46.2,34.5c-4.4-0.3-8.9-0.6-13.3-1.1c-7.8-0.9-15.4-2.3-22.9-4c0,0,0-0.1,0-0.1c-3.3-9.4-11.1-17.9-18.7-24
	c-4.1-3.3-15.4-12.7-20.9-8.7c-0.7,0.5-0.6,1.6-0.2,2.2c8.4,11,18.8,21.2,30.9,28.4c-10.4-2.9-20.6-6.4-31-10.1
	c0.3-0.5,0-1.4-0.7-1.4c-0.4,0-0.8,0-1.2-0.1c0.1-0.5,0-1-0.6-1.4c-10.3-6.8-18.6-15.7-29.6-21.5c-8.9-4.7-20-11.4-30.3-9.9
	c-1.2,0.2-1.4,1.6-0.8,2.4c7.1,9.7,18.4,18.2,28.7,24.3c9.5,5.6,20.4,8.6,31.4,8.2c0,0.3,0.1,0.6,0.5,0.8c2.7,1.5,5.4,2.8,8.2,4.1
	c-1.9,0.1-3.9,0.2-5.8,0.4c-8.8,0.7-17.5,2.5-25.9,5.2c-1.4,0.4-1.6,2.2-0.2,2.9c8.6,3.8,17.8,4.9,27.2,4c5.6-0.6,16.9-1.2,20.3-6.7
	c9.7,3,19.7,5,29.5,6.5c-1.1,0-2.2,0-3.2,0c-4.4,0.3-8.8,1-13,2.2c-8,2.2-15.3,5.8-22.1,10.5c-1.2,0.8-0.3,2.6,0.9,2.8
	c9.7,0.8,19.3,0.1,28.7-2.5c6.9-1.9,18-4.8,21.9-11.1c0,0,0-0.1,0-0.1c13.5,1.4,27,1.7,40.6,1.2c-8.9,2.6-17.9,3.9-26.4,8.6
	c-8.7,4.9-16.4,11.4-23.3,18.5c-1,1-0.5,2.7,1,2.9c13.4,1.8,26.3-2.3,37.4-9.6c6.8-4.5,18.5-11.9,20-20.9c3.5-0.2,7-0.5,10.5-0.9
	c12.1-1.2,24.1-3.1,36.1-5.4c0,0,0,0.1,0,0.1c-17.2,2.2-32.2,18.2-38.8,33.3c-0.5,1.2,0.7,2.1,1.7,2c10.5-0.8,19-6.9,26.2-14.1
	c5.7-5.7,13.6-13.1,12.9-21.7c11-2.2,21.9-4.8,32.7-7.8c-4.6,3.7-8.9,7.7-12.8,12.2c-4.4,5.1-11.1,12.2-11.6,19.1
	c-0.1,1,0.9,2,1.9,1.7c10.2-2.9,19.1-9.2,25-18c1.5-2.3,8.1-13.5,5.8-17.2c0.1,0,0.1-0.1,0.2-0.1c0,0,0.1,0,0.1-0.1
	c9.5-2.8,18.9-5.8,28.3-9c-9.2,9.1-15.6,22.1-20,33.8c-0.5,1.3,0.9,2.5,2.1,1.9c9.3-4.4,16.8-11.7,21.3-21c1.1-2.3,5.6-12.9,4-17.3
	c6-2.2,12-4.4,17.9-6.7C653,887.7,652.4,885.8,651.3,886.2z M477.4,899.3c8.7,0.6,17.3,2.1,25.7,4.8c7.8,2.5,19.5,5.9,25.4,12.3
	C509.5,916.3,491.9,911.5,477.4,899.3z M431.4,888.4c18,6.1,36.4,13.9,45.6,31.3C458.8,913.7,444.3,902.4,431.4,888.4z M399.3,884.7
	c3,0.4,8,4.2,9.7,5.2c3.5,2.3,6.8,4.8,9.9,7.7c4.6,4.4,7.9,9.4,11.1,14.6C418.4,904.6,408,895.9,399.3,884.7z M359.6,891.4
	c-8.2-5.4-17.1-12.1-23.5-19.8c5.4,0.1,10.4,2.8,15.4,5c5.5,2.5,10.9,5,16,8.2c7.8,4.8,14,11.8,21.8,16.6
	C378.6,900.4,368.8,897.4,359.6,891.4z M391.4,918.6c-6,0.1-11.8-0.8-17.4-2.7c10.9-3.2,24.4-6.3,35.4-3.8c1.7,0.6,3.4,1.2,5.1,1.8
	C409.5,918.1,397.1,918.5,391.4,918.6z M448.6,926.6c-4.2,1.9-8.6,3.4-13.1,4.6c-7.2,1.8-14.6,2.5-22,2.3c7.1-4.3,14.9-7.4,23.2-8.8
	c4.9-0.8,9.7-0.8,14.7-0.7c1,0,1.8,0,2.5-0.1C452.1,924.8,450.4,925.8,448.6,926.6z M484.3,943.1c-9.1,5.3-19.1,8.4-29.6,7.8
	c6.5-6.5,13.6-12.3,21.8-16.5c9.2-4.8,19.3-5.6,28.9-9C501.1,932.9,491.1,939.2,484.3,943.1z M540,938.2
	c-5.8,5.3-12.2,9.5-19.8,10.8c3.4-7,8.2-13.2,14.3-18.3c6.1-5.1,12.7-7.6,19.8-10.6C551.7,927.4,545.7,933.1,540,938.2z
	 M519.7,896.6c14.7,0.2,28.4,4.6,40.7,12.6C545.9,908.3,532.2,904.4,519.7,896.6z M592.3,918.3c-1.7,3.2-3.9,6.1-6.3,8.7
	c-4.7,5-10.4,8.7-16.9,11c1.9-6.5,9.1-13.7,13.1-18c4.3-4.5,9-8.5,14-12.1C596.2,911.1,593.1,916.8,592.3,918.3z M568.8,887.5
	c14.4-0.6,32.8-0.5,42.7,10.5C596.2,899.5,581.5,896.5,568.8,887.5z M629.9,905c-1.2,3.8-3,7.4-5.2,10.7c-3.6,5.3-8.2,9.5-13.6,12.7
	c2.4-5.7,5.2-11.2,8.6-16.4c3.7-5.6,8.2-10.3,12.3-15.6C632,899.2,630.4,903.6,629.9,905z"/>
<path fill="#3D3D3C" d="M229,690.8c-4.5-11.8-9.2-23.5-13.7-35.2c0.3-0.1,0.5-0.2,0.8-0.4c13-12.4,10.4-35.1,8.6-51.2
	c-0.2-1.6-2.1-2.2-3.1-0.8c-8,11.2-12.3,25.4-11.3,39.2c-3.6-9.5-7-19-10.1-28.6c0.1-0.2,0.2-0.3,0.2-0.6c-0.2-1.8-0.4-3.6-0.5-5.4
	c0.1-0.1,0.2-0.2,0.2-0.3c10.2-15.4,14.3-34,11.9-52.3c-0.2-1.5-2.1-2.2-2.9-0.8c-8.8,14.8-13.5,32.3-12.1,49.4
	c-2.9-9.6-5.6-19.3-7.8-29.2c0.6,0.2,1.3,0.2,1.8-0.2c7.1-5.8,10-18.5,12.2-27c2.8-11,3.8-22.2,3.3-33.5c-0.1-1.2-1.7-2.2-2.6-1.1
	c-12,14.9-19.1,35-16.4,54.2c-0.1-0.6-0.3-1.3-0.4-1.9c-2.6-13.7-4.4-27.6-5-41.5c0.3,0,0.7,0,1-0.2c20.7-11.5,27.3-35.1,32.4-56.5
	c0.4-1.5-1.5-2.6-2.6-1.5c-13.5,13.6-26.3,29.7-31.1,48.5c-0.1-4.4,0-8.9,0.1-13.3c0.3-7.9,1.2-15.6,2.4-23.1c0,0,0.1,0,0.1,0
	c9.2-4,17.1-12.3,22.6-20.4c3-4.4,11.6-16.2,7.2-21.4c-0.6-0.7-1.6-0.5-2.2,0c-10.4,9.1-19.8,20.3-26.1,32.8
	c2.1-10.6,4.9-21,7.8-31.6c0.6,0.2,1.4-0.1,1.3-0.8c0-0.4,0-0.8,0-1.2c0.5,0.1,1-0.1,1.4-0.7c6.1-10.7,14.3-19.6,19.3-31
	c4-9.2,10-20.7,7.8-30.9c-0.3-1.2-1.7-1.3-2.4-0.6c-9.2,7.8-16.9,19.7-22.2,30.3c-4.9,9.9-7.1,20.9-5.9,31.9c-0.3,0-0.6,0.2-0.8,0.5
	c-1.3,2.8-2.4,5.6-3.5,8.5c-0.2-1.9-0.5-3.9-0.8-5.8c-1.3-8.8-3.8-17.2-7-25.5c-0.5-1.4-2.4-1.4-2.9,0c-3.2,8.9-3.7,18.1-2.1,27.4
	c1,5.6,2.4,16.7,8.1,19.8c-2.3,9.8-3.6,20-4.4,29.9c-0.1-1.1-0.1-2.2-0.3-3.2c-0.6-4.4-1.6-8.7-3.1-12.8
	c-2.7-7.8-6.9-14.9-12.1-21.3c-0.9-1.1-2.7-0.1-2.7,1.1c-0.2,9.7,1.3,19.3,4.5,28.5c2.4,6.7,6.1,17.6,12.7,21.1c0,0,0.1,0,0.1,0
	c-0.5,13.5,0.2,27.1,1.7,40.5c-3.2-8.7-5.2-17.6-10.5-25.7c-5.5-8.4-12.5-15.5-20.1-21.9c-1.1-0.9-2.7-0.3-2.8,1.2
	c-0.9,13.5,4.1,26,12.3,36.7c4.9,6.4,13.1,17.6,22.2,18.5c0.5,3.5,1,6.9,1.6,10.4c2.1,12,4.8,23.8,8,35.6c0,0-0.1,0-0.1,0
	c-3.4-17-20.5-30.9-36-36.4c-1.2-0.4-2,0.8-1.9,1.9c1.5,10.4,8.2,18.4,15.9,25.2c6.1,5.3,14,12.6,22.6,11.3
	c3,10.8,6.3,21.5,10.1,32.1c-4-4.3-8.4-8.3-13.1-11.9c-5.4-4-12.9-10.2-19.9-10.2c-1,0-1.9,1-1.5,2c3.6,9.9,10.5,18.4,19.8,23.6
	c2.4,1.4,14,7.1,17.6,4.6c0,0.1,0.1,0.1,0.1,0.2c0,0,0.1,0.1,0.1,0.1c3.4,9.3,7.1,18.5,11,27.6c-9.7-8.5-23.2-14-35.1-17.5
	c-1.3-0.4-2.4,1.1-1.7,2.3c5.1,9,12.9,15.9,22.5,19.7c2.4,1,13.3,4.7,17.5,2.7c2.6,5.9,5.2,11.7,8,17.4
	C227.6,692.6,229.4,691.9,229,690.8z"/>
<path fill="#3D3D3C" d="M813.4,530.6c-12.6,5.8-23.3,15.6-29.5,28c0.7-12.6,0.8-25.1,0.2-37.5c-0.1-1.3-0.2-2.7-0.3-4
	c9.1,2.5,20.7-9.4,25.7-15.7c7.9-10,11.3-22.9,7.6-35.2c-0.3-1-1.6-1.7-2.6-1c-13.8,9.3-32.9,28-30.6,46.4c-0.1,0-0.1,0-0.2,0.1
	c-0.1,0.1-0.3,0.1-0.4,0.2c-1.1-13.8-3.1-27.9-6.4-41.6c0.1,0,0.3,0,0.4,0c0.1,0,0.2,0,0.4,0c1,0,1.6-0.8,1.7-1.7
	c3.1-4.5,9.7-7.5,13.2-11.6c3.1-3.6,5.5-7.7,7.3-12c4-9.7,4.4-20.4,1.4-30.4c-0.4-1.3-1.9-1.7-2.9-0.8c-13,12.5-25.1,29.4-23.8,48
	c-2.4-8.6-5.3-17.1-8.7-25.2c0.1-0.2,0.2-0.5,0.2-0.8c0.6-22-9.5-43.1-26.8-56.6c-1.2-1-3-0.4-3.1,1.3c-0.9,20.4,1.1,52.2,26.6,56.1
	c0.3,0.5,0.8,0.8,1.4,0.9c2.3,7.6,4.4,15.2,6.4,22.8c-3.3-5.6-7.9-10.3-13.5-13.8c-4.3-2.7-9.2-4.6-14.2-5.5
	c-2.2-0.4-6.2-1.6-7.9,0.6c-1.7,2.3,0.7,6.8,1.6,8.9c2.1,5,5.4,9.5,9.5,13c7.5,6.5,17.5,9.7,27.3,8.3c2.2,9.4,3.9,18.8,5.2,28.4
	c-7.7-10.4-24.3-13.8-36.9-13.4c-1.1,0-1.9,1.1-1.6,2.1c2.8,10,9.2,18.6,18.6,23.3c5,2.5,14.9,5.6,21.5,3.5c0.2,2.6,0.3,5.2,0.4,7.8
	c0.4,11.4,0,22.7-0.7,34c-3.4-5.6-8.2-10.4-13.8-13.9c-3.9-2.5-18.9-10.7-22.4-4.6c-3.2,5.5,7.8,16.7,11.5,19.8
	c5.8,4.9,15.7,10.8,23.8,9.6c-1.4,16.1-3.4,32.2-4.7,48.4c-0.1,1.1,1.8,1.4,2,0.3c2.9-15.9,5.2-32.2,6.5-48.6c0.1,0,0.2,0,0.3,0
	c18.3-2.8,31.7-18,32.8-36.3C816.3,530.7,814.5,530.1,813.4,530.6z M814.7,472.9c0.8,8.8-1.8,17.4-7.2,24.7
	c-4.6,6.2-12.7,14.4-21,15.7C796.8,501.1,807,487.1,814.7,472.9z M785.5,511.7c-0.2-16.4,14.9-32.4,28-41.7
	c-9.9,13.4-19.1,27.9-28.1,42C785.5,511.9,785.5,511.8,785.5,511.7z M794.6,447.6c-2.6,4.6-6.1,8.5-10.2,11.9
	c-1,0.8-2.4,1.7-3.8,2.7c6.6-13.1,13.3-26.3,18.9-39.8C800.6,431.1,799,439.9,794.6,447.6z M798.9,418.2c0.1,0.4,0.2,0.8,0.2,1.2
	c-7.7,14.4-14.3,29.6-20.8,44.6c-0.2,0.2-0.5,0.4-0.7,0.6C776.9,446.2,786.1,431.1,798.9,418.2z M739.9,384.1c0.4,0.3,0.7,0.7,1,1
	c2.7,16.8,9.9,33.3,18.8,47.6C741.6,424.8,739.4,402.6,739.9,384.1z M742.4,386.4c12.7,12.4,20,29.2,20.4,47.1
	C753.5,418.6,747.5,403,742.4,386.4z M748.4,446c3.1,1.1,6,2.7,8.7,4.5c5.9,4.1,10.1,9.7,13,16.1c-5.3-2.6-10.5-5.5-15.4-8.9
	c-4.2-2.9-13.3-8.4-16.4-13.9C740,443,747,445.5,748.4,446z M751.4,463.3c-3.5-2.5-6.5-5.8-8.8-9.4c-0.4-0.6-2.3-3.8-3.6-6.4
	c2.9,3.4,7.3,6.4,10.2,8.7c6.8,5.3,14.2,9.8,22,13.3c0,0.1,0.1,0.2,0.1,0.3C764.3,469.3,757.5,467.6,751.4,463.3z M779.3,509.8
	c-12.6-4.9-23.3-10.6-33.3-19.7C760.3,490.5,775,495.4,779.3,509.8z M757.9,507.8c-6.1-3.9-10.4-9.6-13-16.2c9.5,9.6,22,17.7,35,21
	c0,0.1,0.1,0.3,0.1,0.4C772.9,514.5,763.2,511.2,757.9,507.8z M748.5,541.2c1-0.4,2.1-0.4,3.2,0c1.5,0.2,3,0.7,4.4,1.2
	c3.6,1.2,7,3,10.2,5.2c5.7,4,10,9.4,13,15.5c-11.2-6.5-21.6-13.9-31.8-21.9C747.7,541.2,748,541.1,748.5,541.2z M779.5,566.6
	c-5.7-2.1-11.5-2.8-16.9-6.3c-4.8-3-13.5-10.3-14.7-16.6c9.6,8.7,20.4,16.1,31.6,22.4C779.5,566.3,779.5,566.4,779.5,566.6z
	 M812.1,535.3c0,0,0,0.1,0,0.1c-4.9,4.9-9.3,10.4-14.1,15.4c-4.5,4.6-9.3,9-13.7,13.6c-0.1,0-0.1,0-0.2,0.1
	C790.1,551.8,799.4,541.6,812.1,535.3z M788.9,563.1c7.9-6.1,15.6-13.7,21.6-21.6C806.9,551.7,799.2,559.4,788.9,563.1z"/>
<path fill="#3D3D3C" d="M827.5,779.3c-13.8-1.9-28.1,0.5-40,7.6c7.4-10.2,14.3-20.7,20.4-31.5c0.7-1.2,1.3-2.3,2-3.5
	c6.3,7,22.6,3.3,30.1,0.7c12.1-4.1,21.9-13.1,25.4-25.6c0.3-1-0.4-2.3-1.6-2.3c-16.7,0.4-42.8,5.8-50.8,22.5c-0.1,0-0.1,0-0.2,0
	c-0.1,0-0.3,0-0.4,0c6.5-12.2,12.4-25.2,17.1-38.4c0.1,0.1,0.2,0.2,0.3,0.3c0.1,0.1,0.2,0.1,0.3,0.2c0.8,0.5,1.8,0.2,2.4-0.5
	c5-2.1,12.2-1.1,17.4-2.6c4.5-1.4,8.8-3.5,12.6-6.2c8.6-6,14.7-14.7,17.6-24.8c0.4-1.3-0.7-2.5-2-2.2c-17.7,3.5-37,11.2-45.9,27.6
	c2.7-8.6,4.8-17.2,6.2-25.9c0.2-0.1,0.4-0.3,0.6-0.6c12.3-18.2,15.2-41.4,8.1-62.1c-0.5-1.5-2.3-1.9-3.3-0.6
	c-11.8,16.6-27.3,44.5-8,61.6c-0.1,0.6,0.2,1.1,0.7,1.5c-2.2,7.7-4.5,15.2-6.9,22.6c0.3-6.5-1.1-13-3.9-18.9
	c-2.2-4.6-5.2-8.9-9-12.3c-1.7-1.5-4.4-4.7-7-3.8c-2.7,1-3.1,6.1-3.5,8.4c-0.9,5.3-0.6,10.9,1,16.1c2.8,9.5,9.5,17.6,18.5,21.8
	c-3.3,9.1-6.9,18-11,26.8c-0.9-12.9-13-24.7-23.7-31.2c-0.9-0.6-2.2-0.2-2.5,0.9c-3.1,9.9-2.3,20.6,3,29.6
	c2.9,4.8,9.5,12.7,16.2,14.6c-1.2,2.3-2.5,4.5-3.8,6.8c-5.8,9.8-12.2,19.1-19,28.2c0.1-6.6-1.3-13.1-4.1-19.1
	c-1.9-4.2-10.1-19.2-16.4-16c-5.7,2.9-2.4,18.3-1.1,22.9c2.2,7.3,7.3,17.6,14.9,20.9c-9.9,12.8-20.2,25.3-30.1,38.2
	c-0.7,0.9,0.7,2.1,1.5,1.3c11-11.8,21.8-24.3,31.7-37.3c0.1,0,0.1,0.1,0.2,0.1c16.9,7.5,36.4,2,47.2-12.8
	C829.9,780.9,828.8,779.5,827.5,779.3z"/>
<path fill="#3D3D3C" d="M704.9,324.7c3.5-6.6-1.7-13.1-7.7-15.5c-8.2-3.3-18.5-3-26.6,0.5c-2.1-1.3-4.3-2.6-6.4-3.9
	c2.5,0.1,5-0.2,7.2-1c4.8-1.8,8.7-6.4,7.3-11.8c-1.1-4.4-5.1-7.2-9.5-5.8c-5.8,1.8-11.2,8-14.3,13.4c-4.6-2.5-9.4-4.8-14.1-7.1
	c4-0.3,7.9-1.6,10.9-3.7c4.5-3.1,7.4-9,3.4-13.7c-8.3-9.7-23.7,2.2-24,12.9c-5.6-2.5-11.3-4.8-17-7.1c4.9-0.1,9.9-1.5,13.6-4.6
	c3.9-3.3,5.8-9.2,1.3-12.9c-5.1-4.2-11.9-1.4-15.8,2.8c-2.6,2.8-7,7.8-6.1,11.8c0,0-0.1,0.1-0.1,0.1c-6.3-2.4-12.6-4.5-18.9-6.7
	c4.3-1.2,8.5-3.6,11-6.5c3.3-3.8,4.2-10.1,0.2-13.8c-4-3.7-9.7-1.3-12.9,2.2c-4,4.2-5.9,10-5.6,15.7c-7.2-2.3-14.5-4.5-21.8-6.6
	c3.3-1.1,6.3-2.9,8.6-5.3c3.7-3.8,4.8-9.8,0.8-13.8c-4.5-4.5-10.1-0.5-13.6,3.2c-3.4,3.6-6.1,8.4-5.8,13.3c-7-1.8-14.1-3.4-21.2-4.8
	c4.2-1.7,8.1-4.3,10.6-7.8c2.4-3.4,2.9-8.4-1.5-10.4c-8.7-4.2-17.7,8.8-15.2,17.1c-11.2-2-22.5-3.5-33.7-4.1c-0.8,0-0.9,1.1-0.1,1.2
	c9.9,1.8,19.8,3.6,29.6,5.5c-2.3,8.7,0.6,25.5,13,21.1c4.6-1.6,7-6.5,5.8-11.2c-1-4.1-4.4-6.1-8-7.8c6.7,1.4,13.3,2.8,19.9,4.4
	c0,0.1,0.1,0.2,0.2,0.2c-6.4,7.1-1.8,26,9.3,24.9c5.1-0.5,8.8-5.4,8.1-10.5c-0.6-4.9-5.2-9.3-9.8-12.7c7.7,2,15.3,4.1,22.9,6.5
	c-9,6.4-8.9,26.7,4,26.4c6.2-0.1,10.5-5.7,10.5-11.6c0-4.3-2.1-8.5-5.2-11.7c5.7,2,11.3,4.1,16.9,6.3c-7.3,6.7-5.5,26.4,6,26.9
	c5.9,0.3,10.1-5.1,10.1-10.7c-0.1-5-3.1-9.7-7.1-12.7c5.1,2.2,10.2,4.4,15.3,6.7c0,0-0.1,0.1-0.1,0.1c-4.2,1.2-4.7,9.1-4.5,12.7
	c0.4,6.7,4.1,14.7,11.7,15.5c5.3,0.5,10.4-3.8,9.7-9.3c-0.8-6.1-6-12.2-11.3-16.4c6.3,2.9,12.6,5.9,18.9,9c-2.6,2-2.2,9.2-2.1,11.4
	c0.2,5.9,1.9,13.7,8.7,15.3c4.9,1.1,8.9-2.5,8.9-7.5c0-5.8-4.7-11.5-9.1-16c3.2,1.6,6.5,3.2,9.7,4.8c-0.1,0.3-0.1,0.6,0.1,0.9
	c3.3,7.8,10.4,14.8,18.5,17.5C694.2,332.1,701.7,330.8,704.9,324.7z M525.2,245.8c1.4-2.2,6.7-8,9.8-5.6l1.7,4.6
	c-0.6,1.3-1.4,2.4-2.4,3.4c-1,1.1-2.3,2-3.5,2.8c-2.4,1.6-4.9,2.7-7.6,3.6C522.6,251.5,523.4,248.5,525.2,245.8z M521.1,259.5
	c2.5,1.9,5.4,2.8,8,4.4c4.2,2.6,5.8,9.3,0.1,11.7c-5.6,2.4-9.2-2.9-10.2-7.6c-0.7-3.3-0.5-6.5,0-9.8c0.1,0,0.2,0.1,0.2,0.1
	c0.3,0.3,0.8,0.2,1-0.1c0.1,0,0.2,0,0.3,0.1C520.5,258.7,520.6,259.1,521.1,259.5z M552,261.8c-0.5-0.1-0.9-0.2-1.4-0.4
	c0.2-3.4,1.3-6.4,3.4-9.3c2.5-3.4,8.7-9.9,12.5-5c3.5,4.5-1.1,9.6-4.9,11.8C558.6,260.7,555.4,261.7,552,261.8z M558,272.6
	c1.4,1.3,3.1,3,3.8,4.8c1.4,3.7-0.8,8.1-4.8,8.7c-8.8,1.2-11.1-14.9-7.7-20.7C552.3,267.7,555.3,270,558,272.6z M582.2,270.7
	c0.4-4,1.3-8,3.4-11.4c2.2-3.6,8.1-9.4,12.1-4.3c3.9,5-1.4,10.5-5.6,12.8C588.9,269.4,585.6,269.9,582.2,270.7z M588.5,281.8
	c2.4,4.8,1.8,11.9-4.2,13.7c-6.8,2-9.6-5.8-9.3-11.2c0.2-4.3,1.9-8,5.1-10.5C583.3,276,586.7,278,588.5,281.8z M608.8,279.1
	c0.1-3.9,4.7-8.9,6.9-10.9c3.8-3.3,15.2-4.8,12.4,3.8C625.8,279.1,615.3,279.7,608.8,279.1z M617,294.4c1.9,5.1-2,14.7-8.9,10.3
	c-6.5-4.2-6.6-17.2-1.3-22.1c0.4,0.1,0.7,0.3,1.1,0.4c-0.5,0.4-0.7,1.4,0,1.9C611.4,287.8,615.3,290,617,294.4z M639.7,316.9
	c-10.6,5.8-17.2-17.2-10.5-22.7C633.7,297.7,649.7,311.5,639.7,316.9z M644.3,290c-3.4,0.9-6.7,0.7-10.2,0.5
	c-0.4-0.2-0.8-0.3-1.2-0.5c0.6-4,2.3-7.5,5.4-10.4c3.9-3.6,12.1-7,15-0.2C655.8,285.1,648.9,288.8,644.3,290z M665.5,325.1
	c-2,0.7-4,1.3-5.9,2c-1.6-0.7-2.8-1.8-3.4-3.4c-1-1.7-1.5-3.5-1.8-5.4c-0.3-1.5-1.4-9.8,0.1-12.7
	C658.2,309.3,669.3,320.5,665.5,325.1z M666.7,303.1c-3.5,0.3-6.8-0.9-10.1-1.5c-0.1,0-0.1-0.1-0.2-0.1c2.6-3.3,5.4-6.4,8.8-9
	c1.5-1.1,3.4-2.7,5.3-2.9c3.2-0.4,5.4,2.2,5.7,5.1C676.6,299.9,671.1,302.8,666.7,303.1z M685.2,325.3c-5.6-3.3-10-8.1-12.8-14
	c-0.1-0.2-0.2-0.3-0.3-0.4c5.2-1,10.4-1.6,15.7-1c2.8,0.3,5.8,0.9,8.5,2c4.5,2,8.9,7.3,5.5,12.2
	C697.8,329.8,690.1,328.2,685.2,325.3z"/>
<path fill="#3D3D3C" d="M475.1,98.2c9.8-6.5,5.6-29.4-7.1-29.3c-3.8-6.1-10.3-11.4-17.3-8.4c-1.3-10.6-13.6-14.4-22.8-15.4
	c-6.5-0.7-17.3,3-16.7,10.5c-5.9-5.4-16.5-0.4-21,5.2c-4.5,5.5-10.2,17.9-3.5,23.7c-4.9,1.3-9.2,5-9.8,10.3
	c-0.5,4.8,2.7,10.1,7.7,10.6c0.1,0,0.1,0,0.2,0c-1.7,1.1-2.1,4.3-2.1,6.3c0,4.7,2.4,9,5.6,12.4c5.7,6.1,16,12.3,24.1,8.2
	c-1.1,9.9,11.9,16.3,20.3,16.6c11.2,0.5,22.7-7.7,24.5-19.1c0.1-0.5-0.1-0.8-0.3-1.1c0.1-0.2,0.2-0.5,0.3-0.7
	c6.9,3.7,17-2.5,21.1-8.2C483.4,112.8,479.6,104.4,475.1,98.2z M476.2,117.1c-2.9,5.3-12.4,11.7-18.7,9c-0.1-0.2-0.2-0.4-0.4-0.6
	l-0.1-0.1c-0.2-0.1-0.5-0.1-0.7,0c0,0-0.1,0-0.1,0.1c-0.3,0.2-0.5,0.5-0.5,0.8c0,0.7-0.1,1.4-0.3,2.1c-0.2,0.1-0.3,0.3-0.5,0.6
	c-3.5,9-9.9,16.5-20.3,16.9c-9.3,0.4-19.1-5.2-20.7-14.7c0.2-0.1,0.4-0.3,0.6-0.4c1-0.8-0.3-2-1.2-1.6c-7.5,3.2-14.1,0.8-20.2-4.1
	c-2.4-1.9-4.6-4-6.1-6.7c-1.5-2.5-4.3-10.9-0.3-12.7c0.4-0.2,0.1-0.7-0.2-0.7c-0.5-0.1-0.9,0-1.2,0.1c0.4-0.4,0.5-1.3-0.1-1.5
	c-3.8-1.6-6.7-5.1-5.8-9.5c0.9-4.3,4.8-7.3,8.7-8.6c0.5-0.2,0.5-0.7,0.3-1c0.1-0.2,0.1-0.5,0-0.7c-7.2-12.5,10.1-36.1,23.6-25.3
	c0.1,0.2,0.2,0.5,0.3,0.7c0.4,0.8,1.8,0.4,1.8-0.5c-0.6-11.3,10.3-11.7,18.5-9.9c7.5,1.7,14.4,4.7,16.6,12.7c0,0,0,0,0,0
	c-0.4,0.7,0.3,1.8,1.2,1.6c11.7-2.1,19.7,11,18.2,21.6c-0.3,2.3-0.9,4.3-2.2,6.4c-0.7,1.1-3.4,3.1-3.7,4.2c0,0.2-0.1,0.3-0.1,0.4
	c-0.5,0.2-0.9,0.7-0.7,1.3c2.5,7.1,3.8,14.1-1.1,20.6c-2.2,2.9-5.2,4.9-8.7,6c-2,0.6-11.7,2.3-12.1-1.2c-0.1-0.9-1.4-1.1-1.6-0.2
	c-0.2,0.1-0.4,0.2-0.5,0.4c-2.5,4-5.3,7.4-10.4,7.9c-5.1,0.4-9.5-2.5-11.9-6.8c0.1-0.1,0.2-0.1,0.3-0.2c0.5-0.4,0.1-1.4-0.5-1.3
	c-0.2,0-0.3,0-0.5,0c-0.3-0.4-0.9-0.4-1.1,0.1c-2.9,0.1-5.5-0.1-7.5-2.8c-2.1-3-1.3-6.5,0.7-9.2c0.2-0.1,0.5-0.1,0.7-0.1
	c1.1-0.3,0.8-1.9-0.3-2c-3.8-0.1-8.4,0.6-11.9-1.4c-5.1-2.9-4.8-8.8-3.5-13.8c1.7-6.2,4.8-11.4,10.3-14.8c0.4,0.9,2,0.8,1.9-0.3
	c-0.2-5.9,2.3-11.7,8.4-13.5c5.6-1.6,11.1,1.2,15,5.2c0.1,0.3,0.3,0.6,0.6,0.7c0.1,0.1,0.1,0.1,0.2,0.2c0.4,0.5,1.1,0.1,1.1-0.4
	c0.1,0,0.1-0.1,0.2-0.1c4.3-6.2,12.4-8.4,18.1-2.4c4.6,4.8,4.1,11.7,1,17.1c-0.6,1,0.2,2,1.2,2.1c12.4,1.6,4,19.5-1.7,19.2
	c-0.3-0.2-0.6-0.2-0.9-0.2c-0.8-0.3-1.4,0.4-1.1,1c0,0.1,0,0.1,0,0.2c1.1,11.1-12,17.7-18.7,7.4c-0.6-0.9-2.1-0.8-2.4,0.3
	c-7.4,2.5-10.3,0.8-8.9-5.1c0.5-1.7,1.3-3.3,2.4-4.7c0.4,0,0.9-0.1,1.3-0.1c1.4-0.2,1.1-2.5-0.3-2.5c-7.2,0.2-14.9-3.8-15.3-12
	c-0.2-4.5,2.5-8.5,6.8-10c0.2-0.1,9-1.1,11.1,0.5c-0.1,0.7-0.1,1.4,0,2.3c0.1,1.3,1.7,1.8,2.5,0.7c0.9-1.5,0.9-2.7,0.4-3.7
	c2.5-8.8,21.7-0.7,14.5,8c-0.8,0.9,0.4,2.2,1.4,1.4c0,0,0,0,0,0c3.2,1.4,6.7,2.9,5.6,7.4c-1,4.1-9.4,10.5-11.9,3.8
	c-0.6-1.6-2.7-0.9-2.5,0.7c-0.4,5.4-3,6.8-7.7,4.1c-1.5-3-1.3-5.4,0.7-7c0.8-0.2,1.5-0.6,2-1.3c0.8-0.9-0.2-2.1-1.3-1.6
	c-3.4,1.5-6.3-1.7-4.6-5c1.6-3.1,5.6-3.4,8.3-1.6c0.7,0.4,1.4-0.6,0.9-1.1c-3.9-3.6-10.8-2-12.1,3.3c-0.6,2.5,0.2,5.2,2.4,6.6
	c0.6,0.4,1.4,0.7,2.1,0.8c-2.4,2.7-2.5,7.1,1.1,9.6c4.2,2.9,8.8,0.5,10.3-3.5c3.6,3,9.7,1,12.8-2.9c4.7-5.8,2.2-12.3-4.4-14.1
	c6.5-9.9-15.8-19.5-19.9-9.3c-0.8-0.4-1.8-0.7-2.7-0.9c-5.7-1.1-12.9,0.2-16.4,5.2c-6.8,10,2.7,21.5,13,22.4
	c-3.2,4-4.6,9.6-0.4,13.7c3.3,3.2,8,2.3,10.3-1.1c8.1,9.1,24.2,3.2,22.2-9.6c7.4-0.2,16.6-20.3,3.1-23.5c3.3-7.2,2.4-15.9-4.7-20.7
	c-6.5-4.4-15.5-2.6-19.1,4.3c-4.1-5.2-11.1-7.9-17.5-5.5c-5.7,2.2-10.1,8.6-8.7,14.7c-8.5,2.3-13.1,12.8-13.5,21
	c-0.5,9.6,7.9,13.3,16.1,12.6c-1.9,2.8-2.1,6.9-0.3,9.8c1.9,3.1,6.5,5.3,10.1,4c2,4.9,6.5,8.5,12,8.7c5.3,0.2,11.1-3.1,13-8.2
	c1.5,1.5,4.3,1.9,6.3,2.1c4.9,0.5,10.1-1,14-3.9c7.8-5.8,10.9-18.5,4.6-26.5c7-5.1,9.6-14.1,6.1-23.1c-0.2-0.4-0.3-0.8-0.5-1.2
	c8.2,4.5,11.7,18.3,4.2,24.8c-1-0.7-2.7,0.7-1.9,1.9C475.8,104.2,479.9,110.5,476.2,117.1z"/>
<path fill="#3D3D3C" d="M177.3,288.4c-3.5-1.5-9.8-0.5-11.4,3.4c-5.6-1.4-11.6-1-16.9,1.4c5.9-5.4,12-10.6,18.3-15.7
	c0.3,0.2,0.7,0.3,1.2,0.2c13.6-4.8,21.2-19.4,19.2-33.3c-0.1-1-1.5-1.4-2.3-0.9c-10.6,6.8-18.2,18.2-18.9,30.9
	c0,0.3,0.1,0.5,0.3,0.7c-3,2-5.9,4.2-8.8,6.4c2-4.2,3.4-8.8,3.5-13.4c3.1-1.5,5.3-7.2,5.6-9.8c0.5-5.1-3.7-9-8.7-8.3
	c-5.5,0.7-8.8,6.7-8.1,11.9c0.6,4.2,4.9,8.4,9.2,7c-1,4.9-2,9.6-4,14.3c-0.1,0.2-0.1,0.3-0.1,0.5c-3.8,3-7.6,6.2-11.2,9.5
	c6-9.3,5.1-22.9,0.3-32.2c-0.5-1-1.9-0.8-2.4,0c-5.2,7.8-7.7,17.1-6.7,26.4c0.2,1.5,0.6,6.9,2.3,9.5c0,0.6-0.1,1.2-0.1,1.8
	c0,0.3,0.1,0.5,0.3,0.6c-6.3,6.1-12.2,12.7-17.8,19.5c1.8-6.1,1.7-12.8-0.8-18.4c0,0,0,0,0,0c1.5,0.2,3.1-0.7,4.3-1.7
	c2.2-1.9,3.1-4.8,2.4-7.6c-1.6-6.5-9.2-8.6-14.8-6.1c-5.2,2.4-7.6,8.6-4.2,13.6c2.3,3.4,6.7,4.3,10.3,2.9c1.6,8.3,1.7,15.1-1.6,23
	c-5.4,6.9-10.4,14.1-15.1,21.5c1.2-10.3-4.1-20.7-13.5-26.5c-0.7-0.4-1.6,0-1.9,0.8c-2.4,7.4-2.7,15.3-0.6,22.9
	c1.5,5.2,4,11.8,9,14.6c-4.4,7.8-8.4,15.9-12.1,24c-0.2-5.7-1.8-11.5-4.9-16.2c2.3-1.9,3.4-5.2,1.9-8c-2.7-4.9-9.9-5.2-14-2.2
	c-4.1,3-4.9,9.5-1.2,13.2c3.2,3.2,9.2,2.6,11.6-1.2c3,6.2,4.7,12.1,4.6,19.1c-0.3,0.7-0.6,1.4-0.9,2c0,0,0,0.1,0,0.1
	c-1.6,3.8-3.1,7.7-4.5,11.5c-2.6,7.2-4.9,14.5-6.9,21.9c-1.3-11.5-10.3-25.7-21.3-27c-0.5-0.1-0.9,0.3-1.1,0.7
	c-1.3,2.1-0.2,4.8,0.3,7c0.9,4.3,2.1,8.6,4.1,12.6c3.2,6.6,8.4,12.5,15.7,14.2c0.1,0.1,0.2,0.3,0.3,0.4c-2,8.1-3.5,16.3-4.7,24.6
	c-1.2-5.8-4.9-12.3-8.8-15.4c0.9-0.5,1.5-1.4,1.9-2.5c0.8-2.2,0-4.7-1.5-6.4c-4-4.6-10.7-3.4-14.2,1.1c-3.3,4.2-4.2,12.2,1.5,15
	c4.5,2.2,9-0.5,11.1-4.5c1.7,2.6,3.8,5,5.2,7.9c1.7,3.6,2,7.9,3.9,11.3c-0.3,2.4-0.6,4.8-0.8,7.2c-0.1,0.2-0.2,0.4-0.3,0.6
	c-0.1,0.2,0,0.5,0.1,0.6c-1,11-1.4,22-1.2,33c-3.4-11.6-14.6-19.5-27.4-18.8c-0.8,0-1.6,0.8-1.3,1.7c4.8,12.4,15.5,24.3,29,26.9
	c0.4,7.2,1,14.3,1.9,21.4c-1-1.2-2.2-2.2-3.2-3.1c-2.1-1.8-4.5-3.6-7.1-4.5c0.1-0.2,0.3-0.4,0.4-0.6c0.5-0.6,0.4-1.4,0-1.9
	c0.3-2.3-0.7-4.8-2.8-6.1c-4.7-2.9-11,0.2-13.2,4.8c-2.1,4.5-0.1,10.6,5,12.1c2.3,0.7,4.9,0.2,6.8-1.2c1.7-1.3,2.1-3,2.7-4.8
	c2.4,1.5,5,2.7,7.2,4.5c1.7,1.5,3.1,3.5,4.8,5.1c1.5,10.6,3.5,21.2,6,31.6c-8.5-6.4-19-9-29.8-7.2c-0.9,0.1-1.2,1.3-0.8,2
	c6.3,10.4,20.5,17.6,32.4,13c0.1,0,0.2,0,0.3,0c1.5,5.6,3.2,11.2,5,16.7c-1.6-0.9-3.3-1.6-5-2.3c-1.9-0.7-3.9-1.6-6-1.8
	c0-0.5-0.3-0.9-0.7-1.1c-0.2-0.5-0.5-1.1-0.9-1.5c-1.5-1.7-3.8-2.2-6-1.8c-4.5,0.8-7.6,5.2-7.6,9.7c0,4.3,3.4,9,8.1,8.2
	c5.4-0.9,6.8-6.2,7-11c1.6,0.5,3.3,0.7,4.9,1.2c2.3,0.7,4.5,1.7,6.7,2.6c7.7,22.7,18.2,44.8,33.2,63c0.4,0.5,1.4-0.2,0.9-0.7
	c-11.4-15.6-20.2-33-27.2-51.1c13.8-2.3,22.2-15.7,18.1-29.3c-0.3-0.9-1.2-1.3-2-0.8c-9.4,5.2-16.3,14.5-18,25
	c-2.7-7.4-5.1-14.8-7.2-22.3c-0.3-1-0.5-1.9-0.8-2.9c0.1-0.1,0.2-0.1,0.3-0.3c1.7-2.3,2.5-5.3,4.2-7.8c1.7-2.6,4-4.6,6.1-6.9
	c2.1,2.8,6,4,9.5,2.2c4.9-2.5,5.6-9.3,2.6-13.5c-2.8-4-8.7-5-12.6-2c-3.3,2.5-4.4,8.5-1.2,11.5c-2.6,1.7-4.7,4.4-6.4,7
	c-1.1,1.7-2.3,3.7-3,5.8c-0.2-0.2-0.5-0.5-0.7-0.7c-1.8-7.2-3.4-14.4-4.8-21.6c0,0,0,0,0.1,0c6.5,0.8,13.6-4.2,17.3-9.2
	c4.8-6.4,5.7-14.6,3.4-22.2c-0.2-0.8-1.3-1.4-2.1-0.8c-8.6,6.2-17.8,16.6-19.6,27.6c-2.7-16.2-4.1-32.7-4.1-49.2
	c0.1-0.1,0.1-0.1,0.2-0.2c1.7-3.1,3.6-5.9,6.2-8.4c2.2-2.1,5.2-3.5,7.4-5.6c-0.1,3.2,3.1,5.9,6.6,5.4c5.6-0.8,7.6-7.3,6.3-12.1
	c-1.3-4.7-6.7-7.4-11-4.7c-3,1.9-4.2,6.6-2.2,9.5c0,0-0.1,0-0.1,0c-3.3,0.5-6.7,3.8-8.8,6.1c-1.7,1.8-3.2,3.9-4.4,6.1
	c0,0,0-0.1,0-0.1c0.1-7.5,0.5-14.9,1.2-22.4c4.6,2.4,13.6-2.9,16.8-5.4c7.4-5.7,10.9-14.7,10.5-23.9c-0.1-1.1-1.1-1.7-2.1-1.2
	c-9.9,4.4-18.5,11.7-24.1,21c1.6-12.8,4.2-25.4,7.5-37.8c0.2,0,0.5-0.1,0.6-0.4c2.1-3,4.7-5.6,7.9-7.6c2.2-1.4,4.7-2.1,7.1-3.1
	c1,3.3,3.7,5.9,7.5,5.8c5.2-0.1,8-5.7,7.4-10.3c-0.6-4.9-5-8.7-10.1-8.1c-4.5,0.5-8.4,5.5-6.6,10c0,0.1,0.1,0.2,0.2,0.3
	c-4.9,1.1-9.6,5-12.7,9c2.7-9.3,5.8-18.5,9.5-27.5c7.7,2.8,18.3-0.4,24.8-4.5c7.3-4.5,12.3-11.4,15-19.4c0.3-0.9-0.5-2.1-1.5-2
	c-13.9,1.1-27.3,8-35.5,19.4c4.6-10.6,9.9-20.9,15.9-30.9c0,0,0,0,0.1,0c4.3-4.2,8.8-5.4,14.5-5.8c0.1,0.2,0.2,0.3,0.3,0.4
	c-0.9,2.5,0.1,5.8,2.3,7.4c3.9,2.8,9.5,0.9,11.6-3.3c2-3.9,1.4-10.2-3.2-12.1c-2.3-1-5-0.3-7,1.1c-1.3,1-3,2.6-3.7,4.3
	c-4.2-0.5-8.5,0.9-12.1,3.3c2.2-3.5,4.4-6.9,6.7-10.3c2.4-3.4,4.8-6.8,7.3-10.1c15,8,30-2.8,38.6-14.9c0.7-1-0.2-2.2-1.3-2.3
	c-10.7-0.4-20.7,2.2-29.6,7.7c7.2-8.5,14.9-16.4,23-24c0.1,0,0.3,0,0.4,0c6-2.7,11.8-3.3,18-1.7c-1.2,2.9,0.5,7.4,3,9.4
	c4.2,3.4,10.4,2.5,13.1-2.3C183.3,296.6,182.1,290.5,177.3,288.4z M185,247.4c0.5,9.4-3.9,17.8-11.1,23.4c2.4-3.6,4.4-7.6,6.1-11.2
	c0.3-0.6-0.6-1.2-0.9-0.6c-1.8,2.7-3.5,5.5-5.4,8.2c-1.6,2.3-3.6,4.5-5.2,6.9C170.8,263.2,175.9,253.9,185,247.4z M153.2,260.7
	c-0.2-3,1.5-6.4,4.4-7.5c3.4-1.3,6.8,0.9,6.7,4.5c0,1.5-1.4,6.4-3.4,8.1c-0.1,0-0.2,0-0.3,0c-0.2-0.1-0.4-0.1-0.6-0.1
	C156.4,266.1,153.5,264.7,153.2,260.7z M74.4,364.3c-0.6-0.3-1.4-0.2-1.9,0.6c-1.6,2.4-5,3.3-7.2,1.2c-2.4-2.3-1.7-6.5,0.7-8.4
	c2.4-1.9,6.2-2.1,8.6-0.1C77.1,359.5,76.6,362.7,74.4,364.3z M53.5,410.4c2.5,5.6,5.6,11.2,9.2,16.2c-4.6-2.6-8.2-6.1-10.8-10.9
	c-1-1.9-7.3-16.5-3.9-17.6c1.5-0.5,6.2,4.4,7.1,5.3c2.1,2.1,3.9,4.5,5.4,7.1c2.7,4.9,3.5,9.6,4.1,14.9c-3.6-5-7-10.1-10-15.6
	C54.1,409.2,53.2,409.8,53.5,410.4z M50.4,436.6c-0.7-0.1-1.5,0.2-1.7,0.9c0,0.1-0.1,0.2-0.1,0.3c-0.1,0-0.1,0-0.2,0
	c-0.5,0.1-0.5,0.6-0.3,1c-1.3,2.9-3.6,5.9-7.2,4.5c-3.6-1.4-3.1-6.4-1.6-9.2c1.4-2.5,4.1-4.8,7.1-4.2c1.5,0.3,2.9,1.2,3.8,2.4
	C51,433.7,51.1,435.5,50.4,436.6z M42.9,496c2.3,2.8,4.9,5.4,7.3,8.1c1.5,1.6,2.9,3.4,4.5,5c-10.1-5.2-18.3-12.1-23-23
	c12.3,0.2,21.6,8.7,23.7,20.4c-1.3-1.3-2.6-2.5-3.9-3.7c-2.6-2.5-5.2-5.1-7.9-7.6C43.2,494.8,42.5,495.5,42.9,496z M47.5,523.2
	C47.4,523.2,47.4,523.2,47.5,523.2c-0.6,0.7-1,1.5-1.3,2.4c-0.1,0.1-0.2,0.2-0.4,0.3c-0.5,0.3-0.5,0.9-0.2,1.2
	c-0.5,1.4-0.9,2.7-2,3.5c-3.2,2.6-7.4,0.1-8.1-3.5c-0.7-3.6,2.2-7.1,5.6-8c1.9-0.5,4.4-0.2,5.6,1.5
	C47.3,521.3,47.6,522.3,47.5,523.2z M58.5,596.5c-0.8,2.3-3.3,4.8-5.9,3.5c-3.4-1.8-3.2-6.6-1.2-9.3c1-1.4,2.6-2.5,4.4-2.6
	c1.6-0.1,2.9,0.4,3.4,1.8c0,0,0,0.1,0,0.1C59.1,592.1,59.2,594.4,58.5,596.5z M96.5,580.5c2,10.4-3.4,19.4-12.9,22.9
	c0.6-0.9,1.1-1.8,1.6-2.5c0.7-0.9,1.3-1.9,2-2.8c0.2-0.3,3-4.1,3.1-4c0.3,0.5,1,0.2,0.9-0.4c-0.8-2.4-3.5,0.6-4.2,1.5
	c-1.4,1.7-2.7,3.4-4.1,5c-0.8,0.9-1.8,1.9-2.5,3C82.5,593.6,87.8,585.5,96.5,580.5z M82,551.8c2.2-2.4,6.3-2.1,8.4,0.3
	c2.1,2.3,2.4,6.5,0.1,8.8c-2.9,3-7.5,1.2-8.6-2.5c-0.1-0.2-0.2-0.4-0.3-0.5C80.7,555.9,80.3,553.7,82,551.8z M67.4,574.7
	c-5.3-2.5-11.3-5.3-16.9-6.5c-0.3-0.1-0.5,0.3-0.2,0.5c4.1,2.9,9.3,5.1,14.1,7c-10,0.5-19.5-2.6-25.5-11.2
	c10.5-1.1,20.6,2.3,28.3,9.4C67.2,574.2,67.3,574.5,67.4,574.7z M71.5,534.5c3.2-4.9,7.1-9,11.7-12.5c1.3,6.2,0.2,12.6-3.8,17.8
	c-3.3,4.3-7.2,5.8-11.7,7.4c1.1-1.4,2.2-2.8,3.2-4.2c2.2-2.8,4.3-5.8,6.3-8.8c0.4-0.6-0.6-1.4-1.1-0.8c-2.3,2.9-4.7,5.8-7.2,8.5
	c-0.7,0.8-1.5,1.6-2.3,2.4C68.2,540.9,69.5,537.6,71.5,534.5z M76.6,474.2c2.3-2,5.6-0.7,6.6,1.9c1,2.7,0.8,6.7-1.8,8.5
	c-2.4,1.7-5.8,0.5-6-2c0.8-0.1,1.4-1.1,1-1.9C75.4,478.5,74.5,476,76.6,474.2z M85.4,443.5c-0.2,5.9-2,11.6-6,16.1
	c-1.8,2.1-4,3.8-6.4,5.2c-0.2,0.1-8.6,3.6-10.7,3.5c4.7-3.9,9.9-7.7,14.1-12.1c0.6-0.6-0.2-1.8-1-1.3c-5,3.6-9.5,8.2-13.9,12.4
	c-0.1-0.1-0.1-0.1-0.2-0.2c0-0.4,0.1-0.9,0.1-1.3C67.1,456,75,448.3,85.4,443.5z M90.1,402.8c3.1-0.4,5.8,1.8,6.5,4.7
	c0.7,2.9-0.7,7.2-4.1,7.5c-2.8,0.3-4.6-1.7-5.5-4c0.2-0.4,0-0.9-0.4-1.2c-0.2-0.6-0.3-1.2-0.3-1.8c0-0.3-0.2-0.6-0.4-0.7
	C86.3,405.1,87.5,403.2,90.1,402.8z M99.3,377.4c-5,2.4-9.9,5.5-14.8,8.4c8.2-9.6,18.8-15.7,31.5-17c-2.7,6.2-6.9,11.6-12.7,15.2
	c-2.9,1.8-6.2,3.2-9.6,3.9c-1.9,0.5-7.7,1.7-11.2,0.8c6.1-2.8,12.4-5.7,17.8-9.6C101.5,378.5,100.5,376.8,99.3,377.4z M95.1,354.2
	c-0.7-5.9-2.5-11.9-3.7-17.7c-0.2-0.8-1.3-0.4-1.2,0.3c0.9,6.1,1.4,12.6,2.9,18.6c-8-8.1-8.8-22.7-6.1-33.1
	C97.9,329.6,100.3,342.4,95.1,354.2z M116.1,347.9c1.5-1.4,2.3-3.6,4.6-4.3c4-1.2,5.3,3.7,4.4,6.6c-0.8,2.8-3.6,4.7-6.5,3.9
	C115.6,353.3,115.1,350.3,116.1,347.9z M109.8,296.9c-2.8-3.2-1-7.6,2.5-9.2c3.6-1.6,8.6-0.9,10.2,3.2c0.8,2.2,0.3,4.7-1.8,6.1
	c0,0-0.1,0-0.1,0c-0.5-0.8-1.5-1.2-2.4-0.3C116,298.9,112.1,299.5,109.8,296.9z M150,314.7c-7.8,9.7-19.3,16.9-31.7,12
	c2.2-0.8,4.4-1.6,6.7-2.1c2.8-0.7,5.9-0.7,8.6-1.6c0.8-0.3,0.6-1.3-0.2-1.3c-4.6-0.6-10.3,1.4-14.8,3.5c0.2-0.3,0.4-0.6,0.7-0.8
	c0.1,0,0.1,0,0.2-0.1C128.7,317.9,139,314.7,150,314.7z M140,294.1c0.6-5.3,0.6-10.7,1-15.9c0-0.7-0.9-0.6-1,0
	c-0.5,4.1-1.3,8.2-1.8,12.4c-0.4-4.8-0.2-11.1,0-12.3c0.7-5,2.5-9.6,5-13.9C147.6,274.8,145,284.2,140,294.1z M178.5,298
	c-1,3.3-4.1,5-7.3,3.7c-1.5-0.6-2.9-1.7-3.7-3.2c-0.5-1-0.8-2.6-0.6-3.9c0.2,0,0.3-0.1,0.5-0.3c2.2-2,4-3.9,7.3-3.4
	C178.1,291.6,179.4,294.9,178.5,298z"/>
<path fill="#3D3D3C" d="M315.9,152.1c2.1,4.2,6.5,7.4,10.6,9.5c0.1,0,0.1,0,0.2,0c-1.6,0-3.2,0-4.7,0c-4.2,0.1-8.4,0.4-12.6,0.9
	c0.4-4.7-2-9.1-4.7-12.8c-1.8-2.4-5.1-5.2-8-2.7c-2.8,2.4-0.8,7.6,0.7,10.2c1.5,2.6,3.7,4.7,6.2,6.1c-4.9,0.8-9.8,1.8-14.6,3
	c-0.4-2.2-1.7-4.3-2.6-6.2c-1-2-2-4.1-3.7-5.6c-2.2-2-6-2.4-8.1,0.1c-2.4,2.8,0.4,6.5,2.4,8.6c1.9,2,4.2,3.5,6.7,4.5
	c-5.5,1.6-11,3.3-16.4,5.3c-0.7-3.3-4-7.2-6.1-9c-2.5-2.2-6.7-3.3-9.1-0.4c-2.2,2.6-0.9,6.3,1.5,8.2c2.4,2,5.5,2.9,8.6,3.1
	c-4.3,1.6-8.7,3.4-13.1,5.3c-0.1-0.3-0.2-0.5-0.5-0.7c-3.5-2.2-5.8-6.4-9.8-7.9c-2.6-1-6.2-0.3-7.5,2.4c-1.6,3.2,1,6.3,3.7,7.7
	c2.3,1.2,5,1.6,7.7,1.5c-3.7,1.9-7.4,3.9-10.8,6.2c-1.4-3.3-3.6-6.3-7-7.6c-2.8-1.1-6.8-1-8.8,1.6c-2.2,2.8,0.2,5.5,2.6,7.1
	c2.8,1.7,6,2.4,9.2,1.9c-2,1.5-3.9,3.2-5.6,4.9c-0.1,0-0.1,0-0.2,0c-5.1,0.9-9.9,3.3-13.6,6.9c-2,1.9-4.4,5.4-1.4,7.7
	c2.8,2,6.8-0.2,9-2c2.7-2.3,4.3-5.3,4.8-8.7c0.1,0,0.2-0.1,0.3-0.1c2.9-2.3,5.8-4.6,8.9-6.7c-0.5,0.9-0.9,1.9-1.4,2.8
	c-0.8,1.6-1.8,3.1-2.1,4.9c-0.5,2.5,0.6,5.7,3.6,5.8c2.9,0.1,3.8-3.3,4.2-5.6c0.6-3.3,0.3-7-1.1-10.1c3.4-2.3,6.9-4.4,10.5-6.4
	c-1.3,1.8-2.3,3.9-2.7,5.9c-0.6,2.6-0.2,6.8,3,7.6c2.9,0.8,5.2-2.3,5.9-4.8c1-3.7,0.2-7.9-1-11.5c4.5-2.3,9-4.4,13.7-6.2
	c-3.9,5.1-8.2,13.4-0.8,13.4c6.6,0,8.9-10.2,6.6-15.6c4.8-1.8,9.8-3.3,14.7-4.7c-4,5.8-9.8,16.5-1.7,17.3c3.9,0.4,6.3-3.2,7.4-6.4
	c1.5-4.1,1.4-8.4-0.5-12.3c5.1-1.2,10.2-2.2,15.3-3c-2.3,2.3-4.1,5.1-5.3,8.1c-1.1,2.8-1.8,7.8,2.3,8.7c3.6,0.7,6.3-4.1,7.4-6.8
	c1.3-3.4,1.5-7.2,0.1-10.6c0,0,0.1,0,0.1,0c1-0.1,2-0.3,3-0.4c5.2-0.6,10.4-0.8,15.6-0.7c-3.8,2.7-8,7.1-9,11.8
	c-0.7,3.2,0.7,6.5,4.2,7.1c4,0.6,6.8-2.7,8-6.1c1.5-4.1,1.3-8.6,0.1-12.7c5.9,0.3,11.8,1,17.6,2.2c-4.1,2.6-8,6.7-9,11.5
	c-0.9,4.5,2.6,8.2,7.1,6.3c4.9-2.1,7.1-8.3,7.2-13.3c0-0.8,0-2.1-0.2-3.3c1.3,0.3,2.5,0.7,3.8,1c3.7,1.1,7.2,2.4,10.7,3.9
	c-3.6,0.9-7.3,2.5-9.1,5.9c-1.6,2.9-1.2,6.6,1.5,8.7c3.2,2.4,6.9,0.3,9.2-2.3c2.4-2.8,3.6-6.1,3.8-9.7c1.4,0.7,2.7,1.4,4.1,2.2
	c3.2,1.9,20.8,12.2,18.1,17.1c-0.3,0.6,0.4,1.1,0.8,0.6c5.5-7.2-15.9-19-22.8-22.5c5.2-2.8,7.7-17.8,0-20c-4.9-1.4-8.4,3.7-8.9,7.9
	c-0.4,2.7,0.2,6.1,1.7,8.8c-4.2-1.7-8.6-3.1-13-4.2c1.2-4.7,1.7-10.1-0.6-14.6c-1.7-3.2-5.5-6.3-9.2-4.4c-9.2,4.8,1.3,16.6,7.9,18.3
	c0,0,0,0.1,0,0.1c-7-1.6-14.2-2.5-21.4-2.7c0,0,0,0,0,0c0-0.1-0.1-0.1-0.1-0.2c0,0,0,0,0,0c1.9-4.2,0.3-9.9-2-13.6
	c-1.9-3.1-6.2-6.7-10-4.2C314.1,145.5,314.5,149.3,315.9,152.1z M306,163c-4.3-2.2-7.6-6.2-8.2-11.1c-0.6-1.5-0.2-2.2,1.4-2.1
	c1.2-0.9,2.1-0.6,2.7,0.8c0.9,1.1,1.7,2.4,2.4,3.6c1.6,2.8,2.5,5.6,2.2,8.7C306.4,162.9,306.2,162.9,306,163z M280.7,164.1
	c-1.5-1.2-6.5-5.9-4.2-8.1c2.8-2.7,5.9,2.3,6.9,4.3c1,2,1.7,4.4,2.9,6.4c-0.3-0.1-0.7-0.1-1,0.2
	C283.7,166.1,282.1,165.2,280.7,164.1z M216.4,206c-0.9,1.1-4.4,4.7-6.3,4.2c-4.5-1.3,2.3-6.1,3.3-6.8c1.9-1.2,3.8-2.1,5.9-2.8
	C218.7,202.5,217.7,204.4,216.4,206z M232.3,198.2c0,1-0.1,2-0.3,3c0,0-0.5,3.1-0.9,3.3c-0.8-0.9-1.5-1.8-2.3-2.7
	c0.2-0.6,0.5-1.2,0.8-1.8c0.4-0.9,0.9-1.9,1.4-2.8c0.4-0.7,0.7-1.5,1.1-2.2C232.2,196,232.3,197.1,232.3,198.2z M222.6,190.1
	c-2-0.7-7-3.3-3.7-5.7c2.2-1.6,5.6-0.1,7.3,1.4c1.4,1.3,2.3,2.9,3,4.6C227,190.9,224.7,190.9,222.6,190.1z M247.9,189.5
	c0.1,1.2,0.1,2.5-0.2,3.7c-0.1,1-0.5,1.8-1,2.6c-0.6,1.3-1.4,1.3-2.4,0.1c-1.4-0.2-1.9-1-1.6-2.2c0-0.7,0.1-1.4,0.4-2.1
	c0.3-1,0.8-2,1.3-2.9c0.9-1.4,2-2.7,3-4C247.6,186.3,247.8,187.9,247.9,189.5z M237.5,180.6c-1.4-0.5-2.8-1.2-3.7-2.5
	c-1.5-2-0.2-4.1,2.1-4.2c4.1-0.2,6.9,4.9,10.1,7.3C243.2,181.6,240.3,181.6,237.5,180.6z M266.6,175.4c0.6,4.3,0.9,9.4-3.1,12.2
	c-3,2.1-3.9-1.2-3.3-3.5c0.3-1.4,1.5-2.9,2.3-4.1c1-1.6,2.3-2.9,3.5-4.3c0.1,0,0.3-0.1,0.4-0.1C266.4,175.5,266.5,175.5,266.6,175.4
	z M257.6,172c-1.4-0.6-2.8-1.5-3.7-2.8c-1.3-1.8-0.8-4.7,1.8-4.9c2.9-0.2,5.1,2.6,6.6,4.8c0.9,1.4,1.5,3.1,2.4,4.6
	C262.2,173.5,259.8,173,257.6,172z M287.4,176.1c-0.2,2.4-1.5,8-4.5,8.8c-3.1-0.6-4.2-1.8-3.4-3.7c0.2-0.7,0.4-1.4,0.7-2
	c0.4-1.1,1-2.2,1.5-3.3c1.2-2.4,2.8-4.6,4.4-6.7c0.2-0.1,0.4-0.1,0.6-0.2C287.3,171.4,287.6,173.8,287.4,176.1z M303.2,178.9
	c-1.1,1.5-2.4,1-3.9-1.6c0.1-0.9,0.4-1.8,0.7-2.7c0.5-1.3,1.1-2.6,1.9-3.8c1.2-1.9,2.7-3.5,4.5-5C307.3,170.3,307,176.1,303.2,178.9
	z M323,180.1c-5.5-0.2-2.1-6.4-0.3-8.8c1.6-2.2,3.5-4,5.7-5.6C329.2,171.4,328.9,180.3,323,180.1z M370.8,174.1
	c-0.2,2-0.7,4-1.6,5.8c-1.3,2.5-4.3,6.7-7.6,5.5c-3.4-1.4-2.4-5.5-0.3-7.6c2.3-2.3,5.5-2.8,8.5-3.6c0.2-0.1,0.4-0.2,0.5-0.3
	C370.5,173.9,370.7,174,370.8,174.1z M370.1,155.3c5.4-1.7,5.2,5.3,4.5,8.7c-0.6,3.1-1.3,5.5-3.9,6.9c-1.7-2.1-3.5-3.7-4.1-6.7
	C366,161.1,366.5,156.4,370.1,155.3z M350.6,170.5c-0.1,1.7-0.4,3.3-0.9,4.9c-0.8,2.5-2.8,6.3-5.8,6.7c-2.7,0.3-3.5-2.4-2.9-4.6
	c0.4-1.4,1.1-2.6,1.9-3.8c1.8-2.7,4.3-4.8,7.2-6.3c0.1,0,0.1-0.1,0.2-0.2C350.3,168.3,350.7,169.5,350.6,170.5z M345.1,157.9
	c-1-1-2-2.2-2.5-3.5c-1-2.3-0.9-7.1,3.7-6.2c3.2,0.7,4.5,5.6,4.8,8.4c0.2,1.8,0,3.5-0.2,5.2C348.8,160.6,346.8,159.6,345.1,157.9z
	 M322.5,146.2c0.8,0.6,1.5,1.2,2.1,2c0.9,1.2,1.6,2.6,2.2,4c0.9,2.4,1,4.7,1.1,7.1c-0.1-0.1-0.1-0.1-0.2-0.2
	c-2.7-1.6-5.2-3.2-7.3-5.5c-0.8-0.9-1.5-1.7-2.1-2.8c-1-2-1.3-3,0.5-4.5C319.9,144.9,321.1,144.9,322.5,146.2z"/>
<path fill="#3D3D3C" d="M215,752.1c-2.7-1.7-5.7-3.1-8.9-3.8c2.7-1,5.3-2.4,7.6-4.4c3.8-3.2,6.9-8.2,3.6-12.8
	c-3.3-4.6-9.4-4.8-14.2-2.8c-0.2,0.1-0.4,0.2-0.6,0.3c1.8-3.7,2.8-7.8,2.5-12.1c-0.5-7.7-5.6-14.8-14.1-12.7
	c-6.9,1.7-11,7.8-12.6,14.3c-2.9-10.3-20.4-18.2-25.4-5.4c-2.4,6.2-0.4,13,3.6,18.5c-0.9-0.2-1.8-0.4-2.7-0.5
	c-5.8-0.8-14.7-0.8-17.5,5.6c-3,6.9,4.3,14.6,9.3,18.3c3.3,2.4,7.1,3.3,11,3.3c-1,0.7-1.9,1.4-2.7,2.2c-3.6,3.4-5.3,9.4-1.1,13.1
	c4.4,3.8,12.3,2.7,16.7-0.4c2.1-1.4,3.6-3.4,4.9-5.6c-0.4,4.1-0.2,8.1,0,9.6c1.1,9.6,6.5,22.2,16.3,25.8c9,3.3,13-5.1,12.3-12.8
	c-0.8-8.7-4-17.9-9-25.4c4.4,3.4,9.5,5.9,14.7,6.7c5,0.8,12.9,0.4,14.4-5.7C224.6,759.9,219.1,754.8,215,752.1z M214.6,734.3
	c2.9,8.9-13.3,12.6-20,12.3c-0.3-2.6-1.6-5.3-3.5-7.2c0.1,0,0.3-0.1,0.4-0.3c0.1-0.1,0.2-0.3,0.3-0.4c0.1-0.1,0.1-0.2,0.1-0.3
	c0.2,0,0.3,0,0.5,0c0.4,0.3,1,0.4,1.6,0c1.8-1.2,3.4-2.6,4.8-4.2c0.3-0.2,0.6-0.4,0.9-0.6C204.1,730.8,212.3,727.1,214.6,734.3z
	 M191.4,747.5c-0.1,4.4-4.1,8-8.3,8.6c-0.7,0.1-1.4,0.1-2,0c-0.2-0.2-0.4-0.4-0.8-0.4c-0.3,0-0.6,0-0.9,0c-3.2-1.1-4.9-4.4-3.8-8.4
	c1.1-4.2,4.7-7.6,8.9-7.6C188,741.3,191.5,742.9,191.4,747.5z M181.5,717.5c1.5-4.7,6.8-12.1,12.6-10.9c4.8,0.9,7.3,5.5,7.6,9.9
	c0.2,2.3-0.1,4.7-0.7,6.9c-0.9,3.4-2.6,6.4-4.9,8.9c-0.9,0.6-1.8,1.2-2.7,1.8c-1.5,1-4.1,2.1-4.1,4.1c-1.4-0.8-3.1-1.1-4.9-0.6
	c-0.1,0-0.2,0.1-0.3,0.2c-0.1,0-0.2,0-0.3,0c0.1-0.1,0.3-0.1,0.4-0.2c0.4-0.2,0.1-0.8-0.3-0.7C178.5,737.5,180.8,719.6,181.5,717.5z
	 M155.6,716.5c1.2-5.5,6.9-8.5,11.9-6c4,2,6.2,5.3,9,8.6c0.1,0.1,0.1,0.1,0.2,0.1c0,0.1,0,0.2,0.1,0.4l0,0c0.2,0.4,0.6,0.8,1.1,1.2
	c-0.1,0.6-0.2,1.3-0.2,1.9c-0.2,2.7-0.3,13,3.3,15c-2.3,0.5-4.3,2.1-5.8,4.1c-3.6-4.1-8.3-7.1-13.4-9.1c-2.1-2.3-3.9-5-5.1-8.1
	C155.8,722,155,719.3,155.6,716.5z M152,754.6c-5.4-1.7-19.1-14.1-9.9-19.8c4.5-2.8,12.5-1.2,17.1,0.3c0.4,0.1,0.8,0.3,1.2,0.4
	c3.3,3.1,7.2,5.4,11,6.5c0.8,0.6,1.5,1.3,2.3,1.9c0,0,0.1,0,0.1,0.1c-1.3,2.7-1.9,5.8-1.4,8.5c-3.3,0.4-6.9,1.2-10.3,2.5
	C158.6,755.5,155.1,755.6,152,754.6z M159.8,772.5c-1.9,0-3.5-0.6-5-1.7c-0.1-2.2-0.2-4.3-0.3-6.5c0.9-2.5,4.4-4.2,6.6-5.4
	c1.7-0.9,3.5-1.6,5.3-2.2c2.1-0.5,4.3-1.1,6.3-1.6c0.1,0,0.3-0.1,0.4-0.1c0.1,0,0.2-0.1,0.2-0.1c0.7,1.4,1.7,2.6,3.3,3.4
	C173.1,765.6,169.3,773,159.8,772.5z M198.1,778.9c1.9,6.3,5.9,29-9.1,19.3c-6-3.9-9.6-11.7-11.1-18.4c-0.8-3.6-1.1-7.3-0.8-11
	c0.1-1,0.7-7,2-9.6c0.5,0.1,1.1,0.2,1.7,0.3c2.3,0.2,4.7-0.3,6.7-1.4c0,0,0.1,0.1,0.1,0.1c0,0,0,0,0,0.1
	C191.8,764.9,195.8,771.4,198.1,778.9z M217.9,764.3c-0.1,3.2-1.7,4.5-4.7,3.9c-1.4,0.1-2.8-0.1-4.2-0.4c-3.2-0.6-6-1.7-8.8-3.3
	c-3.8-2.2-6.9-5.2-10.3-7.8c2.2-1.7,3.8-4,4.5-6.7c0,0,0,0,0,0c4.3,0.2,8.5,0.2,12.6,1.7c2.2,0.8,4.4,1.9,6.4,3.2
	c1.4,1,2.8,2.1,4,3.4C219.7,760,219.9,762,217.9,764.3z"/>
<path fill="#3D3D3C" d="M877.9,322.2c-7.7-1.5-11.5,6.4-13.1,12.6c-1.5,5.9-3.8,13.9-2.8,20.6c-7.7-14.9-16.6-29.4-26.4-43.2
	c0.7,0.3,1.5,0.2,1.9-0.6c5.3-9.1,9.6-19.2,8.2-29.9c-0.8-6.4-5.9-19.8-14.5-18c-9.1,2-6.9,17.2-5.6,23.5c1.4,6.3,3.2,12.4,5.3,18.5
	c-9.7-13.1-20-25.7-30.8-37.5c4.6-8.8,7.4-18.9,6.6-28.9c-0.5-5.9-4.2-17.5-12.4-14.7c-7.7,2.7-7.1,13.4-6.1,19.7
	c0.9,5.6,2.6,11.3,5.1,16.5c-1-1-1.9-2.1-2.9-3.1c0-0.2-0.1-0.3-0.3-0.3c-8.4-8.6-17.1-16.8-26.1-24.6c2.5-10,2.3-20.3-1.2-30.1
	c-2.3-6.4-8-15.8-16.3-12.2c-7,3.1-4.2,11.9-2.3,17.3c1.8,5.1,4.2,10,7.1,14.5c-1.6-1.3-3.3-2.6-4.9-3.9c-1.6-1.2-3.3-2.5-4.9-3.7
	c-0.1-0.4-0.5-0.7-0.9-0.7c-7.3-5.4-15-10.4-23-14.6c0-0.1,0-0.1,0-0.2c-0.9-10.5-2-23.1-6.9-32.6c-2.6-5.1-8.9-12.7-15.5-9.2
	c-6.4,3.3-3.7,12.9-1.6,18c3.3,8,9.4,14.5,15.9,20c-5.9-2.6-12.1-4.8-18.4-6.3c0.2-0.1,0.5-0.3,0.7-0.4c0.1-0.1,0-0.3-0.1-0.3
	c-0.4-0.1-0.9-0.1-1.4-0.2c0-0.1-0.1-0.1-0.1-0.2c0.2-0.5,0-1.2-0.6-1.3c-0.1,0-0.3-0.1-0.4-0.1c-5-6.8-11.8-12.5-19.3-16.2
	c-5.6-2.7-15.4-4.5-17.7,3.6c-4.4,15.3,24.5,20.1,36.6,16.1c0.3,0.4,0.6,0.7,0.8,1.1c0.6,0.7,1.6,0.3,2-0.4
	c14.5,4.8,28.1,11.9,41,20.3c-6.9-2.5-14.3-3.9-21.7-3.4c-6.4,0.4-16.1,3.5-15.9,11.6c0.3,8.9,12.1,9.8,18.6,9.4
	c9.8-0.7,19.2-4.6,26.2-11.5c0.5,0.2,0.9,0.1,1.3-0.2c5.5,4,10.9,8.2,16.1,12.6c1.9,2.1,4,4.1,6.3,6c0.2,0.2,0.5,0.2,0.7,0.1
	c6.5,5.8,12.8,11.8,18.8,17.9c-7.4-4.1-16.2-6.8-24.3-8c-6-0.9-14.9,1.3-14.8,9c0.2,8.5,12.7,10.4,18.9,10.9
	c8.5,0.7,18.8-0.7,25.8-6c2.7,2.8,5.4,5.7,8,8.5c1.6,1.8,3.2,3.5,4.8,5.3c0.5,0.6,1,1.2,1.6,1.8c0,0,0,0,0,0
	c6.9,7.9,13.5,16,19.9,24.4c-7.1-5.6-15.7-9.9-24.6-11.7c-6.2-1.3-15.7-0.3-14.8,8.1c0.8,8.4,11.3,11,18.1,12.1
	c6.8,1,18.8,1.3,24.9-3.6c4.4,6,8.6,12,12.6,18.2c2.9,4.4,5.6,8.9,8.3,13.3c-5.9-6.4-13.3-12.2-21-14.2c-6.7-1.7-15,1.6-14.7,9.5
	c0.4,9.8,13.2,15.3,21.3,17c4.6,1,15.4,2.4,20-1.6c0.2,0.1,0.4,0.1,0.6,0.1c6.5,11.7,12.5,23.7,18.6,35.8c0.6,1.3,2.5,0.3,2-1
	c-2.5-6.4-5.3-12.8-8.4-19.1c7.3-6.9,17.9-14.6,20.5-24.6C887.8,331.7,885.2,323.6,877.9,322.2z"/>
<path fill="#3D3D3C" d="M972.3,465.7c-8.7-10.7-24.4-9.3-33,0.7c-10.7,12.5-10.1,30.2-14.8,45.2c-6.5,6-13.8,11.1-22.3,14.6
	c4.5-14.2,7.3-28.9,8.7-42.9c1.1-10.5,1.6-21.8,1-33c0.1-0.2,0.1-0.5,0-0.8l0,0c-0.1-0.9-0.1-1.7-0.2-2.6
	c8.8-10,15.6-23.2,12.9-36.8c-2.3-11.5-12.6-21.1-24.8-19.3c-12.8,1.9-15.8,15.6-14.1,26.6c1,6.6,3.7,12.8,8,17.9
	c4.7,5.5,11.2,9.3,16.2,14.5c0.7,12.3-0.1,24.8-1.6,36.5c-0.8,6-1.8,11.9-3.1,17.8c-3.6-2.7-6.8-5.6-9.6-8.8
	c3.3-12.8,3.1-29.5-5.5-40.4c-7.2-9.1-19.9-9.9-26.8,0c-6.7,9.8-5.3,23.1,2.2,32c5.8,6.9,18.2,14.2,26.8,8.3
	c0.2,0.3,0.4,0.5,0.7,0.8c0.1,0.1,0.2,0.2,0.3,0.3c3.3,3.8,7.2,7,11.6,9.5c-1.3,5.8-2.9,11.6-4.7,17.3c-4.2,13.1-10.4,25-16.1,37.4
	c-0.6,1.2,1.1,2,1.8,1c6.7-10,11.8-21.4,15.8-33.4c9.9-3.2,18.4-8.8,25.8-15.8c0.1,0.1,0.3,0.1,0.4,0.1c15.4,2.4,32.7-0.1,43.2-12.7
	C978.9,490,980.6,475.8,972.3,465.7z M899.8,406.4c-0.4-0.7-1.4,0-1,0.7c6.2,11.6,9.3,24.8,10.5,38.2c-0.1,0.1-0.2,0.3-0.3,0.4
	c-0.1,0.2-0.2,0.4-0.3,0.6c-5.5-5.7-12.4-9.9-16.4-17c-5.5-9.6-8.5-30.2,5.1-34.9c13.1-4.5,24,8.2,24.7,20.3
	c0.6,10.9-4.7,20.1-11,28.4C909.7,430,906.3,417.4,899.8,406.4z M865.9,483c-5.6-8.1-6.2-20.1,0.5-27.9c9.6-11.3,22.1-0.9,25.7,9.5
	c3.2,9.1,3.2,18.8,1.2,28.1c-4.1-5.2-7.2-11.1-9.2-17.9c-0.4-1.2-2.1-0.6-1.8,0.6c1.6,6.5,4.6,12.8,8.6,18.2
	C881.9,497.3,871,490.3,865.9,483z M968.1,498.4c-9.7,10.7-24.5,12.6-38.1,11.2c7.4-7.5,13.7-16.2,19.4-24.8c0.7-1.1-1.1-2-1.8-1
	c-6.3,8.8-12.8,17.5-20.4,25.1c3.1-8.9,3.8-18.5,6.8-27.5c4.5-13.2,18.2-27.7,32.7-17C977.9,472.6,976.7,488.8,968.1,498.4z"/>
<path fill="#3D3D3C" d="M212.7,878.6c-12.9-1.6-23.4-10-33.6-17.4c-2.3-1.7-4.5-3.4-6.7-5.1c5.6-2.5,10.3-6.7,13.2-12.1
	c2.7-5,4.6-12.5-0.8-16.4c-5.4-3.8-9.8,1.5-12.3,5.9c-3.3,6-4.7,13.2-3.4,20c-5.4-4.2-10.8-8.6-16-13c-0.5-0.4-0.9-0.8-1.4-1.2
	c4.9-3,8.5-8.9,10.2-14.2c1.2-3.9,2.2-10.7-2.7-12.6c-5.2-1.9-9.4,4.3-11,8.3c-2,4.8-2.1,10-0.6,14.8c-5.6-4.9-11-10-16.3-15.2
	c0.1,0,0.2-0.1,0.3-0.2c5.3-4.4,13.9-6.9,15.8-14.4c1.3-4.9-1.7-10.6-7.2-10.3c-6.4,0.3-10.2,7.6-11.8,13c-0.4,1.2-1.1,5-0.9,8
	c-6.5-6.5-12.8-13.3-18.8-20.2c0,0,0,0,0,0c9.1-2.9,23.3-19,11.5-26.5c-4.9-3.1-9.9,0.7-12.3,5c-3.2,5.7-3.3,12.9-1.4,19
	c-6.5-7.5-12.7-15.3-18.6-23.2c3.7-1,7.3-2.3,10.8-3.6c2.8-1.1,6.3-2.1,8.6-4.1c3.7-3.2,2.9-10.3-0.1-13.8c-3.4-4.1-8.6-1-11.7,1.8
	c-4.7,4.3-7.8,9.8-9.4,15.9c-0.2,0.2-0.4,0.3-0.6,0.5c-3.9-5.3-7.6-10.6-11.2-16.1c0.1-0.1,0.1-0.1,0.2-0.2c0.2-0.3,0.1-0.5,0-0.7
	c0,0,0,0,0,0c7-1.2,26.1-16.8,14.9-24c-4.6-3-9.6,1.5-12.3,5c-3.4,4.6-5.8,9.9-5.6,15.5c-3.7-5.7-7.4-11.6-10.9-17.5
	c0,0,0-0.1,0-0.1c0.1-0.1,0.2-0.2,0.2-0.3c6.7-1.4,12.5-5.9,15.6-12c2.7-5.3,3.8-13.3-2-17c-5.6-3.5-10,1.1-12.6,5.8
	c-3.2,5.9-4.7,13.1-3.4,19.8c-3.8-6.6-7.5-13.3-11-20c0.3-0.7,0.6-1.4,0.9-2.2c5.4-5.1,9.1-11.9,10-19.4c0.6-4.9,0.2-11.6-4.8-14.2
	c-10.4-5.4-11.5,15.1-10.6,27c-2-4.1-4-8.2-6-12.4c0-0.1,0-0.2,0-0.3c-1.8-7.7-0.7-15-4.4-22.4c-1.7-3.4-5.4-8.5-9.5-5
	c-3.8,3.2-2.1,10.1-0.7,13.9c2.2,6.2,6.5,11.2,12.2,14.5c0.4,0.2,0.8,0.1,1-0.1c0.1,0.1,0.3,0.2,0.5,0.2c2.4,5.6,4.9,11.2,7.5,16.7
	c0,0,0,0.1,0,0.1c-2.5-2.9-5-5.7-7.7-8.3c-2.4-2.4-5.1-5.5-8.2-7c-3.6-1.8-8.2-0.6-8.4,4c-0.2,5,5.3,10,9.2,12.4
	c5,3,10.9,4,16.6,2.7c0,0,0,0.1,0,0.1c-0.3,0.8,0.4,1.4,1.1,1.4c3.2,6.5,6.6,12.8,10.1,19.1c-3.9-3.5-8.2-6.9-12.7-8.7
	c-4-1.6-10-1.1-11,4c-1.1,5.2,4.4,8.8,8.5,10.4c5.9,2.4,12.5,2.4,18.4,0c0,0,0.1,0.1,0.1,0.1c3.1,5.4,6.4,10.6,9.8,15.9
	c-4.3-4-9.2-7.5-15.2-8.2c-4.5-0.5-10.9,0.2-9.3,5.9c3.4,12.2,19.4,15.8,28,7.6c3.4,5.1,6.9,10,10.5,14.9
	c-4.6-3.6-10.3-6.2-16.2-6.4c-4.2-0.1-9,1.8-8.6,6.8c0.8,11.2,19.4,10,26.1,3.4c0.5,0.3,1,0.2,1.4-0.2c5,6.6,10.1,13.1,15.5,19.5
	c-4-2.3-8.4-3.8-12.9-3.9c-4-0.1-8.8,1.5-8.8,6.3c0,5.7,6.9,8.5,11.6,9c4.5,0.4,12.9-0.4,16.3-4c5.5,6.3,11.3,12.4,17.1,18.4
	c-4.8-2-10-3.3-15.1-2.8c-3.6,0.4-10.5,2.4-9.8,7.4c0.7,4.4,6.9,6.5,10.6,7c7.1,0.8,13.6-2.6,19.2-6.6c0,0,0,0,0,0
	c5.1,5,10.3,9.9,15.6,14.6c-4.2-0.8-8.6-0.4-12.6,1.3c-3.4,1.4-8.3,4.8-6.8,9.2c1.5,4.5,8,4.1,11.7,3.3c5.3-1.1,10.4-4.3,13.1-9.1
	c4.3,3.8,8.7,7.5,13.2,11.1c0.5,0.4,1,0.8,1.5,1.2c-10.3-0.1-31.2,2.9-25,13.5c3.2,5.5,11.5,4.3,16.3,2.6c6-2.2,11.2-6,14.5-11.5
	c5.1,3.9,10.2,7.7,15.5,11.4c7.9,5.5,16.3,11.2,26.2,11.3C214.1,880.6,214,878.7,212.7,878.6z M92.5,757.7c2.2-3.1,11-13,13.7-4.7
	c1,3.2,1.5,5.9-1.7,8.4c-1.7,1.4-4.6,2-6.7,2.8c-2.9,1.1-5.8,2-8.7,3c0.6-0.5,1.2-1.1,1.8-1.6c1.8-1.7,3.4-3.4,4.9-5.4
	c0.4-0.5-0.5-1.2-0.9-0.7c-1.6,1.6-3.2,3.2-4.9,4.6c-0.4,0.3-0.9,0.7-1.3,1C89.6,762.4,90.9,760,92.5,757.7z M33.9,679.2
	c-0.7-1.1-1.4-2.2-1.9-3.3c-1.1-2.4-1.8-5.1-2.3-7.7c-0.1-0.7-1.2-0.5-1.2,0.2c0.3,4.2,1.5,9.6,4.3,13.1c-2.9-2.5-5.3-5.4-7-8.9
	c-1.2-2.4-2.1-5-2.5-7.7c-0.4-1.7-0.4-3.3,0.1-5c2.9-2.5,4.8-2.6,6-0.3c3.5,3.4,4.4,11,4.5,15.6C33.9,676.6,33.8,677.9,33.9,679.2z
	 M38,701.3c-2.1-1.2-4-2.5-5.9-4c-0.5-0.4-1.2,0.2-0.7,0.7c2.5,2.3,5.5,4.8,8.8,6.4c-6.9-0.6-13.7-3.9-17.2-10.1
	c-1.3-2.3-1.5-2.5,0.6-4.4c2.3-2.1,2.5-1.6,4.7,0.1c1.9,1.4,3.5,3.1,5.2,4.7c2.7,2.7,5.3,5.5,7.8,8.3C40.2,702.3,39,701.9,38,701.3z
	 M45.8,702.8c-0.2-0.3-0.3-0.6-0.5-0.9c-0.5-4.1-1-8.1-0.9-12.2c0.1-3,0.5-6,1.1-9c0.3-1.5,0.7-3.1,1.2-4.5c4.7-3.9,7.4-4.1,8.2-0.6
	c2.3,3.7,0.6,10.9-0.7,14.5c-1.1,3.4-2.8,6.3-4.8,9c1-3.9,1.6-7.9,1.9-11.8c0-0.7-1.1-0.8-1.2-0.2C49.3,692.6,47.7,697.6,45.8,702.8
	z M46.5,731c-2.1-0.4-4.3-1.1-6.2-2.1c-1.3-0.6-2.5-1.5-3.6-2.5c-2.5-1.8-2.7-3.6-0.5-5.3c0.8-2.5,2.5-3.3,5.1-2.2
	c1.2,0.4,2.3,0.9,3.3,1.6c1.5,0.9,2.9,1.9,4.3,2.9c2.3,1.7,4.5,3.4,6.6,5.2c-1.2-0.3-2.4-0.5-3.6-0.9c-2.4-0.8-4.6-2-7-2.7
	c-0.5-0.1-0.9,0.5-0.5,0.8c3,2.6,7.9,4.5,12.2,5C53.3,731.4,49.9,731.7,46.5,731z M66.8,702.4c6.8-0.6,9.8,1.4,9,6
	c0.2,1.5,0,3-0.5,4.4c-0.7,2.4-2.2,4.8-3.8,6.7c-2.3,2.7-5.1,4.5-8.3,5.8c2-3.4,3.6-7.3,4.8-10.7c0.2-0.6-0.7-1-1-0.4
	c-1.2,2.5-2.6,4.9-4,7.3c-0.9,1.4-1.9,2.6-2.8,3.9C59.7,717.5,60.2,707.3,66.8,702.4z M47.7,746.7c-3.9-7.4,8.8-4.9,12.4-3
	c3.3,1.7,6.1,4.2,8.8,6.7c-1.8-0.3-3.7-0.5-5.6-0.8c-2.7-0.6-5.4-1.3-8.1-1.8c-0.4-0.1-0.7,0.5-0.3,0.7c2.5,1.2,5.2,2,8,2.7
	c2.2,0.5,4.7,1.2,7,1.3C62.2,756.6,52.4,755.6,47.7,746.7z M76.4,736.1c1.9-3.2,12.2-15.3,13.4-4.1c0.6,5.9-5.7,9.8-11.2,13
	c1.4-2.4,2.1-5.3,2.2-7.9c0-0.7-1-0.6-1,0c-0.3,2.4-1.3,4.8-2.8,6.7c-1.1,1.5-2.5,2.4-3.9,3.5C73,743.4,74.3,739.6,76.4,736.1z
	 M82.1,771.1c-0.1,0-0.1-0.1-0.2-0.1c-5.1-0.8-10-1-15-2.5c-0.8-0.3-1.1,1-0.3,1.3c4,1.5,8.6,2.8,13,2.7c-5.6,2.4-13.3,2.9-16.8-1.3
	c-3.2-3.7,1.4-7.7,5.4-7.2c1.8,0.2,3.5,0.6,5.1,1.1c3.7,1.2,6.8,3.1,9.7,5.5C82.7,770.7,82.4,770.9,82.1,771.1z M92.7,796
	c3.5,0.9,7.1,1.6,10.7,1.7c-2.3,0.8-5.2,1.8-5.8,2c-3.4,0.6-13.9,0.8-14.8-4.3c0.4-1.7,0.8-3.4,1.2-5.2c1.4-0.6,2.9-0.9,4.4-0.9
	c2,0,4.2,0.5,6.1,1.1c4,1.2,7.6,3.2,10.8,5.8c-4.1-0.3-8.2-0.4-12.3-1.2C92.3,794.9,92.1,795.8,92.7,796z M107.8,781.8
	c0.8-4.2,7.2-17.5,13-7.8c2.8,4.6-1.4,10.9-4.5,14.1c-1.9,1.9-3.9,3.2-6.1,4.4c0.5-0.8,0.9-1.6,1.2-2.4c1-2.1,1.7-4.3,2-6.6
	c0.1-0.6-0.8-0.9-1-0.3c-0.6,2.1-1.4,4.1-2.5,6c-0.6,1-1.4,1.9-2.1,2.8C107.2,788.6,107.1,785.2,107.8,781.8z M114.1,822.1
	c3.5,0.6,7.7,0.4,11.5,0c-2.6,1.3-5.3,2.6-8.1,3.3c-2.4,0.6-5.1,0.8-7.6,0.3c-1.5-0.3-6.1-1.5-6.5-3.1c1-1.9,2-3.7,3-5.6
	c1.6-0.6,3.2-0.9,4.9-0.9c2.3-0.1,4.7,0.3,7,0.8c3.4,0.8,6.6,2.2,9.9,3.4c0,0,0,0,0,0c-4.4-0.2-9.8-0.1-14,1.1
	C113.7,821.4,113.7,822.1,114.1,822.1z M129.8,818c0.2-1.5-0.3-5.3-0.1-6.3c0.4-2.3,1.2-4.5,2.3-6.5c0.8-1.5,1.8-3.3,2.9-4.5
	c2.8-3,8.8-4.3,10,1c1.5,6.1-5,10-10.4,13.2c1.2-2.2,2.2-4.5,3-6.8c0.2-0.7-0.8-1.1-1.2-0.5c-1.8,3.8-4.2,6.9-6.5,10.3
	C129.8,818,129.8,818,129.8,818z M142.8,841.5c-2.4,0.7-4.8,1.1-7.2,1.6c-0.7,0.1-0.5,1.2,0.2,1.2c0,0,0,0,0,0
	c3.6-0.1,8.2-0.7,11.8-2.3c-1.6,1.5-3.2,2.9-5.3,3.9c-2.8,1.4-8.4,3.3-11.6,1.9c-5.5-2.5-0.5-6.1,1.5-7.3c1.6-0.9,3.4-1.5,5.2-1.9
	c3.8-0.8,7.3-0.2,10.8,1C146.4,840.1,144.6,840.9,142.8,841.5z M153.9,824.2c-0.1-1-1.5-1-1.5,0c-0.1,2.6-0.5,5.2-1.6,7.6
	c-0.4,1-1,1.8-1.6,2.7c-0.7-3.1-0.8-6.4,0-9.6c0.5-1.8,1.2-3.6,2.1-5.2c1.6-2.8,7.2-7.1,8.8-1.4c0.9,3.4-1.6,8.4-3.3,11.2
	c-1.5,2.5-3.4,4.3-5.4,6.2C153.6,832.5,154.2,827.6,153.9,824.2z M171.5,841.7c1.1-3.9,5.3-14.8,11.3-12.3c7.3,3-0.1,14.8-3,18
	c-2.1,2.3-4.5,4-7.1,5.4c2.2-3,3.2-7,3.5-10.4c0.1-0.7-1.1-0.9-1.3-0.2c-0.5,2.2-1.2,4.3-2.3,6.3c-0.6,1.1-1.4,2.1-2.2,3.1
	C170.4,848.3,170.6,845,171.5,841.7z M152.5,859.8c4.8,0.4,11,0.5,15.7-1.3c-2.3,2.6-4.9,4.7-8,6.3c-2.7,1.4-15.4,6.6-17.1,1.3
	c-2.2-7.1,6.8-9.2,11.9-10.2c4.3-0.9,8.4-0.7,12.7-0.6c0.5,0.4,1.1,0.8,1.6,1.2c-2.3,0.3-4.6,1.1-6.9,1.5c-3.3,0.6-6.6,0.7-10,0.5
	C151.7,858.6,151.7,859.7,152.5,859.8z"/>
<image width="1954" height="1954" xlink:href="3CE588564E1152B0.png"  transform="matrix(0.24 0 0 0.24 254.553 314.4088)">
</image>
</svg>
