<?xml version="1.0" encoding="utf-8"?>
<!-- Generator: Adobe Illustrator 19.1.0, SVG Export Plug-In . SVG Version: 6.00 Build 0)  -->
<svg version="1.1" id="Layer_1" xmlns="http://www.w3.org/2000/svg" xmlns:xlink="http://www.w3.org/1999/xlink" x="0px" y="0px"
	 viewBox="96 102.8 1191.2 797.2" style="enable-background:new 96 102.8 1191.2 797.2;" xml:space="preserve">
<style type="text/css">
	.st0{fill:#43C4C2;}
	.st1{fill:#E6E6E7;}
</style>
<path class="st0" d="M806.7,566.2h-226c-10.9,0-19.7,8.8-19.7,19.7v230.9c0,10.9,8.8,19.7,19.7,19.7h226c10.9,0,19.7-8.8,19.7-19.7
	V586C826.4,575.1,817.6,566.2,806.7,566.2z M697.2,663.7l-57.8,75.2c-0.6,0.8-1.5,1.2-2.4,1.2c-1,0-1.9-0.4-2.4-1.2l-57.8-75.2
	c-0.4-0.6-0.6-1.2-0.6-1.9c0-0.6,0.2-1.3,0.6-1.8c0.8-1.1,2.3-1.5,3.6-1l38.3,15.1v-88.6c0-1.7,1.4-3.1,3.1-3.1h30.7
	c1.7,0,3.1,1.4,3.1,3.1v88.6l38.3-15.1c1.3-0.5,2.7-0.1,3.6,1C698.1,661.1,698.1,662.6,697.2,663.7z M843.7,512.7h-300
	c-19.6,0-35.4,15.9-35.4,35.4v306.5c0,19.6,15.9,35.4,35.4,35.4h300c19.6,0,35.4-15.9,35.4-35.4V548.2
	C879.1,528.6,863.2,512.7,843.7,512.7z M840.4,816.9c0,18.6-15.1,33.7-33.7,33.7h-226c-18.6,0-33.7-15.1-33.7-33.7V586
	c0-18.6,15.1-33.7,33.7-33.7h226c18.6,0,33.7,15.1,33.7,33.7V816.9z"/>
<path class="st1" d="M1196.8,566H971.3c-10.9,0-19.7,8.8-19.7,19.7v230.4c0,10.9,8.8,19.7,19.7,19.7h225.6
	c10.8,0,19.7-8.8,19.7-19.7V585.7C1216.5,574.8,1207.7,566,1196.8,566z M1131.4,654.9l-75,57.7c-0.6,0.4-1.2,0.6-1.9,0.6
	c-0.6,0-1.3-0.2-1.8-0.6c-1.1-0.8-1.5-2.3-1-3.6l15.1-38.2h-88.4c-1.7,0-3.1-1.4-3.1-3.1v-30.6c0-1.7,1.4-3.1,3.1-3.1h88.4
	l-15.1-38.2c-0.5-1.3-0.1-2.7,1-3.6c1.1-0.8,2.6-0.8,3.7,0l75,57.7c0.8,0.6,1.2,1.5,1.2,2.4C1132.6,653.4,1132.2,654.3,1131.4,654.9
	z M1233.7,512.6H934.3c-19.5,0-35.4,15.8-35.4,35.4v305.8c0,19.5,15.8,35.4,35.4,35.4h299.4c19.5,0,35.4-15.8,35.4-35.4V548
	C1269.1,528.4,1253.2,512.6,1233.7,512.6z M1230.4,816.1c0,18.5-15.1,33.6-33.6,33.6H971.3c-18.5,0-33.6-15.1-33.6-33.6V585.7
	c0-18.5,15.1-33.6,33.6-33.6h225.6c18.5,0,33.6,15.1,33.6,33.6L1230.4,816.1L1230.4,816.1z"/>
<g>
	<path class="st0" d="M808.8,168.7h-226c-10.9,0-19.7,8.8-19.7,19.7v231c0,10.9,8.8,19.7,19.7,19.7h226c10.9,0,19.7-8.8,19.7-19.7
		v-231C828.5,177.6,819.7,168.7,808.8,168.7z M706.3,263.6c-0.8,1.1-2.3,1.5-3.6,1l-38.3-15.1v88.6c0,1.7-1.4,3.1-3.1,3.1h-30.7
		c-1.7,0-3.1-1.4-3.1-3.1v-88.6l-38.3,15.1c-1.3,0.5-2.7,0.1-3.6-1c-0.8-1.1-0.8-2.6,0-3.7l57.8-75.2c0.6-0.8,1.5-1.2,2.4-1.2
		c1,0,1.9,0.4,2.4,1.2l57.8,75.2c0.4,0.6,0.6,1.2,0.6,1.9C706.9,262.4,706.7,263.1,706.3,263.6z M845.8,115.2h-300
		c-19.6,0-35.4,15.9-35.4,35.4v306.5c0,19.6,15.9,35.4,35.4,35.4h300c19.6,0,35.4-15.9,35.4-35.4V150.7
		C881.2,131.1,865.4,115.2,845.8,115.2z M842.5,419.4c0,18.6-15.1,33.7-33.7,33.7h-226c-18.6,0-33.7-15.1-33.7-33.7v-231
		c0-18.6,15.1-33.7,33.7-33.7h226c18.6,0,33.7,15.1,33.7,33.7V419.4z"/>
</g>
<path class="st1" d="M415.7,566.1h-226c-10.9,0-19.7,8.8-19.7,19.7v230.9c0,10.9,8.8,19.7,19.7,19.7h226c10.9,0,19.7-8.8,19.7-19.7
	V585.8C435.5,574.9,426.6,566.1,415.7,566.1z M192.6,647.2l75.2-57.8c0.6-0.4,1.2-0.6,1.9-0.6c0.6,0,1.3,0.2,1.8,0.6
	c1.1,0.8,1.5,2.3,1,3.6l-15.1,38.3H346c1.7,0,3.1,1.4,3.1,3.1v30.7c0,1.7-1.4,3.1-3.1,3.1h-88.6l15.1,38.3c0.5,1.3,0.1,2.7-1,3.6
	c-1.1,0.8-2.6,0.8-3.7,0l-75.2-57.8c-0.8-0.6-1.2-1.5-1.2-2.4C191.4,648.6,191.9,647.7,192.6,647.2z M452.7,512.6h-300
	c-19.6,0-35.4,15.9-35.4,35.4v306.5c0,19.6,15.9,35.4,35.4,35.4h300c19.6,0,35.4-15.9,35.4-35.4V548
	C488.2,528.4,472.3,512.6,452.7,512.6z M449.4,816.7c0,18.6-15.1,33.7-33.7,33.7h-226c-18.6,0-33.7-15.1-33.7-33.7V585.8
	c0-18.6,15.1-33.7,33.7-33.7h226c18.6,0,33.7,15.1,33.7,33.7V816.7L449.4,816.7z"/>
</svg>
