<?xml version="1.0" encoding="utf-8"?>
<!-- Generator: Adobe Illustrator 19.1.0, SVG Export Plug-In . SVG Version: 6.00 Build 0)  -->
<svg version="1.2" baseProfile="tiny" id="Layer_1" xmlns="http://www.w3.org/2000/svg" xmlns:xlink="http://www.w3.org/1999/xlink"
	 x="0px" y="0px" viewBox="0 0 500 500" xml:space="preserve">
<g>
	<g>
		<path fill="#FFFFFF" d="M5,130.1V480h487.6V130.1H5z M132.8,159.1c0,0,78.8,7.2,117,7.2c38.2,0,114.9-7.2,114.9-7.2
			c4.3,0,7.8,3.5,7.8,7.8c0,4.3-3.5,7.8-7.8,7.8c0,0-51.8,7.2-115.6,7.2c-63.8,0-116.3-7.2-116.3-7.2c-4.3,0-7.8-3.5-7.8-7.8
			C125,162.6,128.5,159.1,132.8,159.1z M285.1,420.2h-72.5v-16.3h72.5L285.1,420.2L285.1,420.2z M411,364.8H86.6V208.9H411V364.8z"
			/>
	</g>
	<g>
		<path fill="#FFFFFF" d="M5,25v96.1h487.6V25H5z M435.7,96.6h-378V41.3h378V96.6z"/>
	</g>
	<circle fill="#FFFFFF" cx="355.9" cy="68.5" r="16.3"/>
	<circle fill="#FFFFFF" cx="405.5" cy="68.5" r="16.3"/>
	<circle fill="#FFFFFF" cx="83.4" cy="69.1" r="10.8"/>
	<circle fill="#FFFFFF" cx="114.1" cy="69.1" r="10.8"/>
	<circle fill="#FFFFFF" cx="144.8" cy="69.1" r="10.8"/>
	<circle fill="#FFFFFF" cx="175.5" cy="69.1" r="10.8"/>
</g>
</svg>
