<?xml version="1.0" encoding="utf-8"?>
<!-- Generator: Adobe Illustrator 19.1.0, SVG Export Plug-In . SVG Version: 6.00 Build 0)  -->
<svg version="1.2" baseProfile="tiny" id="Layer_1" xmlns="http://www.w3.org/2000/svg" xmlns:xlink="http://www.w3.org/1999/xlink"
	 x="0px" y="0px" viewBox="0 0 500 500" xml:space="preserve">
<g>
	<path fill="#FFFFFF" d="M66.7,125.4h361.2V65.7H66.7V125.4L66.7,125.4z M76.9,146.4h340.2c1.6,0,3.2,1.6,3.2,3.2v150.2h7V138.4
		H66.7v161.5h7V149.7C73.7,148,75.3,146.4,76.9,146.4L76.9,146.4z M413.9,152.9v146.9H80.1V152.9H413.9L413.9,152.9z M384.8,479.6
		h30.7v-7.5h-30.7V479.6L384.8,479.6z M27.9,318.1h438.1v-5.4H27.9V318.1L27.9,318.1z M479,324.6c0,1.1,0,1.6-0.5,2.7l-37.7,102.8
		v35c0,3.8-2.7,6.5-6.5,6.5h-4.8v14c0,3.8-2.7,6.5-6.5,6.5h-44.1c-3.8,0-6.5-2.7-6.5-6.5v-14H122.1v14c0,3.8-2.7,6.5-6.5,6.5H71.5
		c-3.8,0-6.5-2.7-6.5-6.5v-14h-4.8c-3.8,0-6.5-2.7-6.5-6.5v-35L15.5,327.3c-0.5-0.5-0.5-1.6-0.5-2.7v-18.3c0-3.8,2.7-6.5,6.5-6.5
		h32.3V59.2c0-1.6,0.5-3.2,1.6-4.3l31.8-44.1c1.1-1.6,3.2-2.7,5.4-2.7h310c2.2,0,4.3,1.1,5.4,3.2l31.2,43.6c1.1,1.1,1.6,2.7,1.6,4.3
		v241.1h32.3c3.8,0,6.5,2.7,6.5,6.5v17.8H479z M304,331.6v3.2c0,8.1-7,15.1-15.1,15.1h-84c-8.1,0-15.1-7-15.1-15.1v-3.2H30.6
		l33.9,91h364.9l33.9-91H304L304,331.6z M202.9,331.6v3.2c0,1.1,1.1,2.2,2.2,2.2h84.5c1.1,0,2.2-1.1,2.2-2.2v-3.2H202.9L202.9,331.6
		z M427.3,435.5H66.7v23.1h4.8h44.1h263.2H423h4.8v-23.1H427.3z M78,479.6h30.7v-7.5H78L78,479.6L78,479.6z M398.8,21H95.2
		L72.6,52.2h348.3L398.8,21z"/>
	<path fill="#FFFFFF" d="M83.4,82.9c0-3.8,2.7-6.5,6.5-6.5c3.8,0,6.5,2.7,6.5,6.5v25.3c0,3.8-2.7,6.5-6.5,6.5
		c-3.8,0-6.5-2.7-6.5-6.5V82.9z"/>
	<path fill="#FFFFFF" d="M118.3,82.9c0-3.8,2.7-6.5,6.5-6.5c3.8,0,6.5,2.7,6.5,6.5v25.3c0,3.8-2.7,6.5-6.5,6.5
		c-3.8,0-6.5-2.7-6.5-6.5V82.9z"/>
	<path fill="#FFFFFF" d="M152.8,82.9c0-3.8,2.7-6.5,6.5-6.5c3.8,0,6.5,2.7,6.5,6.5v25.3c0,3.8-2.7,6.5-6.5,6.5
		c-3.8,0-6.5-2.7-6.5-6.5V82.9z"/>
	<path fill="#FFFFFF" d="M187.2,82.9c0-3.8,2.7-6.5,6.5-6.5c3.8,0,6.5,2.7,6.5,6.5v25.3c0,3.8-2.7,6.5-6.5,6.5
		c-3.8,0-6.5-2.7-6.5-6.5V82.9z"/>
	<path fill="#FFFFFF" d="M222.2,82.9c0-3.8,2.7-6.5,6.5-6.5s6.5,2.7,6.5,6.5v25.3c0,3.8-2.7,6.5-6.5,6.5s-6.5-2.7-6.5-6.5V82.9z"/>
	<path fill="#FFFFFF" d="M385.9,74.8c5.4,0,10.8,2.2,14.5,5.9l0,0l0,0l0,0c3.8,3.8,5.9,8.6,5.9,14.5c0,5.4-2.2,10.8-5.9,14.5l0,0
		l0,0l0,0c-3.8,3.8-8.6,5.9-14.5,5.9c-5.4,0-10.8-2.2-14.5-5.9l0,0l0,0l0,0c-3.8-3.8-5.9-8.6-5.9-14.5c0-5.4,2.2-10.8,5.9-14.5l0,0
		l0,0l0,0C375.1,77.5,380.5,74.8,385.9,74.8L385.9,74.8z M393.4,87.8c-2.2-2.2-4.8-3.2-7.5-3.2c-3.2,0-5.4,1.1-7.5,3.2l0,0
		c-2.2,2.2-3.2,4.8-3.2,7.5c0,3.2,1.1,5.4,3.2,7.5l0,0c2.2,2.2,4.8,3.2,7.5,3.2c3.2,0,5.4-1.1,7.5-3.2l0,0c2.2-2.2,3.2-4.8,3.2-7.5
		C396.6,92.6,395.6,89.9,393.4,87.8L393.4,87.8z"/>
	<path fill="#FFFFFF" d="M264.8,169c16.1,0,30.7,6.5,41.4,17.2c10.8,10.8,17.2,25.3,17.2,41.4s-6.5,30.7-17.2,41.4
		c-10.8,10.8-25.3,17.2-41.4,17.2s-30.7-6.5-41.4-17.2c-10.8-10.8-17.2-25.3-17.2-41.4s6.5-30.7,17.2-41.4
		C234.1,176,248.6,169,264.8,169L264.8,169z M301.9,191.1c-9.2-9.2-22.6-15.1-36.6-15.1c-14.5,0-27.5,5.9-36.6,15.1
		c-9.2,9.2-15.1,22.6-15.1,36.6s5.9,27.5,15.1,36.6c9.2,9.2,22.6,15.1,36.6,15.1c14.5,0,27.5-5.9,36.6-15.1
		c9.2-9.2,15.1-22.6,15.1-36.6S311,200.3,301.9,191.1z"/>
	<path fill="#FFFFFF" d="M264.8,196c8.6,0,16.7,3.8,22.6,9.2l0,0c5.9,5.9,9.2,13.5,9.2,22.1s-3.8,16.7-9.2,22.6l0,0l0,0l0,0
		c-5.9,5.9-14,9.2-22.6,9.2c-8.6,0-16.7-3.8-22.6-9.2l0,0c-5.9-5.9-9.2-14-9.2-22.6c0-8.6,3.8-16.7,9.2-22.6
		C248.1,199.2,256.1,196,264.8,196L264.8,196z M283.1,209.9c-4.8-4.8-10.8-7.5-17.8-7.5s-13.5,2.7-17.8,7.5
		c-4.8,4.8-7.5,10.8-7.5,17.8s2.7,13.5,7.5,17.8l0,0l0,0c4.3,4.8,10.8,7.5,17.8,7.5s13.5-2.7,17.8-7.5l0,0
		c4.3-4.3,7.5-10.8,7.5-17.8C290.1,220.7,287.4,214.8,283.1,209.9L283.1,209.9z"/>
	<path fill="#FFFFFF" d="M189.4,201.3c-3.2-1.6-6.5-4.8-8.1-8.6c-1.6-2.7-2.7-6.5-3.8-9.7v89.4c1.1-3.2,2.2-7,3.8-9.7
		c2.2-3.8,4.8-7.5,8.1-8.6V201.3L189.4,201.3z M186.7,189.5c1.6,3.2,3.8,5.9,5.9,5.9c1.6,0,3.2,1.6,3.2,3.2v57.1l0,0
		c0,1.6-1.1,3.2-2.7,3.2c-2.2,0.5-4.3,2.7-6.5,5.9c-2.7,5.4-4.3,12.4-4.8,17.2c0,1.6-1.6,3.2-3.2,3.2h-4.8c-1.6,0-3.2-1.6-3.2-3.2
		V172.8c0-1.6,1.6-3.2,3.2-3.2h4.8l0,0c1.6,0,3.2,1.1,3.2,3.2C182.4,177.1,184,184.1,186.7,189.5z"/>
	<path fill="#FFFFFF" d="M117.3,201.3c-3.2-1.6-6.5-4.8-8.1-8.6c-1.6-2.7-2.7-6.5-3.8-9.7v89.4c1.1-3.2,2.2-7,3.8-9.7
		c2.2-3.8,4.8-7.5,8.1-8.6V201.3L117.3,201.3z M114.6,189.5c1.6,3.2,3.8,5.9,5.9,5.9c1.6,0,3.2,1.6,3.2,3.2v57.1l0,0
		c0,1.6-1.1,3.2-2.7,3.2c-2.2,0.5-4.3,2.7-6.5,5.9c-2.7,5.4-4.3,12.4-4.8,17.2c0,1.6-1.6,3.2-3.2,3.2h-4.8c-1.6,0-3.2-1.6-3.2-3.2
		V172.8c0-1.6,1.6-3.2,3.2-3.2h4.8l0,0c1.6,0,3.2,1.1,3.2,3.2C110.3,177.1,111.9,184.1,114.6,189.5z"/>
	<path fill="#FFFFFF" d="M153.3,201.3c-3.2-1.6-6.5-4.8-8.1-8.6c-1.6-2.7-2.7-6.5-3.8-9.7v89.4c1.1-3.2,2.2-7,3.8-9.7
		c2.2-3.8,4.8-7.5,8.1-8.6V201.3L153.3,201.3z M150.6,189.5c1.6,3.2,3.8,5.9,5.9,5.9c1.6,0,3.2,1.6,3.2,3.2v57.1l0,0
		c0,1.6-1.1,3.2-2.7,3.2c-2.2,0.5-4.3,2.7-6.5,5.9c-2.7,5.4-4.3,12.4-4.8,17.2c0,1.6-1.6,3.2-3.2,3.2h-4.8c-1.6,0-3.2-1.6-3.2-3.2
		V172.8c0-1.6,1.6-3.2,3.2-3.2h4.8l0,0c1.6,0,3.2,1.1,3.2,3.2C146.3,177.1,148,184.1,150.6,189.5z"/>
	<path fill="#FFFFFF" d="M388.6,201.3c-3.2-1.6-6.5-4.8-8.1-8.6c-1.6-2.7-2.7-6.5-3.8-9.7v89.4c1.1-3.2,2.2-7,3.8-9.7
		c2.2-3.8,4.8-7.5,8.1-8.6V201.3L388.6,201.3z M386.4,189.5c1.6,3.2,3.8,5.9,5.9,5.9c1.6,0,3.2,1.6,3.2,3.2v57.1l0,0
		c0,1.6-1.1,3.2-2.7,3.2c-2.2,0.5-4.3,2.7-6.5,5.9c-2.7,5.4-4.3,12.4-4.8,17.2c0,1.6-1.6,3.2-3.2,3.2h-4.8c-1.6,0-3.2-1.6-3.2-3.2
		V172.8c0-1.6,1.6-3.2,3.2-3.2h4.8l0,0c1.6,0,3.2,1.1,3.2,3.2C381.6,177.1,383.2,184.1,386.4,189.5z"/>
	<path fill="#FFFFFF" d="M353,201.3c-3.2-1.6-6.5-4.8-8.1-8.6c-1.6-2.7-2.7-6.5-3.8-9.7v89.4c1.1-3.2,2.2-7,3.8-9.7
		c2.2-3.8,4.8-7.5,8.1-8.6V201.3L353,201.3z M350.3,189.5c1.6,3.2,3.8,5.9,5.9,5.9c1.6,0,3.2,1.6,3.2,3.2v57.1l0,0
		c0,1.6-1.1,3.2-2.7,3.2c-2.2,0.5-4.3,2.7-6.5,5.9c-2.7,5.4-4.3,12.4-4.8,17.2c0,1.6-1.6,3.2-3.2,3.2h-4.8c-1.6,0-3.2-1.6-3.2-3.2
		V172.8c0-1.6,1.6-3.2,3.2-3.2h4.8l0,0c1.6,0,3.2,1.1,3.2,3.2C346,177.1,347.6,184.1,350.3,189.5z"/>
	<path fill="#FFFFFF" d="M91.4,211c-1.6,0-3.2-1.6-3.2-3.2c0-1.6,1.6-3.2,3.2-3.2h311.7c1.6,0,3.2,1.6,3.2,3.2
		c0,1.6-1.6,3.2-3.2,3.2H91.4z"/>
	<path fill="#FFFFFF" d="M91.4,250.9c-1.6,0-3.2-1.6-3.2-3.2s1.6-3.2,3.2-3.2h311.7c1.6,0,3.2,1.6,3.2,3.2s-1.6,3.2-3.2,3.2H91.4z"
		/>
	<path fill="#FFFFFF" d="M91.4,230.9c-1.6,0-3.2-1.6-3.2-3.2s1.6-3.2,3.2-3.2h311.7c1.6,0,3.2,1.6,3.2,3.2s-1.6,3.2-3.2,3.2H91.4z"
		/>
</g>
</svg>
