<?xml version="1.0" encoding="utf-8"?>
<!-- Generator: Adobe Illustrator 19.1.0, SVG Export Plug-In . SVG Version: 6.00 Build 0)  -->
<svg version="1.2" baseProfile="tiny" id="Layer_1" xmlns="http://www.w3.org/2000/svg" xmlns:xlink="http://www.w3.org/1999/xlink"
	 x="0px" y="0px" viewBox="0 0 500 500" xml:space="preserve">
<g>
	<polygon fill="#FFFFFF" points="331.6,238 331.6,5.5 169.2,5.5 169.2,238 22.2,341.5 478.6,341.5 	"/>
	<path fill="#FFFFFF" d="M22.1,361.5v23h456.6v-23H22.1z M219.1,378.4c-3,0-5.5-2.4-5.5-5.5c0-3,2.4-5.5,5.5-5.5
		c3,0,5.5,2.5,5.5,5.5C224.6,376,222.1,378.4,219.1,378.4z M234.7,378.4c-3,0-5.5-2.4-5.5-5.5c0-3,2.5-5.5,5.5-5.5
		c3,0,5.5,2.5,5.5,5.5C240.2,376,237.8,378.4,234.7,378.4z M250.4,378.4c-3,0-5.5-2.4-5.5-5.5c0-3,2.5-5.5,5.5-5.5
		c3,0,5.5,2.5,5.5,5.5C255.8,376,253.4,378.4,250.4,378.4z M266,378.4c-3,0-5.5-2.4-5.5-5.5c0-3,2.5-5.5,5.5-5.5s5.5,2.5,5.5,5.5
		C271.5,376,269,378.4,266,378.4z M281.6,378.4c-3,0-5.5-2.4-5.5-5.5c0-3,2.4-5.5,5.5-5.5c3,0,5.5,2.5,5.5,5.5
		C287.1,376,284.6,378.4,281.6,378.4z"/>
	<path fill="#FFFFFF" d="M221.5,448.7c0-5.4-3.3-9.5-6.2-13.2c-2.3-2.8-4.4-5.5-4.4-8c0-4,2.7-7.8,5.5-11.9c1.6-2.3,3.3-4.8,4.6-7.4
		c1-2.1,0.2-4.6-1.9-5.6s-4.6-0.2-5.6,1.9c-1,2.1-2.5,4.2-4,6.4c-3.3,4.7-7,10.1-7,16.7c0,5.4,3.3,9.5,6.2,13.2
		c2.3,2.8,4.4,5.5,4.4,8s-2.1,5.2-4.4,8c-2.9,3.6-6.2,7.8-6.2,13.2c0,6.6,3.7,11.9,7,16.7c1.5,2.2,3,4.3,4,6.4
		c0.7,1.5,2.2,2.3,3.7,2.3c0.6,0,1.3-0.1,1.9-0.4c2.1-1,2.9-3.5,1.9-5.6c-1.3-2.6-3-5-4.6-7.4c-2.8-4.1-5.5-8-5.5-11.9
		c0-2.5,2.1-5.2,4.4-8C218.2,458.2,221.5,454.1,221.5,448.7z"/>
	<path fill="#FFFFFF" d="M259.8,448.7c0-5.4-3.3-9.5-6.2-13.2c-2.3-2.8-4.4-5.5-4.4-8c0-4,2.7-7.8,5.5-11.9c1.6-2.3,3.3-4.8,4.6-7.4
		c1-2.1,0.2-4.6-1.9-5.6c-2.1-1-4.6-0.2-5.6,1.9c-1,2.1-2.5,4.2-4,6.4c-3.3,4.7-7,10.1-7,16.7c0,5.4,3.3,9.5,6.2,13.2
		c2.3,2.8,4.4,5.5,4.4,8s-2.1,5.2-4.4,8c-2.9,3.6-6.2,7.8-6.2,13.2c0,6.6,3.7,11.9,7,16.7c1.5,2.2,3,4.3,4,6.4
		c0.7,1.5,2.2,2.3,3.7,2.3c0.6,0,1.3-0.1,1.9-0.4c2.1-1,2.9-3.5,1.9-5.6c-1.3-2.6-3-5-4.6-7.4c-2.8-4.1-5.5-8-5.5-11.9
		c0-2.5,2.1-5.2,4.4-8C256.5,458.2,259.8,454.1,259.8,448.7z"/>
	<path fill="#FFFFFF" d="M298.2,448.7c0-5.4-3.3-9.5-6.2-13.2c-2.3-2.8-4.4-5.5-4.4-8c0-4,2.7-7.8,5.5-11.9c1.6-2.3,3.3-4.8,4.6-7.4
		c1-2.1,0.2-4.6-1.9-5.6c-2.1-1-4.6-0.2-5.6,1.9c-1,2.1-2.5,4.2-4,6.4c-3.3,4.7-7,10.1-7,16.7c0,5.4,3.3,9.5,6.2,13.2
		c2.3,2.8,4.4,5.5,4.4,8s-2.1,5.2-4.4,8c-2.9,3.6-6.2,7.8-6.2,13.2c0,6.6,3.7,11.9,7,16.7c1.5,2.2,3,4.3,4,6.4
		c0.7,1.5,2.2,2.3,3.7,2.3c0.6,0,1.3-0.1,1.9-0.4c2.1-1,2.9-3.5,1.9-5.6c-1.3-2.6-3-5-4.6-7.4c-2.8-4.1-5.5-8-5.5-11.9
		c0-2.5,2.1-5.2,4.4-8C294.9,458.2,298.2,454.1,298.2,448.7z"/>
</g>
</svg>
