<?xml version="1.0" encoding="utf-8"?>
<!-- Generator: Adobe Illustrator 19.1.0, SVG Export Plug-In . SVG Version: 6.00 Build 0)  -->
<svg version="1.2" baseProfile="tiny" id="Layer_1" xmlns="http://www.w3.org/2000/svg" xmlns:xlink="http://www.w3.org/1999/xlink"
	 x="0px" y="0px" viewBox="0 0 500 500" xml:space="preserve">
<path fill="#FFFFFF" d="M445,74.3H317.6l4.9,6.5c3,4,4.9,8.9,4.9,14.2c0,13.2-11,23.9-24.5,23.9s-24.5-10.7-24.5-23.9
	c0-5.3,1.9-10.2,4.9-14.2l4.9-6.5h-78.4l4.9,6.5c3,4,4.9,8.9,4.9,14.2c0,13.2-11,23.9-24.5,23.9c-13.5,0-24.5-10.7-24.5-23.9
	c0-5.3,1.9-10.2,4.9-14.2l4.9-6.5H53c-27.1,0-49,21.4-49,47.8v277.3c0,26.4,21.9,47.8,49,47.8h392c27.1,0,49-21.4,49-47.8V122.1
	C494,95.7,472.1,74.3,445,74.3z M474.4,399.4c0,15.8-13.2,28.7-29.4,28.7H53c-16.2,0-29.4-12.9-29.4-28.7v-239
	c0-15.8,13.2-28.7,29.4-28.7h181.3v28.7v16.2c0,7.9,6.6,14.3,14.7,14.3c8.1,0,14.7-6.4,14.7-14.3v-16.2v-28.7H445
	c16.2,0,29.4,12.8,29.4,28.7V399.4z"/>
<path fill="#FFFFFF" d="M195.1,97.2c-9.3,0-17-6.3-19-14.7c-0.3,1.4-0.6,2.9-0.6,4.4c0,10.6,8.8,19.1,19.6,19.1
	c10.8,0,19.6-8.6,19.6-19.1c0-1.5-0.2-3-0.6-4.4C212.1,90.9,204.4,97.2,195.1,97.2z"/>
<path fill="#FFFFFF" d="M302.9,97.2c-9.3,0-17-6.3-19-14.7c-0.3,1.4-0.6,2.9-0.6,4.4c0,10.6,8.8,19.1,19.6,19.1s19.6-8.6,19.6-19.1
	c0-1.5-0.2-3-0.6-4.4C319.9,90.9,312.2,97.2,302.9,97.2z"/>
<circle fill="#FFFFFF" cx="226.9" cy="279.9" r="7.3"/>
<path fill="#FFFFFF" d="M253.7,257.1c-2,3.5-0.8,8,2.7,10c3.5,2,8,0.8,10-2.7c2-3.5,0.8-8-2.7-10
	C260.2,252.4,255.7,253.6,253.7,257.1z"/>
<path fill="#FFFFFF" d="M241.6,267.2c3.5-2,4.7-6.5,2.7-10c-2-3.5-6.5-4.7-10-2.7c-3.5,2-4.7,6.5-2.7,10
	C233.6,268,238.1,269.2,241.6,267.2z"/>
<circle fill="#FFFFFF" cx="271" cy="279.9" r="7.3"/>
<path fill="#FFFFFF" d="M256.4,292.6c-3.5,2-4.7,6.5-2.7,10c2,3.5,6.5,4.7,10,2.7c3.5-2,4.7-6.5,2.7-10
	C264.4,291.8,259.9,290.6,256.4,292.6z"/>
<path fill="#FFFFFF" d="M241.6,292.6c-3.5-2-8-0.8-10,2.7c-2,3.5-0.8,8,2.7,10c3.5,2,8,0.8,10-2.7
	C246.4,299.2,245.2,294.7,241.6,292.6z"/>
<circle fill="#FFFFFF" cx="249" cy="279.9" r="7.3"/>
<ellipse fill="#FFFFFF" cx="195.1" cy="72.2" rx="19.6" ry="19.1"/>
<path fill="#FFFFFF" d="M249,210.3c8.1,0,14.7-6.4,14.7-14.3v-14.3c0,7.9-6.6,14.3-14.7,14.3c-8.1,0-14.7-6.4-14.7-14.3v14.3
	C234.3,203.8,240.9,210.3,249,210.3z"/>
<path fill="#FFFFFF" d="M302.9,91.4c10.8,0,19.6-8.6,19.6-19.1s-8.8-19.1-19.6-19.1s-19.6,8.6-19.6,19.1
	C283.3,82.8,292.1,91.4,302.9,91.4z M302.9,57.9c8.1,0,14.7,6.4,14.7,14.3s-6.6,14.3-14.7,14.3c-8.1,0-14.7-6.4-14.7-14.3
	S294.8,57.9,302.9,57.9z"/>
</svg>
