<?xml version="1.0" encoding="utf-8"?>
<!-- Generator: Adobe Illustrator 19.1.0, SVG Export Plug-In . SVG Version: 6.00 Build 0)  -->
<svg version="1.2" baseProfile="tiny" id="Layer_1" xmlns="http://www.w3.org/2000/svg" xmlns:xlink="http://www.w3.org/1999/xlink"
	 x="0px" y="0px" viewBox="0 0 500 500" xml:space="preserve">
<path fill="#FFFFFF" d="M491.5,179L422.4,50.3c-5.1-9.6-15.1-15.5-26-15.5H101.7c-10.9,0-20.8,6-26,15.5c0,0-56.5,105.1-69.1,128.7
	c-1.6,3.1-2.3,6.5-2,10l1.3,14.7c0.5,6.2,5.8,11,12,11h462.4c6.3,0,11.5-4.8,12-11c0,0,0.8-8.8,1.3-14.7
	C493.9,185.5,493.2,182,491.5,179z"/>
<path fill="#FFFFFF" d="M79.6,451.2c0.5,7.4,7.7,13.1,16.4,13.1h9.2c9.1,0,16.4-6.2,16.4-13.9V225.6H60.4L79.6,451.2z"/>
<path fill="#FFFFFF" d="M152.8,287.3c0.4,5.9,6.1,10.5,13.1,10.5h7.4c7.3,0,13.2-5,13.2-11.1v-61.1h-38.9L152.8,287.3z"/>
<path fill="#FFFFFF" d="M313.3,286.7c0,6.1,5.9,11.1,13.2,11.1h7.4c7,0,12.8-4.6,13.1-10.5l5.3-61.8h-38.9V286.7z"/>
<path fill="#FFFFFF" d="M376.5,450.5c0,7.7,7.4,13.9,16.4,13.9h9.2c8.7,0,15.9-5.8,16.4-13.1l19.2-225.7h-61.2V450.5z"/>
</svg>
