<?xml version="1.0" encoding="utf-8"?>
<!-- Generator: Adobe Illustrator 19.1.0, SVG Export Plug-In . SVG Version: 6.00 Build 0)  -->
<svg version="1.2" baseProfile="tiny" id="Layer_1" xmlns="http://www.w3.org/2000/svg" xmlns:xlink="http://www.w3.org/1999/xlink"
	 x="0px" y="0px" viewBox="0 0 500 500" xml:space="preserve">
<g>
	<path fill="#FFFFFF" d="M134.5,192.8c27,0,48.9-21.9,48.9-48.9S161.4,95,134.5,95S85.6,117,85.6,143.9S107.5,192.8,134.5,192.8z
		 M134.5,98.3c25.1,0,45.6,20.4,45.6,45.6c0,25.1-20.4,45.6-45.6,45.6S88.9,169,88.9,143.9C88.9,118.8,109.3,98.3,134.5,98.3z"/>
	<path fill="#FFFFFF" d="M134.5,199.5c30.6,0,55.5-24.9,55.5-55.5s-24.9-55.5-55.5-55.5c-30.6,0-55.5,24.9-55.5,55.5
		S103.9,199.5,134.5,199.5z M134.5,91.7c28.8,0,52.2,23.4,52.2,52.2c0,28.8-23.4,52.2-52.2,52.2c-28.8,0-52.2-23.4-52.2-52.2
		C82.2,115.1,105.7,91.7,134.5,91.7z"/>
	<path fill="#FFFFFF" d="M134.5,186.1c23.3,0,42.2-18.9,42.2-42.2c0-23.3-18.9-42.2-42.2-42.2s-42.2,18.9-42.2,42.2
		C92.3,167.2,111.2,186.1,134.5,186.1z M134.5,105c21.5,0,38.9,17.5,38.9,38.9s-17.5,38.9-38.9,38.9s-38.9-17.5-38.9-38.9
		S113,105,134.5,105z"/>
	<path fill="#FFFFFF" d="M134.5,206.1c34.3,0,62.2-27.9,62.2-62.2c0-34.3-27.9-62.2-62.2-62.2c-34.3,0-62.2,27.9-62.2,62.2
		S100.2,206.1,134.5,206.1z M134.5,85c32.5,0,58.9,26.4,58.9,58.9s-26.4,58.9-58.9,58.9s-58.9-26.4-58.9-58.9S102,85,134.5,85z"/>
	<path fill="#FFFFFF" d="M134.5,248.7c-55.5,0-100.6,45.1-100.6,100.6C33.9,404.9,79,450,134.5,450s100.6-45.1,100.6-100.6
		C235.1,293.9,190,248.7,134.5,248.7z"/>
	<path fill="#FFFFFF" d="M363.9,289.9c-39.3,0-71.3,32-71.3,71.3c0,39.3,32,71.3,71.3,71.3c39.3,0,71.3-32,71.3-71.3
		C435.2,321.9,403.3,289.9,363.9,289.9z"/>
	<path fill="#FFFFFF" d="M363.9,43.3c-55.5,0-100.6,45.1-100.6,100.6s45.1,100.6,100.6,100.6s100.6-45.1,100.6-100.6
		S419.4,43.3,363.9,43.3z"/>
	<path fill="#FFFFFF" d="M486.9,7.7H11.8C9,7.7,6.7,10,6.7,12.8v475.1c0,2.8,2.3,5.1,5.1,5.1h475.1c2.8,0,5.1-2.3,5.1-5.1V12.8
		C492,10,489.7,7.7,486.9,7.7z M134.5,66.7c42.5,0,77.2,34.6,77.2,77.2s-34.6,77.2-77.2,77.2c-42.6,0-77.2-34.6-77.2-77.2
		S91.9,66.7,134.5,66.7z M134.5,455.9C75.7,455.9,28,408.1,28,349.4s47.8-106.5,106.5-106.5c58.7,0,106.5,47.8,106.5,106.5
		S193.2,455.9,134.5,455.9z M363.9,438.3c-42.6,0-77.2-34.6-77.2-77.2c0-42.6,34.6-77.2,77.2-77.2s77.2,34.6,77.2,77.2
		C441.1,403.7,406.5,438.3,363.9,438.3z M363.9,250.4c-58.7,0-106.5-47.8-106.5-106.5S305.2,37.4,363.9,37.4s106.5,47.8,106.5,106.5
		C470.5,202.6,422.7,250.4,363.9,250.4z"/>
	<path fill="#FFFFFF" d="M134.5,179.5c19.6,0,35.6-16,35.6-35.6s-16-35.6-35.6-35.6s-35.6,16-35.6,35.6S114.9,179.5,134.5,179.5z
		 M134.5,111.6c17.8,0,32.3,14.5,32.3,32.3c0,17.8-14.5,32.3-32.3,32.3s-32.3-14.5-32.3-32.3C102.2,126.1,116.7,111.6,134.5,111.6z"
		/>
	<path fill="#FFFFFF" d="M134.5,215.2c39.3,0,71.3-32,71.3-71.3c0-39.3-32-71.3-71.3-71.3s-71.3,32-71.3,71.3
		C63.2,183.2,95.2,215.2,134.5,215.2z M134.5,78.3c36.2,0,65.6,29.4,65.6,65.6c0,36.2-29.3,65.6-65.6,65.6s-65.6-29.3-65.6-65.6
		S98.3,78.3,134.5,78.3z"/>
	<path fill="#FFFFFF" d="M134.5,172.8c15.9,0,28.9-13,28.9-28.9c0-15.9-13-28.9-28.9-28.9s-28.9,13-28.9,28.9
		C105.6,159.9,118.5,172.8,134.5,172.8z M134.5,118.3c14.1,0,25.6,11.5,25.6,25.6c0,14.1-11.5,25.6-25.6,25.6
		c-14.1,0-25.6-11.5-25.6-25.6C108.9,129.8,120.4,118.3,134.5,118.3z"/>
	<path fill="#FFFFFF" d="M134.5,166.2c12.3,0,22.3-10,22.3-22.3c0-12.3-10-22.3-22.3-22.3s-22.3,10-22.3,22.3
		S122.2,166.2,134.5,166.2z"/>
</g>
</svg>
