<?xml version="1.0" encoding="utf-8"?>
<!-- Generator: Adobe Illustrator 19.1.0, SVG Export Plug-In . SVG Version: 6.00 Build 0)  -->
<svg version="1.2" baseProfile="tiny" id="Layer_1" xmlns="http://www.w3.org/2000/svg" xmlns:xlink="http://www.w3.org/1999/xlink"
	 x="0px" y="0px" viewBox="0 0 1191.2 797.2" xml:space="preserve">
<path fill="#BBBCBF" d="M708.7,463.8h-226c-10.9,0-19.7,8.8-19.7,19.7v230.9c0,10.9,8.8,19.7,19.7,19.7h226
	c10.9,0,19.7-8.8,19.7-19.7V483.6C728.4,472.7,719.6,463.8,708.7,463.8z M599.2,561.3l-57.8,75.2c-0.6,0.8-1.5,1.2-2.4,1.2
	c-1,0-1.9-0.4-2.4-1.2l-57.8-75.2c-0.4-0.6-0.6-1.2-0.6-1.9c0-0.6,0.2-1.3,0.6-1.8c0.8-1.1,2.3-1.5,3.6-1l38.3,15.1v-88.6
	c0-1.7,1.4-3.1,3.1-3.1h30.7c1.7,0,3.1,1.4,3.1,3.1l0,88.6l38.3-15.1c1.3-0.5,2.7-0.1,3.6,1C600.1,558.7,600.1,560.2,599.2,561.3z
	 M745.7,410.3h-300c-19.6,0-35.4,15.9-35.4,35.4v306.5c0,19.6,15.9,35.4,35.4,35.4h300c19.6,0,35.4-15.9,35.4-35.4V445.8
	C781.1,426.2,765.2,410.3,745.7,410.3z M742.4,714.5c0,18.6-15.1,33.7-33.7,33.7h-226c-18.6,0-33.7-15.1-33.7-33.7V483.6
	c0-18.6,15.1-33.7,33.7-33.7h226c18.6,0,33.7,15.1,33.7,33.7V714.5z"/>
<path fill="#BBBCBF" d="M1098.8,463.6H873.3c-10.9,0-19.7,8.8-19.7,19.7v230.4c0,10.9,8.8,19.7,19.7,19.7h225.6
	c10.8,0,19.7-8.8,19.7-19.7V483.3C1118.5,472.4,1109.7,463.6,1098.8,463.6z M1033.4,552.5l-75,57.7c-0.6,0.4-1.2,0.6-1.9,0.6
	c-0.6,0-1.3-0.2-1.8-0.6c-1.1-0.8-1.5-2.3-1-3.6l15.1-38.2h-88.4c-1.7,0-3.1-1.4-3.1-3.1v-30.6c0-1.7,1.4-3.1,3.1-3.1l88.4,0
	l-15.1-38.2c-0.5-1.3-0.1-2.7,1-3.6c1.1-0.8,2.6-0.8,3.7,0l75,57.7c0.8,0.6,1.2,1.5,1.2,2.4C1034.6,551,1034.2,551.9,1033.4,552.5z
	 M1135.7,410.2H836.3c-19.5,0-35.4,15.8-35.4,35.4v305.8c0,19.5,15.8,35.4,35.4,35.4h299.4c19.5,0,35.4-15.8,35.4-35.4V445.6
	C1171.1,426,1155.2,410.2,1135.7,410.2z M1132.4,713.7c0,18.5-15.1,33.6-33.6,33.6H873.3c-18.5,0-33.6-15.1-33.6-33.6V483.3
	c0-18.5,15.1-33.6,33.6-33.6h225.6c18.5,0,33.6,15.1,33.6,33.6V713.7z"/>
<g>
	<path fill="#BBBCBF" d="M710.8,66.3h-226c-10.9,0-19.7,8.8-19.7,19.7V317c0,10.9,8.8,19.7,19.7,19.7h226c10.9,0,19.7-8.8,19.7-19.7
		V86C730.5,75.2,721.7,66.3,710.8,66.3z M608.3,161.2c-0.8,1.1-2.3,1.5-3.6,1l-38.3-15.1v88.6c0,1.7-1.4,3.1-3.1,3.1h-30.7
		c-1.7,0-3.1-1.4-3.1-3.1l0-88.6l-38.3,15.1c-1.3,0.5-2.7,0.1-3.6-1c-0.8-1.1-0.8-2.6,0-3.7l57.8-75.2c0.6-0.8,1.5-1.2,2.4-1.2
		c1,0,1.9,0.4,2.4,1.2l57.8,75.2c0.4,0.6,0.6,1.2,0.6,1.9C608.9,160,608.7,160.7,608.3,161.2z M747.8,12.8h-300
		c-19.6,0-35.4,15.9-35.4,35.4v306.5c0,19.6,15.9,35.4,35.4,35.4h300c19.6,0,35.4-15.9,35.4-35.4V48.3
		C783.2,28.7,767.4,12.8,747.8,12.8z M744.5,317c0,18.6-15.1,33.7-33.7,33.7h-226c-18.6,0-33.7-15.1-33.7-33.7V86
		c0-18.6,15.1-33.7,33.7-33.7h226c18.6,0,33.7,15.1,33.7,33.7V317z"/>
</g>
<path fill="#E6E6E7" d="M317.7,463.7h-226c-10.9,0-19.7,8.8-19.7,19.7v230.9c0,10.9,8.8,19.7,19.7,19.7h226
	c10.9,0,19.7-8.8,19.7-19.7V483.4C337.5,472.5,328.6,463.7,317.7,463.7z M94.6,544.8l75.2-57.8c0.6-0.4,1.2-0.6,1.9-0.6
	c0.6,0,1.3,0.2,1.8,0.6c1.1,0.8,1.5,2.3,1,3.6l-15.1,38.3H248c1.7,0,3.1,1.4,3.1,3.1v30.7c0,1.7-1.4,3.1-3.1,3.1l-88.6,0l15.1,38.3
	c0.5,1.3,0.1,2.7-1,3.6c-1.1,0.8-2.6,0.8-3.7,0l-75.2-57.8c-0.8-0.6-1.2-1.5-1.2-2.4C93.4,546.2,93.9,545.3,94.6,544.8z
	 M354.7,410.2h-300c-19.6,0-35.4,15.9-35.4,35.4v306.5c0,19.6,15.9,35.4,35.4,35.4h300c19.6,0,35.4-15.9,35.4-35.4V445.6
	C390.2,426,374.3,410.2,354.7,410.2z M351.4,714.3c0,18.6-15.1,33.7-33.7,33.7h-226C73.1,748,58,732.9,58,714.3V483.4
	c0-18.6,15.1-33.7,33.7-33.7h226c18.6,0,33.7,15.1,33.7,33.7V714.3z"/>
</svg>
