<?xml version="1.0" encoding="utf-8"?>
<!-- Generator: Adobe Illustrator 19.0.1, SVG Export Plug-In . SVG Version: 6.00 Build 0)  -->
<svg version="1.1" id="Layer_1" xmlns="http://www.w3.org/2000/svg" xmlns:xlink="http://www.w3.org/1999/xlink" x="0px" y="0px"
	 viewBox="-256.2 332.8 101.2 101" style="enable-background:new -256.2 332.8 101.2 101;" xml:space="preserve">
<style type="text/css">
	.st0{fill:#FFFFFF;}
</style>
<g>
	<path class="st0" d="M-228.9,355.9c2,1.4,3.6,3.7,4.4,5.8c0.1-0.1,0.2-0.3,0.3-0.4c0.4-0.4,0.8-0.6,1.2-0.9c-0.2-2-2-5.2-4.4-6.9
		c-0.9-0.6-2.1-1.2-3.4-1c-0.6,0.3-1.2,0.7-1.6,1.1c-0.3,0.3-0.6,0.7-0.8,1.1C-231.8,354.5-230.3,354.9-228.9,355.9z"/>
	<path class="st0" d="M-156.4,392.9l-37.3-37.3c-1.3-1.3-4-2.5-5.8-2.6l-27.3-1.4c-0.5,0-1.1,0-1.6,0.1c0.6,0.2,1.1,0.5,1.7,0.9
		c2.5,1.7,4.5,5,4.8,7.4c1.6-0.4,3.3,0,4.6,1.3c1.9,1.9,1.9,4.9,0,6.8c-1.9,1.9-4.9,1.9-6.8,0c-1.4-1.4-1.8-3.5-1.1-5.2
		c-0.5-2-2.2-4.7-4.3-6.2c-1.1-0.8-2.6-1.4-4.2-0.8c-0.4,1-0.6,2.2-0.6,3.2l1.4,27.3c0.1,1.9,1.3,4.5,2.6,5.8l37.3,37.3
		c1.3,1.3,3.5,1.3,4.8,0l31.7-31.8C-155.1,396.4-155.1,394.3-156.4,392.9z M-203.2,373.4c5.6-5.6,9.4-5.6,13.1-1.9
		c3.8,3.8,3.8,7.7-1.8,13.2c-5.5,5.5-9.4,5.6-13.2,1.8C-208.8,382.8-208.7,378.9-203.2,373.4z M-183.1,410.9
		c-5.6,5.6-9.4,5.6-13.2,1.8c-3.8-3.8-3.7-7.6,1.9-13.1c5.5-5.5,9.4-5.6,13.2-1.9C-177.5,401.4-177.6,405.3-183.1,410.9z
		 M-208.3,400.2l-3.3-3.3l33.6-12.9l3.3,3.3L-208.3,400.2z"/>
	<path class="st0" d="M-191.4,402.8c-3.6,3.6-4,5.5-2.2,7.2c1.8,1.8,3.7,1.4,7.3-2.2c3.6-3.6,4-5.5,2.2-7.3
		C-185.9,398.7-187.8,399.2-191.4,402.8z"/>
	<path class="st0" d="M-195.1,381.7c3.6-3.6,4.1-5.5,2.3-7.3c-1.8-1.8-3.7-1.4-7.3,2.3c-3.6,3.6-4,5.4-2.2,7.2
		C-200.6,385.7-198.7,385.3-195.1,381.7z"/>
	<path class="st0" d="M-231.9,351.9c-0.5-1-0.2-2.4,0.3-4.6c0.9-3.4,2.1-8-3.2-11.3c-5.4-3.4-12.4-2.4-16.6,2.2
		c-4.8,5.2-6.1,15.7,4.5,29.4c12.5,16.2,5.9,24.7-0.5,32.9c-2.6,3.4-5.1,6.6-6.1,10.2c-1.8,6.6-0.7,13,3,17.2
		c2,2.3,5.6,4.8,11.7,4.8c1.1,0,2.3-0.1,3.6-0.3c6.9-1,11.6-5.3,13.2-11.9c1.3-5.9-0.4-12.2-4.1-14.7c-0.5-0.3-1.2-0.2-1.5,0.3
		c-0.3,0.5-0.2,1.2,0.3,1.5c2.9,2,4.4,7.4,3.2,12.4c-1.3,5.7-5.4,9.4-11.4,10.3c-5.8,0.8-10.5-0.5-13.4-3.8
		c-3.2-3.6-4.2-9.4-2.6-15.2c0.9-3.2,3.2-6.2,5.7-9.4c6.2-8,14-18,0.5-35.5c-9.7-12.6-8.8-22-4.6-26.6c3.5-3.9,9.4-4.7,13.9-1.8
		c4,2.5,3.2,5.6,2.3,9c-0.6,2.2-1.2,4.7,0.1,6.6c0.2-0.2,0.3-0.4,0.5-0.6C-232.8,352.5-232.4,352.2-231.9,351.9z"/>
</g>
<g>
	<path d="M-335.1,350.6c2,1.4,3.6,3.7,4.4,5.8c0.1-0.1,0.2-0.3,0.3-0.4c0.4-0.4,0.8-0.6,1.2-0.9c-0.2-2-2-5.2-4.4-6.9
		c-0.9-0.6-2.1-1.2-3.4-1c-0.6,0.3-1.2,0.7-1.6,1.1c-0.3,0.3-0.6,0.7-0.8,1.1C-338,349.3-336.6,349.6-335.1,350.6z"/>
	<path d="M-262.6,387.7l-37.3-37.3c-1.3-1.3-4-2.5-5.8-2.6l-27.3-1.4c-0.5,0-1.1,0-1.6,0.1c0.6,0.2,1.1,0.5,1.7,0.9
		c2.5,1.7,4.5,5,4.8,7.4c1.6-0.4,3.3,0,4.6,1.3c1.9,1.9,1.9,4.9,0,6.8c-1.9,1.9-4.9,1.9-6.8,0c-1.4-1.4-1.8-3.5-1.1-5.2
		c-0.5-2-2.2-4.7-4.3-6.2c-1.1-0.8-2.6-1.4-4.2-0.8c-0.4,1-0.6,2.2-0.6,3.2l1.4,27.3c0.1,1.9,1.3,4.5,2.6,5.8l37.3,37.3
		c1.3,1.3,3.5,1.3,4.8,0l31.7-31.8C-261.3,391.2-261.3,389-262.6,387.7z M-309.5,368.2c5.6-5.6,9.4-5.6,13.1-1.9
		c3.8,3.8,3.8,7.7-1.8,13.2c-5.5,5.5-9.4,5.6-13.2,1.8C-315.1,377.6-315,373.7-309.5,368.2z M-289.4,405.6
		c-5.6,5.6-9.4,5.6-13.2,1.8c-3.8-3.8-3.7-7.6,1.9-13.1c5.5-5.5,9.4-5.6,13.2-1.9C-283.8,396.2-283.9,400.1-289.4,405.6z
		 M-314.6,395l-3.3-3.3l33.6-12.9l3.3,3.3L-314.6,395z"/>
	<path d="M-297.7,397.5c-3.6,3.6-4,5.5-2.2,7.2c1.8,1.8,3.7,1.4,7.3-2.2c3.6-3.6,4-5.5,2.2-7.3
		C-292.2,393.5-294.1,393.9-297.7,397.5z"/>
	<path d="M-301.4,376.4c3.6-3.6,4.1-5.5,2.3-7.3c-1.8-1.8-3.7-1.4-7.3,2.3c-3.6,3.6-4,5.4-2.2,7.2C-306.8,380.5-305,380-301.4,376.4
		z"/>
	<path d="M-338.1,346.7c-0.5-1-0.2-2.4,0.3-4.6c0.9-3.4,2.1-8-3.2-11.3c-5.4-3.4-12.4-2.4-16.6,2.2c-4.8,5.2-6.1,15.7,4.5,29.4
		c12.5,16.2,5.9,24.7-0.5,32.9c-2.6,3.4-5.1,6.6-6.1,10.2c-1.8,6.6-0.7,13,3,17.2c2,2.3,5.6,4.8,11.7,4.8c1.1,0,2.3-0.1,3.6-0.3
		c6.9-1,11.6-5.3,13.2-11.9c1.3-5.9-0.4-12.2-4.1-14.7c-0.5-0.3-1.2-0.2-1.5,0.3c-0.3,0.5-0.2,1.2,0.3,1.5c2.9,2,4.4,7.4,3.2,12.4
		c-1.3,5.7-5.4,9.4-11.4,10.3c-5.8,0.8-10.5-0.5-13.4-3.8c-3.2-3.6-4.2-9.4-2.6-15.2c0.9-3.2,3.2-6.2,5.7-9.4c6.2-8,14-18,0.5-35.5
		c-9.7-12.6-8.8-22-4.6-26.6c3.5-3.9,9.4-4.7,13.9-1.8c4,2.5,3.2,5.6,2.3,9c-0.6,2.2-1.2,4.7,0.1,6.6c0.2-0.2,0.3-0.4,0.5-0.6
		C-339,347.3-338.6,347-338.1,346.7z"/>
</g>
</svg>
