<svg xmlns="http://www.w3.org/2000/svg" xmlns:xlink="http://www.w3.org/1999/xlink" version="1.1" x="0px" y="0px" viewBox="0 0 90 112.5" enable-background="new 0 0 90 90" xml:space="preserve"><path fill="#000000" d="M8.738,58.63L4.174,29.108c-0.621-4.016,2.131-7.774,6.147-8.395l60.368-9.333  c4.016-0.621,7.774,2.131,8.395,6.147l1.116,7.218c-0.533-0.102-1.082-0.16-1.644-0.16H17.471c-4.815,0-8.733,3.917-8.733,8.732  V58.63z M85.914,33.317V71.35c0,4.063-3.294,7.358-7.358,7.358H17.471c-4.063,0-7.358-3.294-7.358-7.358V33.317  c0-4.063,3.294-7.358,7.358-7.358h61.085C82.62,25.96,85.914,29.254,85.914,33.317z M44.122,66.232h1.941v-3.414h-1.941V66.232z   M40.535,66.232h1.941v-3.414h-1.941V66.232z M36.948,66.232h1.941v-3.414h-1.941V66.232z M33.363,66.232h1.941v-3.414h-1.941  V66.232z M16.533,48.514c0,1.072,0.869,1.941,1.941,1.941h9.035c1.072,0,1.941-0.869,1.941-1.941v-1.076h-3.407v-1.003h3.407V43.93  h-3.407v-1.003h3.407v-1.25c0-1.072-0.869-1.941-1.941-1.941h-9.035c-1.072,0-1.941,0.869-1.941,1.941v1.25h3.407v1.003h-3.407  v2.506h3.407v1.003h-3.407V48.514z M27.502,62.818v3.414h1.941v-3.414H27.502z M23.915,62.818v3.414h1.941v-3.414H23.915z   M20.328,62.818v3.414h1.941v-3.414H20.328z M16.742,62.818v3.414h1.941v-3.414H16.742z M16.533,70.916h15.808v-1.941H16.533V70.916  z M38.99,74.318H16.533v0.97H38.99V74.318z M51.748,68.975H35.94v1.941h15.808V68.975z M51.923,62.818h-1.941v3.414h1.941V62.818z   M55.51,62.818h-1.941v3.414h1.941V62.818z M59.097,62.818h-1.941v3.414h1.941V62.818z M62.684,62.818h-1.941v3.414h1.941V62.818z   M68.545,62.818h-1.941v3.414h1.941V62.818z M72.13,62.818H70.19v3.414h1.941V62.818z M75.717,62.818h-1.941v3.414h1.941V62.818z   M79.304,62.818h-1.941v3.414h1.941V62.818z M21.636,40.9h-1.003v8.391h1.003V40.9z M25.134,40.9h-1.003v8.391h1.003V40.9z"/><text x="0" y="105" fill="#000000" font-size="5px" font-weight="bold" font-family="'Helvetica Neue', Helvetica, Arial-Unicode, Arial, Sans-serif">Created by Dmitry  Kudinov</text><text x="0" y="110" fill="#000000" font-size="5px" font-weight="bold" font-family="'Helvetica Neue', Helvetica, Arial-Unicode, Arial, Sans-serif">from the Noun Project</text></svg>