<?xml version="1.0" encoding="utf-8"?>
<!-- Generator: Adobe Illustrator 19.0.1, SVG Export Plug-In . SVG Version: 6.00 Build 0)  -->
<svg version="1.1" id="Layer_1" xmlns="http://www.w3.org/2000/svg" xmlns:xlink="http://www.w3.org/1999/xlink" x="0px" y="0px"
	 viewBox="-260 340.5 90 75.5" style="enable-background:new -260 340.5 90 75.5;" xml:space="preserve">
<style type="text/css">
	.st0{fill:#FFFFFF;}
</style>
<path class="st0" d="M-253.9,392.3l-4.9-31.5c-0.7-4.3,2.3-8.3,6.6-9l64.4-10c4.3-0.7,8.3,2.3,9,6.6l1.2,7.7
	c-0.6-0.1-1.2-0.2-1.8-0.2h-65.2c-5.1,0-9.3,4.2-9.3,9.3C-253.9,365.3-253.9,392.3-253.9,392.3z M-171.6,365.3v40.6
	c0,4.3-3.5,7.9-7.9,7.9h-65.2c-4.3,0-7.9-3.5-7.9-7.9v-40.6c0-4.3,3.5-7.9,7.9-7.9h65.2C-175.1,357.4-171.6,361-171.6,365.3z
	 M-216.2,400.4h2.1v-3.6h-2.1V400.4z M-220,400.4h2.1v-3.6h-2.1C-220,396.8-220,400.4-220,400.4z M-223.8,400.4h2.1v-3.6h-2.1
	C-223.8,396.8-223.8,400.4-223.8,400.4z M-227.7,400.4h2.1v-3.6h-2.1V400.4z M-245.6,381.5c0,1.1,0.9,2.1,2.1,2.1h9.6
	c1.1,0,2.1-0.9,2.1-2.1v-1.1h-3.6v-1.1h3.6v-2.7h-3.6v-1.1h3.6v-1.3c0-1.1-0.9-2.1-2.1-2.1h-9.6c-1.1,0-2.1,0.9-2.1,2.1v1.3h3.6v1.1
	h-3.6v2.7h3.6v1.1h-3.6V381.5z M-233.9,396.8v3.6h2.1v-3.6H-233.9z M-237.8,396.8v3.6h2.1v-3.6H-237.8z M-241.6,396.8v3.6h2.1v-3.6
	H-241.6z M-245.4,396.8v3.6h2.1v-3.6H-245.4z M-245.6,405.4h16.9v-2.1h-16.9V405.4z M-221.7,409.1h-24v1h24V409.1z M-208,403.4
	h-16.9v2.1h16.9C-208,405.4-208,403.4-208,403.4z M-207.9,396.8h-2.1v3.6h2.1C-207.9,400.4-207.9,396.8-207.9,396.8z M-204,396.8
	h-2.1v3.6h2.1C-204,400.4-204,396.8-204,396.8z M-200.2,396.8h-2.1v3.6h2.1V396.8z M-196.4,396.8h-2.1v3.6h2.1V396.8z M-190.1,396.8
	h-2.1v3.6h2.1V396.8z M-186.3,396.8h-2.1v3.6h2.1L-186.3,396.8L-186.3,396.8z M-182.5,396.8h-2.1v3.6h2.1V396.8z M-178.6,396.8h-2.1
	v3.6h2.1V396.8z M-240.2,373.4h-1.1v9h1.1V373.4z M-236.5,373.4h-1.1v9h1.1V373.4z"/>
<path d="M-347.8,397.9l-4.6-29.5c-0.6-4,2.1-7.8,6.1-8.4l60.4-9.3c4-0.6,7.8,2.1,8.4,6.1l1.1,7.2c-0.5-0.1-1.1-0.2-1.6-0.2H-339
	c-4.8,0-8.7,3.9-8.7,8.7C-347.8,372.6-347.8,397.9-347.8,397.9z M-270.6,372.6v38c0,4.1-3.3,7.4-7.4,7.4H-339
	c-4.1,0-7.4-3.3-7.4-7.4v-38c0-4.1,3.3-7.4,7.4-7.4h61.1C-273.9,365.2-270.6,368.5-270.6,372.6z M-312.4,405.5h1.9v-3.4h-1.9V405.5z
	 M-316,405.5h1.9v-3.4h-1.9C-316,402.1-316,405.5-316,405.5z M-319.6,405.5h1.9v-3.4h-1.9C-319.6,402.1-319.6,405.5-319.6,405.5z
	 M-323.1,405.5h1.9v-3.4h-1.9V405.5z M-340,387.8c0,1.1,0.9,1.9,1.9,1.9h9c1.1,0,1.9-0.9,1.9-1.9v-1.1h-3.4v-1h3.4v-2.5h-3.4v-1h3.4
	v-1.2c0-1.1-0.9-1.9-1.9-1.9h-9c-1.1,0-1.9,0.9-1.9,1.9v1.2h3.4v1h-3.4v2.5h3.4v1h-3.4V387.8z M-329,402.1v3.4h1.9v-3.4H-329z
	 M-332.6,402.1v3.4h1.9v-3.4H-332.6z M-336.2,402.1v3.4h1.9v-3.4H-336.2z M-339.8,402.1v3.4h1.9v-3.4H-339.8z M-340,410.2h15.8v-1.9
	H-340V410.2z M-317.5,413.6H-340v1h22.5V413.6z M-304.8,408.2h-15.8v1.9h15.8C-304.8,410.2-304.8,408.2-304.8,408.2z M-304.6,402.1
	h-1.9v3.4h1.9C-304.6,405.5-304.6,402.1-304.6,402.1z M-301,402.1h-1.9v3.4h1.9C-301,405.5-301,402.1-301,402.1z M-297.4,402.1h-1.9
	v3.4h1.9V402.1z M-293.8,402.1h-1.9v3.4h1.9V402.1z M-288,402.1h-1.9v3.4h1.9V402.1z M-284.4,402.1h-1.9v3.4h1.9L-284.4,402.1
	L-284.4,402.1z M-280.8,402.1h-1.9v3.4h1.9V402.1z M-277.2,402.1h-1.9v3.4h1.9V402.1z M-334.9,380.1h-1v8.4h1V380.1z M-331.4,380.1
	h-1v8.4h1V380.1z"/>
</svg>
