<?xml version="1.0" encoding="utf-8"?>
<!-- Generator: Adobe Illustrator 19.0.1, SVG Export Plug-In . SVG Version: 6.00 Build 0)  -->
<svg version="1.1" id="Layer_1" xmlns="http://www.w3.org/2000/svg" xmlns:xlink="http://www.w3.org/1999/xlink" x="0px" y="0px"
	 viewBox="-255 334 100 102" style="enable-background:new -255 334 100 102;" xml:space="preserve">
<style type="text/css">
	.st0{fill:#FFFFFF;}
</style>
<g>
	<rect x="-242.5" y="390" class="st0" width="26.7" height="43.8"/>
	<rect x="-194.3" y="390" class="st0" width="26.7" height="43.8"/>
	<path class="st0" d="M-178.4,364.3c3.9-0.6,7.9-2.7,11.7-4.3c0,0,0,0,0.1,0c-0.2-1.9-0.9-4.5-2.4-6c-2-2.1-4.7-3.1-4-6
		c1-4,1-7-1-11.8c-3.7,1.1-9.7,2.6-14.7,6.2c-5.6,4-9.5,8.1-12.1,11.7v-2.2c0-2.1,2.5-3.7,2.5-3.7h-7.7c-1.7,0-3.1,1.7-3.1,3.7v2.1
		c-2.6-3.6-6.5-7.6-12.1-11.6c-5-3.6-11-5.1-14.7-6.2c-1.8,3.5-3.1,4.8-1.1,12.8c0.8,3.1-6,1-6.3,11c0,0,0,0,0.1,0
		c3.8,1.6,7.8,3.7,11.7,4.3h-16.4v21.4h32.1v-21c1.6-0.2,2.4-0.5,3.7-0.7v69.9h14v-70c1.3,0.3,2.1,0.5,3.7,0.8v21.2h32.1v-21.4
		H-178.4z"/>
</g>
<g>
	<rect x="-348.8" y="390.7" width="26.7" height="43.8"/>
	<rect x="-300.6" y="390.7" width="26.7" height="43.8"/>
	<path d="M-284.7,365c3.9-0.6,7.9-2.7,11.7-4.3c0,0,0,0,0.1,0c-0.2-1.9-0.9-4.5-2.4-6c-2-2.1-4.7-3.1-4-6c1-4,1-7-1-11.8
		c-3.7,1.1-9.7,2.6-14.7,6.2c-5.6,4-9.5,8.1-12.1,11.7v-2.2c0-2.1,2.5-3.7,2.5-3.7h-7.7c-1.7,0-3.1,1.7-3.1,3.7v2.1
		c-2.6-3.6-6.5-7.6-12.1-11.6c-5-3.6-11-5.1-14.7-6.2c-1.8,3.5-3.1,4.8-1.1,12.8c0.8,3.1-6,1-6.3,11c0,0,0,0,0.1,0
		c3.8,1.6,7.8,3.7,11.7,4.3h-16.4v21.4h32.1v-21c1.6-0.2,2.5-0.5,3.7-0.7v69.9h14v-70c1.3,0.3,2.1,0.5,3.7,0.8v21.2h32.1V365H-284.7
		z"/>
</g>
</svg>
